<svg xmlns="http://www.w3.org/2000/svg" width="587" height="587" viewBox="0 0 587 587">
  <g id="Grupo_619" data-name="Grupo 619" transform="translate(0 -0.113)">
    <g id="Grupo_206" data-name="Grupo 206" transform="translate(0 0.113)">
      <g id="Grupo_205" data-name="Grupo 205">
        <g id="Grupo_204" data-name="Grupo 204">
          <rect id="Retângulo_9" data-name="Retângulo 9" width="587" height="587" transform="translate(0 0)" fill="#cef"/>
        </g>
      </g>
    </g>
    <g id="Grupo_618" data-name="Grupo 618" transform="translate(148.708 117.444)">
      <g id="Grupo_209" data-name="Grupo 209" transform="translate(27.234 343.827)" opacity="0.35">
        <g id="Grupo_208" data-name="Grupo 208">
          <g id="Grupo_207" data-name="Grupo 207">
            <ellipse id="Elipse_14" data-name="Elipse 14" cx="121.185" cy="19.622" rx="121.185" ry="19.622"/>
          </g>
        </g>
      </g>
      <g id="Grupo_212" data-name="Grupo 212" transform="translate(182.454 2.347)">
        <g id="Grupo_211" data-name="Grupo 211">
          <g id="Grupo_210" data-name="Grupo 210">
            <path id="Caminho_131" data-name="Caminho 131" d="M2260.916,857.224c.537.321,1.1.654,1.706,1.013,4.01,2.387,9.874,4.785,15.673,9.01.282.2.565.415.847.62a83.487,83.487,0,0,1,14.7,13.729,8.61,8.61,0,0,0,5.937,2.7,9.417,9.417,0,0,0,8.168-3.439,52.01,52.01,0,0,0,3.816-5.377c6.8-10.976,10.295-25.292,6.861-37.032a35.807,35.807,0,0,0-1.373-3.871c-.3-.714-.62-1.412-.964-2.088-5.959-11.89-17.932-18.054-31.29-16a36.409,36.409,0,0,0-4.718,1.052c-13.895,4.065-23.481,17.356-24.029,31.284A9.337,9.337,0,0,0,2260.916,857.224Z" transform="translate(-2256.24 -816.098)" fill="#575b5a"/>
          </g>
        </g>
      </g>
      <g id="Grupo_215" data-name="Grupo 215" transform="translate(205.356 16.858)" opacity="0.35">
        <g id="Grupo_214" data-name="Grupo 214">
          <g id="Grupo_213" data-name="Grupo 213">
            <path id="Caminho_132" data-name="Caminho 132" d="M2412.268,952.216a83.467,83.467,0,0,1,14.7,13.729,9.683,9.683,0,0,0,5.937,2.7,39.33,39.33,0,0,0,11.984-8.816,35.075,35.075,0,0,0,6.28-10.411c4.4-10.921,1.916-27.745-1.667-34.463a33.478,33.478,0,0,0,.875,3.971c.4,1.623.792,3.184.792,3.483-.017,2.2-2.187,7.244-3.334,9.315C2441.37,943.4,2433.03,947.221,2412.268,952.216Z" transform="translate(-2412.268 -914.957)"/>
          </g>
        </g>
      </g>
      <g id="Grupo_218" data-name="Grupo 218" transform="translate(184.788 3.163)" opacity="0.3">
        <g id="Grupo_217" data-name="Grupo 217">
          <g id="Grupo_216" data-name="Grupo 216">
            <path id="Caminho_133" data-name="Caminho 133" d="M2323.881,830.334c-13.384-4.495-19.894-3.268-31.15.619-11.279,3.894-19.247,15.188-20.528,17.968-.376-.588.846-6.467,2.505-9.488,6.7-12.217,21.206-19.843,35.458-17.285a37,37,0,0,1,4.69,1.161Z" transform="translate(-2272.135 -821.655)" fill="#fff"/>
          </g>
        </g>
      </g>
      <g id="Grupo_221" data-name="Grupo 221" transform="translate(180.082 0.015)">
        <g id="Grupo_220" data-name="Grupo 220">
          <g id="Grupo_219" data-name="Grupo 219">
            <path id="Caminho_134" data-name="Caminho 134" d="M2286.537,873.546a2.348,2.348,0,0,1-.26-4.682c1.386-.156,4.738-1.432,6.055-3.051,9.54-11.731,13.754-28.29,10.248-40.268-4.714-16.1-19.29-24.046-35.435-19.317-12.62,3.7-21.809,15.67-22.346,29.122a13.738,13.738,0,0,0,.291,3.773,2.348,2.348,0,1,1-4.638.74,18.18,18.18,0,0,1-.345-4.7c.616-15.437,11.192-29.188,25.719-33.442,18.507-5.417,35.858,4.048,41.263,22.5,4.592,15.688-2.272,33.68-11.112,44.551-2.356,2.9-7.137,4.526-9.174,4.754A2.377,2.377,0,0,1,2286.537,873.546Z" transform="translate(-2240.078 -800.204)" fill="#1d1d1d"/>
          </g>
        </g>
      </g>
      <g id="Grupo_224" data-name="Grupo 224" transform="translate(191.191 20.843)">
        <g id="Grupo_223" data-name="Grupo 223">
          <g id="Grupo_222" data-name="Grupo 222">
            <path id="Caminho_135" data-name="Caminho 135" d="M2316.559,965.8c-.958-.352-.846-1.932-.691-2.976,1.411-9.54,6.417-17.228,15.215-19.8,10.966-3.21,21.068,2.273,24.278,13.238,2.553,8.72-.223,19.223-6.224,25.663a14.7,14.7,0,0,1-2.25,2,3.463,3.463,0,0,1-4.439-.382C2338.465,979.582,2328.063,970.027,2316.559,965.8Z" transform="translate(-2315.765 -942.11)" fill="#f8a794"/>
          </g>
        </g>
      </g>
      <g id="Grupo_227" data-name="Grupo 227" transform="translate(191.191 20.844)">
        <g id="Grupo_226" data-name="Grupo 226">
          <g id="Grupo_225" data-name="Grupo 225">
            <path id="Caminho_136" data-name="Caminho 136" d="M2316.558,965.8c9.382,3.446,18.03,10.439,23.062,15.047,1.139,1.039,2.09,1.961,2.824,2.689a3.466,3.466,0,0,0,4.444.382,14.762,14.762,0,0,0,2.249-2c6-6.441,8.777-16.944,6.223-25.662-3.211-10.967-13.31-16.451-24.277-13.239a19.309,19.309,0,0,0-9.675,6.388,27.231,27.231,0,0,0-5.542,13.415C2315.712,963.873,2315.6,965.452,2316.558,965.8Z" transform="translate(-2315.764 -942.114)" fill="#fc7e81"/>
          </g>
        </g>
      </g>
      <g id="Grupo_230" data-name="Grupo 230" transform="translate(191.191 31.097)">
        <g id="Grupo_229" data-name="Grupo 229">
          <g id="Grupo_228" data-name="Grupo 228">
            <path id="Caminho_137" data-name="Caminho 137" d="M2316.558,1025.411c9.382,3.446,18.03,10.439,23.062,15.047a27.292,27.292,0,0,0,1.068-17.325,21.765,21.765,0,0,0-2.512-5.6c-5.986-9.392-20.609-6.264-22.287,4.746l-.023.156C2315.712,1023.479,2315.6,1025.058,2316.558,1025.411Z" transform="translate(-2315.764 -1011.974)" fill="#e25963"/>
          </g>
        </g>
      </g>
      <g id="Grupo_233" data-name="Grupo 233" transform="translate(188.852 18.502)">
        <g id="Grupo_232" data-name="Grupo 232">
          <g id="Grupo_231" data-name="Grupo 231">
            <path id="Caminho_138" data-name="Caminho 138" d="M2331.3,973.294a5.819,5.819,0,0,1-4.107-1.7c-3.839-3.816-13.966-13.131-25.042-17.2h0c-1.308-.481-2.751-1.83-2.2-5.525,1.647-11.142,7.8-19.056,16.877-21.713a21.148,21.148,0,0,1,27.193,14.832c2.71,9.26-.069,20.742-6.759,27.925a17.334,17.334,0,0,1-2.611,2.314A5.782,5.782,0,0,1,2331.3,973.294Zm-26.782-23.026c11.644,4.515,22.012,14.045,25.985,17.995a1.114,1.114,0,0,0,1.428.131,12.5,12.5,0,0,0,1.889-1.684c5.617-6.029,7.957-15.653,5.688-23.4a16.461,16.461,0,0,0-21.365-11.644c-9.917,2.9-12.747,12.457-13.551,17.893A7.027,7.027,0,0,0,2304.518,950.269Z" transform="translate(-2299.828 -926.159)" fill="#1d1d1d"/>
          </g>
        </g>
      </g>
      <g id="Grupo_236" data-name="Grupo 236" transform="translate(2.363 253.247)">
        <g id="Grupo_235" data-name="Grupo 235">
          <g id="Grupo_234" data-name="Grupo 234">
            <path id="Caminho_139" data-name="Caminho 139" d="M1081.452,2566.311c-.517,6.816-4.756,13.028-15.447,17.578-12.435,5.3-23.1,1.339-31.21-11.572-7-11.155-6.7-22.674-2.73-31.5,3.147-7.01,8.619-12.318,14.584-14.4,12.734-4.433,21.887,7.8,29.314,21.106C1079.444,2553.776,1081.9,2560.281,1081.452,2566.311Z" transform="translate(-1029.262 -2525.498)" fill="#575b5a"/>
          </g>
        </g>
      </g>
      <g id="Grupo_239" data-name="Grupo 239" transform="translate(3.663 253.247)" opacity="0.3">
        <g id="Grupo_238" data-name="Grupo 238">
          <g id="Grupo_237" data-name="Grupo 237">
            <path id="Caminho_140" data-name="Caminho 140" d="M1089.01,2566.311a16.706,16.706,0,0,1-3.6,9.259c.088-.528.153-1.062.194-1.6.452-6.03-2.008-12.535-5.49-18.782-7.427-13.31-16.58-25.539-29.314-21.106-4.9,1.7-9.458,5.583-12.676,10.8a31.024,31.024,0,0,1,1.5-4.063c3.147-7.01,8.619-12.318,14.584-14.4,12.734-4.433,21.887,7.8,29.314,21.106C1087,2553.776,1089.462,2560.281,1089.01,2566.311Z" transform="translate(-1038.12 -2525.498)" fill="#fff"/>
          </g>
        </g>
      </g>
      <g id="Grupo_242" data-name="Grupo 242" transform="translate(2.363 268.568)" opacity="0.6">
        <g id="Grupo_241" data-name="Grupo 241">
          <g id="Grupo_240" data-name="Grupo 240">
            <path id="Caminho_141" data-name="Caminho 141" d="M1081.452,2655.372c-.517,6.816-4.756,13.028-15.447,17.578-12.435,5.3-23.1,1.339-31.21-11.572-7-11.155-6.7-22.674-2.73-31.5a41.106,41.106,0,0,0,16.744,21.729C1060.81,2659.687,1071.853,2660.932,1081.452,2655.372Z" transform="translate(-1029.262 -2629.88)" fill="#1d1d1d"/>
          </g>
        </g>
      </g>
      <g id="Grupo_245" data-name="Grupo 245" transform="translate(0 250.895)">
        <g id="Grupo_244" data-name="Grupo 244">
          <g id="Grupo_243" data-name="Grupo 243">
            <path id="Caminho_142" data-name="Caminho 142" d="M1041.938,2574.865c-8.857,0-16.632-5.047-22.866-14.973-6.144-9.783-7.552-20.8-3.966-31.019,3.061-8.721,9.587-15.748,17.031-18.339h0c14.676-5.1,24.882,9.169,32.138,22.176,5.561,9.968,7.129,18.132,4.793,24.956-2.113,6.174-7.456,11.124-15.882,14.71A28.715,28.715,0,0,1,1041.938,2574.865Zm-8.257-59.894c-6.125,2.131-11.544,8.055-14.143,15.459-3.1,8.842-1.857,18.418,3.511,26.964,7.466,11.889,16.986,15.476,28.3,10.661,7.147-3.042,11.614-7.049,13.277-11.909,1.879-5.492.423-12.409-4.452-21.148-9.577-17.168-17.5-23.161-26.492-20.027Z" transform="translate(-1013.162 -2509.473)" fill="#1d1d1d"/>
          </g>
        </g>
      </g>
      <g id="Grupo_248" data-name="Grupo 248" transform="translate(192.688 201.718)">
        <g id="Grupo_247" data-name="Grupo 247">
          <g id="Grupo_246" data-name="Grupo 246">
            <path id="Caminho_143" data-name="Caminho 143" d="M2347.9,2192.517c11.1,12.6-1.067,15.146-9.444,17.194-15.175,3.711-15.507,20.334-6.475,25.1,19.99,10.556,37.835-2.17,40.28-6.008,7.817-12.271-1.118-37.255-24.073-54.382Z" transform="translate(-2325.959 -2174.425)" fill="#575b5a"/>
          </g>
        </g>
      </g>
      <g id="Grupo_251" data-name="Grupo 251" transform="translate(190.34 199.369)">
        <g id="Grupo_250" data-name="Grupo 250">
          <g id="Grupo_249" data-name="Grupo 249">
            <path id="Caminho_144" data-name="Caminho 144" d="M2334.494,2227.662a36.6,36.6,0,0,1-17.257-4.421c-5.041-2.662-7.915-8.6-7.151-14.78.9-7.243,6.19-12.732,14.164-14.682,3.867-.945,10.339-2.528,11.293-5.566.587-1.866-.762-4.736-3.9-8.3a2.348,2.348,0,1,1,3.525-3.1c4.4,5,5.992,9.193,4.855,12.812-1.749,5.563-9.21,7.387-14.658,8.72-6,1.469-9.972,5.467-10.618,10.7-.526,4.255,1.356,8.293,4.683,10.05,18.454,9.747,35.194-2.04,37.2-5.193,6.943-10.9-.844-34.619-23.118-51.239a2.348,2.348,0,1,1,2.809-3.764c24.7,18.428,32.49,44.623,24.271,57.526C2358.521,2219.672,2348.166,2227.662,2334.494,2227.662Z" transform="translate(-2309.964 -2158.426)" fill="#1d1d1d"/>
          </g>
        </g>
      </g>
      <g id="Grupo_254" data-name="Grupo 254" transform="translate(28.626 190.729)">
        <g id="Grupo_253" data-name="Grupo 253">
          <g id="Grupo_252" data-name="Grupo 252">
            <path id="Caminho_145" data-name="Caminho 145" d="M1449.04,2218.284v.253a55.4,55.4,0,0,1-2.906,16.456c-.211.664-.434,1.333-.669,2-.693,2-1.474,4-2.325,5.948-.428.98-.869,1.955-1.321,2.912-.6,1.28-1.245,2.531-1.9,3.757s-1.327,2.425-2.02,3.587c-.869,1.444-1.755,2.836-2.66,4.151-.182.264-.358.528-.546.781-.734,1.028-1.468,2.008-2.207,2.93a44.675,44.675,0,0,1-3.341,3.74,19.31,19.31,0,0,1-6.429,4.532h-.006c-.258.094-.511.188-.769.264-.211.07-.423.141-.628.194h-.006c-.153.041-.305.082-.458.117a.2.2,0,0,1-.076.018c-.088.029-.176.047-.264.071s-.194.041-.294.059a.072.072,0,0,1-.041.012l-.27.053c-.082.018-.17.029-.246.041a4.331,4.331,0,0,1-.458.076c-.159.024-.305.041-.458.065s-.3.035-.452.047-.288.024-.44.03c-.117.012-.241.018-.358.018-.44.018-.881.024-1.309.006-.223-.018-.44-.029-.652-.047l-.523-.053c-.082-.012-.17-.029-.247-.035-.176-.023-.352-.047-.517-.076-.411-.064-.81-.153-1.209-.252-.206-.053-.411-.112-.6-.164s-.393-.117-.581-.182-.376-.129-.564-.2-.352-.135-.522-.194c-.024-.011-.041-.029-.065-.029-.305-.123-.6-.258-.886-.394-.2-.1-.4-.194-.593-.293-.047-.029-.1-.053-.153-.082a21.093,21.093,0,0,1-1.949-1.174c-.053-.035-.111-.07-.164-.105-.123-.088-.241-.165-.358-.253s-.235-.17-.346-.258-.241-.182-.358-.27c-.1-.082-.2-.158-.294-.235-.135-.112-.264-.223-.393-.329s-.258-.218-.376-.323h-.006l-.258-.241c-.258-.235-.487-.452-.687-.657-.094-.094-.182-.182-.27-.264-.405-.428-.7-.763-.863-.957a1.619,1.619,0,0,1-.123-.165l-.018-.018h-.012c-.376-.082-.769-.165-1.156-.241,0,0-.006-.006-.018,0-26.6-5.337-75.613,1.421-91.547,3.875-3.159.487-5.02.8-5.143.828l3.6-1.2c-.881-.217-1.773-.446-2.671-.687-.293.664-.6,1.292-.927,1.885a15.172,15.172,0,0,1-2.789,3.792c-9.282,8.748-20.925,2.172-20.925,2.172-45.154,22.292-67.388-18.84-67.388-18.84-8.771-21.923-5.889-47.6,1.274-71.322a237.863,237.863,0,0,1,10.644-28.216,314.572,314.572,0,0,1,25.2-45.518l1.438-6.852,75.109-3.27,51.536,2.566,12.171,8.448,2.243,1.556a.075.075,0,0,1,.006.035,389.686,389.686,0,0,1,8.989,44.562q.44,3.126.822,6.346c.81,6.763,1.432,13.779,1.755,20.866a14.1,14.1,0,0,1,2.554.276h.006c7.826,1.556,11.631,9.593,13.627,21.324a2.281,2.281,0,0,1,.17-.165c.229-.229.458-.44.687-.646.17-.158.34-.305.511-.452.264-.223.522-.435.787-.64l.076-.059q.185-.149.37-.281c.012-.006.018-.012.029-.018.094-.064.182-.135.276-.2a.468.468,0,0,0,.07-.047c.2-.141.405-.282.611-.411.035-.023.07-.041.106-.065.112-.07.223-.141.335-.205.094-.053.188-.112.282-.164s.176-.1.264-.147q.3-.167.6-.317c.088-.041.176-.088.27-.129l.141-.07c.123-.053.247-.112.37-.164.012-.006.018-.006.029-.012.276-.117.552-.229.828-.329a.329.329,0,0,1,.082-.029c.382-.141.757-.253,1.133-.353.047-.012.1-.029.141-.041.012,0,.029-.006.041-.006.34-.088.681-.164,1.016-.229.018,0,.035-.006.053-.006a13.161,13.161,0,0,1,1.891-.206c.029,0,.065-.006.094-.006.17-.006.335-.012.5-.012.053,0,.1.006.152.006.346.006.687.018,1.028.047.129.012.252.023.376.041.258.023.522.059.781.106.117.018.235.029.352.053.323.059.64.135.951.211.141.035.27.07.405.105.258.076.511.153.757.235.211.064.417.141.622.223.176.064.358.129.534.205s.358.153.54.235c.076.035.158.071.235.106s.129.071.194.1c.223.106.44.217.658.335.07.041.147.07.217.112a.006.006,0,0,1,.006.006c.088.047.176.1.258.153.123.071.241.135.358.206.288.176.569.352.839.54.053.035.106.076.158.112.223.158.44.317.658.481.094.071.188.147.282.217.035.029.076.059.112.088l.387.317c.07.059.129.112.194.17.029.03.059.053.088.082l.34.305.006.006c.129.123.253.24.37.358a.006.006,0,0,1,.006.006h.006c.006.006.006.018.012.023.258.253.5.517.734.775.029.035.07.076.106.117.164.188.323.382.47.575.182.229.346.464.5.693.029.041.059.082.088.129.123.188.235.37.341.552.023.047.053.094.076.135.123.223.235.44.323.646.029.064.053.129.076.194.135.317.264.64.382.969.065.17.112.341.17.51.076.241.153.482.223.728.053.194.106.387.153.587.059.229.112.464.164.7.047.206.088.417.129.628.047.229.082.464.118.7s.076.446.106.669c.023.206.041.417.065.622q.079.775.123,1.585c.012.147.018.293.023.446C1449.029,2217.609,1449.034,2217.944,1449.04,2218.284Z" transform="translate(-1208.191 -2099.56)" fill="#fff"/>
          </g>
        </g>
      </g>
      <g id="Grupo_257" data-name="Grupo 257" transform="translate(28.626 274.32)">
        <g id="Grupo_256" data-name="Grupo 256">
          <g id="Grupo_255" data-name="Grupo 255">
            <path id="Caminho_146" data-name="Caminho 146" d="M1449.04,2704.207v.252a55.4,55.4,0,0,1-2.906,16.457c-.211.663-.434,1.333-.669,2-.693,2-1.474,4-2.325,5.947-.428.98-.869,1.955-1.321,2.912-.6,1.28-1.245,2.531-1.9,3.757s-1.327,2.425-2.02,3.587c-.869,1.444-1.755,2.835-2.66,4.151-.182.264-.358.529-.546.781-.734,1.028-1.468,2.008-2.207,2.93a44.67,44.67,0,0,1-3.341,3.74,19.307,19.307,0,0,1-6.429,4.532h-.006c-.258.094-.511.188-.769.264-.211.07-.423.141-.628.194h-.006c-.153.041-.305.082-.458.117a.2.2,0,0,1-.076.018c-.088.029-.176.047-.264.071s-.194.041-.294.058a.071.071,0,0,1-.041.012l-.27.053c-.082.018-.17.03-.246.041a4.395,4.395,0,0,1-.458.076c-.159.024-.305.041-.458.065s-.3.035-.452.047-.288.024-.44.029c-.117.012-.241.018-.358.018-.44.018-.881.024-1.309.006-.223-.018-.44-.029-.652-.047l-.523-.053c-.082-.012-.17-.03-.247-.035-.176-.023-.352-.047-.517-.076-.411-.064-.81-.152-1.209-.252-.206-.053-.411-.112-.6-.164s-.393-.117-.581-.182-.376-.129-.564-.2-.352-.135-.522-.194c-.024-.011-.041-.029-.065-.029-.305-.124-.6-.258-.886-.394-.2-.1-.4-.194-.593-.294-.047-.029-.1-.052-.153-.082a21.147,21.147,0,0,1-1.949-1.174c-.053-.035-.111-.071-.164-.106-.123-.088-.241-.165-.358-.252s-.235-.17-.346-.259-.241-.182-.358-.27c-.1-.082-.2-.158-.294-.235-.135-.112-.264-.223-.393-.329s-.258-.217-.376-.323h-.006l-.258-.241c-.258-.235-.487-.452-.687-.657-.094-.094-.182-.182-.27-.264-.405-.428-.7-.763-.863-.957a1.592,1.592,0,0,1-.123-.165l-.018-.018h-.012c-.376-.082-.769-.164-1.156-.241,0,0-.006-.006-.018,0-26.6-5.337-75.613,1.421-91.547,3.875-3.159.487-5.02.8-5.143.828a15.163,15.163,0,0,1-2.789,3.792c-9.282,8.748-20.925,2.172-20.925,2.172-45.154,22.292-67.388-18.84-67.388-18.84-8.771-21.923-5.889-47.6,1.274-71.322a96.572,96.572,0,0,1,40.035,5.683c.364.129.728.264,1.092.4,2.795,1.045,8.02,10.638,16.856,21.277,10.268,12.365,25.416,26.138,47.274,29.514,17.408,2.689,35.678,1.532,54.208-1.28,31.234-4.75,30.353-38.878,30.353-38.878l.07-11.648.029-4.544c9.312.206,13.732,8.184,15.993,20.513.07.358.129.722.194,1.086a2.23,2.23,0,0,1,.17-.164c.229-.229.458-.44.687-.646.17-.158.34-.305.511-.452.264-.223.522-.435.787-.64l.076-.059q.185-.15.37-.282c.012-.006.018-.012.029-.018.094-.065.182-.135.276-.2a.472.472,0,0,0,.07-.047c.2-.141.405-.282.611-.411.035-.023.07-.041.106-.065.112-.07.223-.141.335-.205.094-.053.188-.111.282-.165s.176-.1.264-.147q.3-.167.6-.317c.088-.041.176-.088.27-.129l.141-.07c.123-.053.247-.112.37-.165.012-.006.018-.006.029-.012.276-.117.552-.229.828-.329a.329.329,0,0,1,.082-.03c.382-.141.757-.252,1.133-.352.047-.012.1-.03.141-.041.012,0,.029-.006.041-.006.34-.088.681-.164,1.016-.229.018,0,.035-.006.053-.006a13.126,13.126,0,0,1,1.891-.206c.029,0,.065-.006.094-.006.17-.006.335-.012.5-.012.053,0,.1.006.152.006.346.006.687.018,1.028.047.129.012.252.024.376.041.258.023.522.059.781.105.117.018.235.03.352.053.323.059.64.135.951.211.141.035.27.07.405.106.258.076.511.152.757.235.211.064.417.141.622.223.176.065.358.129.534.206s.358.153.54.235l.235.106c.07.029.129.07.194.1.223.106.44.217.658.335.07.041.147.07.217.111a.006.006,0,0,1,.006.006c.088.047.176.1.258.153.123.071.241.135.358.206.288.176.569.352.839.54.053.035.106.076.158.112.223.158.44.317.658.481.094.07.188.147.282.217.035.03.076.059.112.088l.387.317c.07.059.129.112.194.17.029.03.059.053.088.082l.34.305.006.006c.129.123.253.24.37.358a.006.006,0,0,1,.006.006h.006c.006.006.006.018.012.023.258.252.5.517.734.775.029.035.07.076.106.117.164.188.323.382.47.575.182.229.346.464.5.693.029.041.059.082.088.129.123.188.235.37.341.552.023.047.053.094.076.135.123.223.235.44.323.646.029.064.053.129.076.194.135.317.264.64.382.969.065.17.112.341.17.511.076.241.153.481.223.728.053.194.106.387.153.587.059.229.112.464.164.7.047.206.088.417.129.628.047.229.082.464.118.7s.076.446.106.669c.023.206.041.417.065.622q.079.775.123,1.585c.012.147.018.293.023.446C1449.029,2703.532,1449.034,2703.866,1449.04,2704.207Z" transform="translate(-1208.191 -2669.073)" fill="#575b5a"/>
          </g>
        </g>
      </g>
      <g id="Grupo_260" data-name="Grupo 260" transform="translate(225.225 275.108)" opacity="0.5">
        <g id="Grupo_259" data-name="Grupo 259">
          <g id="Grupo_258" data-name="Grupo 258">
            <path id="Caminho_147" data-name="Caminho 147" d="M2563.662,2694.954c-6.229-12.194-12.934-15.224-16.022-15.969l.03-4.544C2556.981,2674.646,2561.4,2682.625,2563.662,2694.954Z" transform="translate(-2547.64 -2674.44)" fill="#fff"/>
          </g>
        </g>
      </g>
      <g id="Grupo_263" data-name="Grupo 263" transform="translate(74.468 280.269)" opacity="0.3">
        <g id="Grupo_262" data-name="Grupo 262">
          <g id="Grupo_261" data-name="Grupo 261">
            <path id="Caminho_148" data-name="Caminho 148" d="M1537.751,2754.437a105.152,105.152,0,0,0-17.231-43.481,11.262,11.262,0,0,1,.9-1.356c.364.129.728.264,1.092.4,2.795,1.045,8.02,10.638,16.856,21.277A61.042,61.042,0,0,1,1537.751,2754.437Z" transform="translate(-1520.52 -2709.6)" fill="#fff"/>
          </g>
        </g>
      </g>
      <g id="Grupo_266" data-name="Grupo 266" transform="translate(45.982 190.729)">
        <g id="Grupo_265" data-name="Grupo 265">
          <g id="Grupo_264" data-name="Grupo 264">
            <path id="Caminho_149" data-name="Caminho 149" d="M1503.957,2163.073c-50.362,12.587-92.756,11.689-124.664,6.61-23.8-3.788-16.578-15.041-52.853-14.483a315.263,315.263,0,0,1,24.33-44.2c.317-.487.611-.928.875-1.315l1.438-6.852,75.108-3.27,51.536,2.566,12.171,8.448,2.243,1.556a.076.076,0,0,1,.006.035c.763,2.319,1.532,4.985,2.29,7.955A348.238,348.238,0,0,1,1503.957,2163.073Z" transform="translate(-1326.44 -2099.56)" fill="#575b5a"/>
          </g>
        </g>
      </g>
      <g id="Grupo_269" data-name="Grupo 269" transform="translate(222.838 271.447)">
        <g id="Grupo_268" data-name="Grupo 268">
          <g id="Grupo_267" data-name="Grupo 267">
            <path id="Caminho_150" data-name="Caminho 150" d="M2551.728,2694.365a2.348,2.348,0,0,1-2.342-2.214c-1.315-22.89-4.271-35.725-16.107-38a2.349,2.349,0,0,1,.887-4.613c16.32,3.14,18.73,21.821,19.908,42.345a2.347,2.347,0,0,1-2.209,2.479C2551.819,2694.363,2551.773,2694.365,2551.728,2694.365Z" transform="translate(-2531.374 -2649.494)" fill="#1d1d1d"/>
          </g>
        </g>
      </g>
      <g id="Grupo_272" data-name="Grupo 272" transform="translate(125.164 334.148)" opacity="0.35">
        <g id="Grupo_271" data-name="Grupo 271">
          <g id="Grupo_270" data-name="Grupo 270">
            <path id="Caminho_151" data-name="Caminho 151" d="M1982.119,3103.59a.355.355,0,0,1-.074.025.218.218,0,0,1-.081.019c-.174.043-.347.081-.521.118a.186.186,0,0,1-.074.019c-.174.037-.347.068-.521.1a14.392,14.392,0,0,1-1.8.217c-.149.012-.292.019-.44.019a16.942,16.942,0,0,1-9.627-2.74c-.291-.174-.564-.36-.831-.539-.49-.341-.942-.682-1.358-1.017-.273-.223-.527-.44-.769-.651l-.006-.006c-.359-.322-.676-.626-.948-.892-.093-.1-.18-.186-.267-.267a14.866,14.866,0,0,1-.985-1.116c-.013-.018-.019-.018-.019-.018v-.006c-.006,0-.006.006-.012.006-.378-.087-.768-.167-1.159-.242a.009.009,0,0,0-.012,0c-26.605-5.337-75.618,1.42-91.549,3.874-3.161.49-5.021.806-5.145.831l3.4-16.737c36.69-11.87,96.935-6.844,96.935-6.844v.007a88.612,88.612,0,0,0-1.878,9.5C1963.033,3097.478,1972.325,3105.983,1982.119,3103.59Z" transform="translate(-1865.918 -3076.684)"/>
          </g>
        </g>
      </g>
      <g id="Grupo_275" data-name="Grupo 275" transform="translate(223.489 291.303)">
        <g id="Grupo_274" data-name="Grupo 274">
          <g id="Grupo_273" data-name="Grupo 273">
            <path id="Caminho_152" data-name="Caminho 152" d="M2555.476,2853.974q-.374.139-.743.258c-10.171,3.288-20.173-5.453-18.792-16.053.806-6.184,2.657-12.218,4.01-18.163a12.75,12.75,0,0,1,.71-2.2h0c12.032-47.543,35.9-32.124,39.385-24.226C2587.785,2811.14,2568.262,2849.246,2555.476,2853.974Z" transform="translate(-2535.813 -2784.775)" fill="#fff"/>
          </g>
        </g>
      </g>
      <g id="Grupo_278" data-name="Grupo 278" transform="translate(122.813 288.957)">
        <g id="Grupo_277" data-name="Grupo 277">
          <g id="Grupo_276" data-name="Grupo 276">
            <path id="Caminho_153" data-name="Caminho 153" d="M1964.321,2843.765c-.224,0-.455,0-.684-.011-.305-.016-.545-.03-.787-.05l-.9-.1c-.207-.029-.414-.06-.613-.1-.419-.069-.872-.167-1.32-.271l-.984-.277c-.136-.042-.269-.083-.4-.126l-1.453-.54a22.141,22.141,0,0,1-3.129-1.638c-.294-.178-.613-.385-.919-.6l-.067-.047c-.1-.073-.207-.144-.307-.219-.149-.1-.3-.211-.437-.321-.088-.065-1.467-1.192-1.467-1.192l-.177-.161c-.95-.956-1.481-1.5-1.785-1.811l-.416-.083-.328-.065-.347-.067c-26.554-5.046-75.564,1.792-90.053,4.025-2.985.462-4.85.776-5.057.815l-.214.04-.232,0a2.349,2.349,0,0,1-.342-4.674c.53-.094,2.468-.414,5.128-.826,18.684-2.878,64.516-8.96,91.127-4.094l.78-.781,1.166,1.157.432.095a2.517,2.517,0,0,1,1.541,1c.162.172,1.043,1.066,1.846,1.875.281.23,1.11.909,1.268,1.032.093.072.168.127.242.178l.075.053c.08.059.161.115.244.173l.068.047c.224.156.462.309.7.457a17.644,17.644,0,0,0,2.181,1.171h.212l.4.254.163.063,1.119.378.527.145c.334.078.673.151,1.017.209.153.027.278.046.4.063.093.009.189.022.282.036l.466.05c.143.011.336.022.534.033.3.009.664.009,1.031,0,.149,0,.233,0,.317-.012l.1-.006c.093,0,.183-.012.275-.019.168-.014.273-.028.381-.041.16-.019.279-.034.4-.055l.1-.013c.092-.011.178-.025.27-.044l.784-.153.109-.028.359-.089c.069-.017.138-.035.2-.054l.327-.1q.122-.036.243-.075c.231-.073.442-.145.657-.228l.3-.114a17.915,17.915,0,0,0,5.323-3.892,40.735,40.735,0,0,0,3.163-3.541c.714-.886,1.425-1.831,2.119-2.815.194-.264.355-.5.515-.737.889-1.292,1.757-2.646,2.592-4.047.679-1.134,1.339-2.3,1.962-3.48.653-1.219,1.274-2.45,1.849-3.667.488-1.029.908-1.955,1.286-2.832.834-1.918,1.594-3.864,2.263-5.791.231-.657.446-1.3.65-1.945,3.252-10.17,3.692-18.83,1.243-24.388a8.294,8.294,0,0,0-1.035-1.666c-.129-.167-.272-.336-.414-.5-.2-.229-.451-.5-.717-.761-.108-.107-.2-.2-.3-.286l-.083-.08c-.122-.114-.3-.272-.484-.432l-.353-.285a16.081,16.081,0,0,0-2.319-1.564l-.3-.167c-.206-.109-.415-.214-.625-.311-.508-.237-1.011-.443-1.5-.614a12.677,12.677,0,0,0-5.433-.679,12.2,12.2,0,0,0-1.814.326c-.138.036-.208.053-.278.074a14.349,14.349,0,0,0-1.6.573l-.335.151c-.3.139-.623.308-.948.487l-.392.226c-.289.174-.6.377-.91.591-.082.058-.184.129-.286.206l-.065.046c-.085.059-.169.124-.254.191-.158.12-.261.2-.365.286-.36.288-.717.6-1.066.92a2.349,2.349,0,0,1-3.2-3.443c.434-.4.88-.787,1.325-1.142.138-.111.282-.226.426-.334.1-.082.251-.195.4-.3.135-.1.27-.2.4-.29.414-.283.8-.538,1.193-.773l.461-.266c.471-.26.89-.476,1.309-.671l.41-.184a19.038,19.038,0,0,1,2.136-.77c.119-.036.251-.071.379-.1a16.895,16.895,0,0,1,10.039.447c.641.225,1.289.49,1.934.791.221.1.442.212.662.325h1.76l0,1.023a21.416,21.416,0,0,1,1.8,1.3l.472.384c.253.224.468.414.672.606l.006.006c.139.127.272.26.406.391.367.367.688.709.987,1.051.212.251.392.467.56.683a12.85,12.85,0,0,1,1.62,2.651c3.733,8.469,1.481,19.743-1.066,27.708-.216.682-.447,1.375-.691,2.068-.7,2.029-1.508,4.086-2.386,6.107-.4.921-.84,1.9-1.352,2.977-.607,1.284-1.263,2.585-1.948,3.864-.657,1.239-1.357,2.481-2.076,3.681-.885,1.485-1.808,2.925-2.74,4.279-.183.271-.381.558-.587.839-.724,1.028-1.5,2.055-2.271,3.015a45.211,45.211,0,0,1-3.523,3.939,21.356,21.356,0,0,1-7.257,5.058l-.409.147c-.159.055-.317.108-.474.157-.213.07-.447.139-.681.207l-.356.094-.115.029a2.541,2.541,0,0,1-.249.062l-.237.06-.207.1-.442.029c-.057.014-.18.035-.3.054-.18.035-.355.063-.536.086-.163.026-.323.046-.48.066-.232.028-.4.047-.56.061-.2.017-.346.028-.491.034-.2.015-.394.023-.582.023S1964.535,2843.765,1964.321,2843.765Zm3.866-5.175-.06,0,.061,0Zm-18.675-2.158c.047.012.095.023.144.033l-.069-.016Zm-.558-2.514h0Z" transform="translate(-1849.897 -2768.797)" fill="#1d1d1d"/>
          </g>
        </g>
      </g>
      <g id="Grupo_281" data-name="Grupo 281" transform="translate(228.334 294.557)">
        <g id="Grupo_280" data-name="Grupo 280">
          <g id="Grupo_279" data-name="Grupo 279">
            <path id="Caminho_154" data-name="Caminho 154" d="M2568.823,2836.738l0-.006h0a32.254,32.254,0,0,1,.258-3.95,36.083,36.083,0,0,1,.626-3.883,66.151,66.151,0,0,1,2.188-7.608c.231-.631.469-1.236.723-1.841l.407-.952.4-.9a36.922,36.922,0,0,1,1.888-3.569c.342-.585.668-1.168,1.065-1.743s.8-1.109,1.2-1.656a15.138,15.138,0,0,1,1.33-1.592c.467-.511.927-1.009,1.457-1.5l.009-.008a2.2,2.2,0,0,1,3.1,3.122c-.388.417-.76.905-1.152,1.354s-.761.895-1.115,1.4l-1.079,1.463c-.35.476-.657,1.016-.987,1.53l-1,1.547c-.324.524-.625,1.066-.935,1.6l-.465.827-.426.791-.874,1.679-1.6,3.426c-.574,1.135-1.1,2.278-1.625,3.442-1.1,2.335-2.124,4.678-3.4,7.017Z" transform="translate(-2568.821 -2806.95)" fill="#1d1d1d"/>
          </g>
        </g>
      </g>
      <g id="Grupo_284" data-name="Grupo 284" transform="translate(229.442 320.16)">
        <g id="Grupo_283" data-name="Grupo 283" transform="translate(0 0)">
          <g id="Grupo_282" data-name="Grupo 282">
            <ellipse id="Elipse_15" data-name="Elipse 15" cx="14.73" cy="8.1" rx="14.73" ry="8.1" transform="translate(0 26.735) rotate(-65.163)" fill="#fc7e81"/>
          </g>
        </g>
      </g>
      <g id="Grupo_287" data-name="Grupo 287" transform="translate(223.487 309.694)" opacity="0.35">
        <g id="Grupo_286" data-name="Grupo 286">
          <g id="Grupo_285" data-name="Grupo 285">
            <path id="Caminho_155" data-name="Caminho 155" d="M2581.791,2910.075a39.449,39.449,0,0,1-.29,4.766c-.061.55-.138,1.1-.221,1.658a57.7,57.7,0,0,1-1.314,6.309c-.122.481-.26.97-.4,1.452a82.393,82.393,0,0,1-3.391,9.555c-.191.458-.39.909-.6,1.36a87.885,87.885,0,0,1-4.094,8.135c-.214.375-.427.749-.649,1.115-.237.4-.474.8-.718,1.192-.344.565-.7,1.123-1.054,1.673-.428.665-.863,1.314-1.3,1.94-.214.305-.427.6-.641.9a49.972,49.972,0,0,1-4.675,5.66c-.183.2-.374.382-.557.565a19.213,19.213,0,0,1-6.424,4.53c-.252.091-.5.176-.749.252-.183.061-.367.115-.558.168-9.968,2.8-19.593-5.813-18.233-16.216a89.081,89.081,0,0,1,1.879-9.495c.076.3,2.444,8.777,9.1,12.145a13.849,13.849,0,0,0,10.3.71,12.313,12.313,0,0,0,3.636-1.811C2568.943,2940.98,2578.01,2924.771,2581.791,2910.075Z" transform="translate(-2535.801 -2910.075)"/>
          </g>
        </g>
      </g>
      <g id="Grupo_290" data-name="Grupo 290" transform="translate(237.612 307.155)">
        <g id="Grupo_289" data-name="Grupo 289" transform="translate(0 0)">
          <g id="Grupo_288" data-name="Grupo 288">
            <ellipse id="Elipse_16" data-name="Elipse 16" cx="5.452" cy="2.998" rx="5.452" ry="2.998" transform="translate(0 9.896) rotate(-65.163)" fill="#fc7e81"/>
          </g>
        </g>
      </g>
      <g id="Grupo_293" data-name="Grupo 293" transform="translate(246.322 302.849)">
        <g id="Grupo_292" data-name="Grupo 292" transform="translate(0 0)">
          <g id="Grupo_291" data-name="Grupo 291">
            <ellipse id="Elipse_17" data-name="Elipse 17" cx="7.561" cy="4.158" rx="7.561" ry="4.158" transform="translate(0 13.724) rotate(-65.163)" fill="#fc7e81"/>
          </g>
        </g>
      </g>
      <g id="Grupo_296" data-name="Grupo 296" transform="translate(253.047 316.724)">
        <g id="Grupo_295" data-name="Grupo 295" transform="translate(0 0)">
          <g id="Grupo_294" data-name="Grupo 294">
            <ellipse id="Elipse_18" data-name="Elipse 18" cx="5.009" cy="2.755" rx="5.009" ry="2.755" transform="translate(0 9.092) rotate(-65.163)" fill="#fc7e81"/>
          </g>
        </g>
      </g>
      <g id="Grupo_299" data-name="Grupo 299" transform="translate(211.44 195.784)">
        <g id="Grupo_298" data-name="Grupo 298">
          <g id="Grupo_297" data-name="Grupo 297">
            <path id="Caminho_156" data-name="Caminho 156" d="M2455.963,2141.515l-2.243-1.556.141-5.959S2454.7,2136.736,2455.963,2141.515Z" transform="translate(-2453.72 -2134)" fill="#fff"/>
          </g>
        </g>
      </g>
      <g id="Grupo_302" data-name="Grupo 302" transform="translate(221.469 257.283)">
        <g id="Grupo_301" data-name="Grupo 301">
          <g id="Grupo_300" data-name="Grupo 300">
            <path id="Caminho_157" data-name="Caminho 157" d="M2526.732,2555.082c.446,3.958.715,7.924.877,11.892l.109,2.976.056,2.978c.029,1.985.038,3.97,0,5.957-.04,3.971-.213,7.944-.492,11.912a41.518,41.518,0,0,1-2.25,11.771.2.2,0,0,1-.259.118.2.2,0,0,1-.129-.166,104.382,104.382,0,0,1-.625-11.82c-.047-3.913-.213-7.828-.391-11.74l-.319-5.867-.378-5.861-.879-11.7v-.013a2.349,2.349,0,0,1,4.676-.439Z" transform="translate(-2522.049 -2552.996)" fill="#1d1d1d"/>
          </g>
        </g>
      </g>
      <g id="Grupo_305" data-name="Grupo 305" transform="translate(93.333 293.748)">
        <g id="Grupo_304" data-name="Grupo 304">
          <g id="Grupo_303" data-name="Grupo 303">
            <path id="Caminho_158" data-name="Caminho 158" d="M1678.1,2870.258q-.29.274-.583.527c-8.163,7.07-20.991,2.89-23.792-7.54a174.469,174.469,0,0,1-4.573-27.769l1.168,7.292c-7.509-48.464,20.493-43.606,26.784-37.7C1691.081,2818.2,1688.016,2860.907,1678.1,2870.258Z" transform="translate(-1649.049 -2801.434)" fill="#fff"/>
          </g>
        </g>
      </g>
      <g id="Grupo_308" data-name="Grupo 308" transform="translate(105.949 324.605)">
        <g id="Grupo_307" data-name="Grupo 307">
          <g id="Grupo_306" data-name="Grupo 306">
            <ellipse id="Elipse_19" data-name="Elipse 19" cx="8.221" cy="14.95" rx="8.221" ry="14.95" fill="#fc7e81"/>
          </g>
        </g>
      </g>
      <g id="Grupo_311" data-name="Grupo 311" transform="translate(124.232 358.168)">
        <g id="Grupo_310" data-name="Grupo 310">
          <g id="Grupo_309" data-name="Grupo 309">
            <path id="Caminho_159" data-name="Caminho 159" d="M1859.564,3242.5a22.9,22.9,0,0,0,1.26-2.169A20.041,20.041,0,0,1,1859.564,3242.5Z" transform="translate(-1859.564 -3240.332)" fill="#fff"/>
          </g>
        </g>
      </g>
      <g id="Grupo_314" data-name="Grupo 314" transform="translate(130.48 321.579)">
        <g id="Grupo_313" data-name="Grupo 313">
          <g id="Grupo_312" data-name="Grupo 312">
            <path id="Caminho_160" data-name="Caminho 160" d="M1902.134,2991.051c.13,1.276.221,2.559.283,3.85C1902.348,2993.61,1902.256,2992.327,1902.134,2991.051Z" transform="translate(-1902.134 -2991.051)" fill="#fff"/>
          </g>
        </g>
      </g>
      <g id="Grupo_317" data-name="Grupo 317" transform="translate(26.53 192.407)">
        <g id="Grupo_316" data-name="Grupo 316">
          <g id="Grupo_315" data-name="Grupo 315">
            <path id="Caminho_161" data-name="Caminho 161" d="M1244.515,2112.144c-1.508,3.077-3.112,6.1-4.738,9.088-.793,1.509-1.648,2.977-2.449,4.478l-2.49,4.447q-5,8.878-9.805,17.848a264.109,264.109,0,0,0-16.549,37.111c-4.5,12.749-7.954,25.9-9.308,39.258-.326,3.336-.531,6.68-.564,10.02a95.9,95.9,0,0,0,.449,9.98,71.564,71.564,0,0,0,4.568,19.248l-.114-.244c.321.574.754,1.272,1.171,1.9.422.644.864,1.282,1.323,1.909.909,1.26,1.884,2.479,2.9,3.658a55.628,55.628,0,0,0,6.655,6.529,44.8,44.8,0,0,0,16.2,8.654,39.071,39.071,0,0,0,9.064,1.491,45.588,45.588,0,0,0,4.614.014c.77-.035,1.537-.139,2.307-.2l1.153-.11c.384-.045.764-.124,1.147-.185a62.135,62.135,0,0,0,17.748-5.81l1.094-.54,1.1.6c.205.112.568.283.874.42.327.134.651.281.989.4a20.274,20.274,0,0,0,2.05.645,17.263,17.263,0,0,0,4.2.583,14.521,14.521,0,0,0,4.088-.484,12.615,12.615,0,0,0,1.913-.7l.927-.427c.295-.173.578-.368.87-.548a9.331,9.331,0,0,0,.859-.568l.8-.669a8.885,8.885,0,0,0,1.4-1.38,18.327,18.327,0,0,0,2.176-3.615,44.742,44.742,0,0,0,2.833-8.626,82.882,82.882,0,0,0,1.923-18.521,69.012,69.012,0,0,0-2.369-18.34,32,32,0,0,0-3.5-8.2,17.007,17.007,0,0,0-1.235-1.756c-.225-.27-.423-.575-.668-.819l-.721-.751a6.457,6.457,0,0,0-.678-.619c-.259-.174-.5-.366-.785-.529a12.1,12.1,0,0,0-1.81-.9,16.012,16.012,0,0,0-8.174-1.04,12.179,12.179,0,0,0-7.044,3.628,17.559,17.559,0,0,0-4.029,7.384,46.383,46.383,0,0,0-1.52,8.856c-.479,6.115-.237,12.357-.593,18.839v.01a.8.8,0,0,1-1.547.23,46.289,46.289,0,0,1-1.454-4.7c-.2-.795-.346-1.6-.518-2.4s-.3-1.61-.41-2.424-.214-1.63-.309-2.447c-.079-.819-.114-1.646-.153-2.471-.112-1.647-.048-3.318,0-4.983a38.644,38.644,0,0,1,1.849-10,23.525,23.525,0,0,1,.932-2.441,25,25,0,0,1,1.157-2.384c.195-.4.468-.764.7-1.147a13,13,0,0,1,.755-1.12,19.792,19.792,0,0,1,1.775-2.083,16.921,16.921,0,0,1,9.712-5,20.67,20.67,0,0,1,10.652,1.338,16.819,16.819,0,0,1,2.48,1.24c.406.235.8.535,1.2.816a10.886,10.886,0,0,1,1.1.987l.94.981c.318.325.566.692.851,1.037a21.637,21.637,0,0,1,1.524,2.167,36.577,36.577,0,0,1,4.036,9.387,73.583,73.583,0,0,1,2.555,19.623,87.509,87.509,0,0,1-2.042,19.593,49.282,49.282,0,0,1-3.161,9.577,22.85,22.85,0,0,1-2.781,4.579,13.436,13.436,0,0,1-2,1.99l-1.045.865c-.348.289-.759.506-1.137.76s-.769.494-1.165.722l-1.249.586a17.379,17.379,0,0,1-2.589.941,19.211,19.211,0,0,1-5.407.648,21.96,21.96,0,0,1-5.288-.732,24.91,24.91,0,0,1-2.526-.8c-.416-.148-.824-.329-1.235-.5-.423-.193-.788-.355-1.285-.627l2.195.061a66.823,66.823,0,0,1-19.116,6.241c-.419.066-.834.15-1.255.2l-1.269.123c-.847.073-1.691.183-2.541.222a50.394,50.394,0,0,1-5.114-.014,43.742,43.742,0,0,1-10.1-1.663,49.508,49.508,0,0,1-17.9-9.547,60.267,60.267,0,0,1-7.226-7.087c-1.1-1.276-2.156-2.594-3.146-3.965q-.749-1.024-1.448-2.091c-.477-.726-.905-1.4-1.376-2.245l-.062-.11-.053-.134a76.25,76.25,0,0,1-4.88-20.521,100.537,100.537,0,0,1-.472-10.493c.034-3.495.248-6.979.587-10.445a174.9,174.9,0,0,1,9.554-40.359c2.3-6.509,4.892-12.9,7.674-19.205,1.378-3.157,2.821-6.285,4.3-9.392s2.983-6.206,4.55-9.271q4.707-9.191,10.213-17.937c.931-1.448,1.869-2.89,2.83-4.317.99-1.409,1.953-2.834,3-4.207a82.23,82.23,0,0,1,6.616-7.984.791.791,0,0,1,1.282.894Z" transform="translate(-1193.914 -2110.991)" fill="#1d1d1d"/>
          </g>
        </g>
      </g>
      <g id="Grupo_320" data-name="Grupo 320" transform="translate(76.306 280.489)">
        <g id="Grupo_319" data-name="Grupo 319">
          <g id="Grupo_318" data-name="Grupo 318">
            <path id="Caminho_162" data-name="Caminho 162" d="M1533.3,2711.107a18.809,18.809,0,0,1,8.306,5.625,40.586,40.586,0,0,1,5.888,8.242c.413.741.753,1.519,1.13,2.281l.541,1.155.452,1.189c.3.794.609,1.587.894,2.387l.688,2.449.341,1.228c.091.413.167.829.245,1.245l.459,2.5c.248,1.672.343,3.36.487,5.04a2.345,2.345,0,0,1-4.667.467l-.022-.2-.26-2.308c-.093-.767-.122-1.545-.265-2.3l-.393-2.279-.191-1.141-.275-1.119-.544-2.244-.691-2.2-.348-1.1-.433-1.067c-.293-.71-.539-1.445-.864-2.142a42.635,42.635,0,0,0-4.675-7.986c-1.88-2.478-3.862-4.856-6-7.382l-.013-.016a.2.2,0,0,1,.21-.322Z" transform="translate(-1533.038 -2711.099)" fill="#1d1d1d"/>
          </g>
        </g>
      </g>
      <g id="Grupo_323" data-name="Grupo 323" transform="translate(241.849 360.505)" opacity="0.3">
        <g id="Grupo_322" data-name="Grupo 322">
          <g id="Grupo_321" data-name="Grupo 321">
            <path id="Caminho_163" data-name="Caminho 163" d="M2662.209,3256.257c-.443.16-.878.305-1.306.42.191-.053.374-.107.558-.168C2661.7,3256.433,2661.957,3256.348,2662.209,3256.257Z" transform="translate(-2660.903 -3256.257)" fill="#6b184e"/>
          </g>
        </g>
      </g>
      <g id="Grupo_326" data-name="Grupo 326" transform="translate(28.625 307.142)" opacity="0.35">
        <g id="Grupo_325" data-name="Grupo 325">
          <g id="Grupo_324" data-name="Grupo 324">
            <path id="Caminho_164" data-name="Caminho 164" d="M1310.4,2913.195c-.015-.542-.03-1.085-.053-1.619-.008-.2-.016-.4-.023-.6-.069-1.291-.161-2.574-.283-3.85-1,10.969-3.85,20.823-8.1,24.619a2.466,2.466,0,0,1-.229.191v.008c-4.346,3.743-9.41,3.9-13.963,2.7-7.111-1.872-12.993-7.073-12.993-7.073-.092.053-1.551,4.873-3.071,6.92-10.862,14.62-39.392,7.837-49.918-6.134a60.723,60.723,0,0,1-10.747-21.632,89.12,89.12,0,0,1-2.513-14.032c-1.016,13.421.267,26.666,5.11,38.765,0,0,22.144,40.958,67.112,18.974.091-.046.191-.084.282-.138,0,0,10.35,5.844,19.31-.825.168-.122.336-.252.5-.382s.351-.282.527-.435c.2-.176.39-.351.588-.527a12.949,12.949,0,0,0,1.849-2.238c.328-.5.641-1.024.955-1.589.1-.191.207-.382.306-.58a33.987,33.987,0,0,0,1.841-4.43,51.151,51.151,0,0,0,1.444-5.057,77.091,77.091,0,0,0,1.65-10.114q.1-1.054.183-2.131c.168-2.23.252-4.5.252-6.776Q1310.424,2914.2,1310.4,2913.195Z" transform="translate(-1208.187 -2892.693)"/>
          </g>
        </g>
      </g>
      <g id="Grupo_329" data-name="Grupo 329" transform="translate(140.592 237.225)">
        <g id="Grupo_328" data-name="Grupo 328">
          <g id="Grupo_327" data-name="Grupo 327">
            <path id="Caminho_165" data-name="Caminho 165" d="M2009.625,2446.581a84.25,84.25,0,0,1-33.187,9.966c-11.017-17.321-2.252-35.348.522-40.21,11.8,2.108,20.9,2.6,25.845,3.812C2018.789,2424.058,2019,2441.3,2009.625,2446.581Z" transform="translate(-1971.027 -2416.337)" fill="#fff"/>
          </g>
        </g>
      </g>
      <g id="Grupo_332" data-name="Grupo 332" transform="translate(262.583 288.52)">
        <g id="Grupo_331" data-name="Grupo 331">
          <g id="Grupo_330" data-name="Grupo 330">
            <path id="Caminho_166" data-name="Caminho 166" d="M2802.162,2765.816" transform="translate(-2802.162 -2765.816)" fill="none" stroke="#1d1d1d" stroke-linecap="round" stroke-miterlimit="10" stroke-width="32"/>
          </g>
        </g>
      </g>
      <g id="Grupo_335" data-name="Grupo 335" transform="translate(216.164 205.159)">
        <g id="Grupo_334" data-name="Grupo 334">
          <g id="Grupo_333" data-name="Grupo 333">
            <path id="Caminho_167" data-name="Caminho 167" d="M2485.906,2197.872" transform="translate(-2485.906 -2197.872)" fill="none" stroke="#1d1d1d" stroke-linecap="round" stroke-miterlimit="10" stroke-width="32"/>
          </g>
        </g>
      </g>
      <g id="Grupo_338" data-name="Grupo 338" transform="translate(208.617 200.794)">
        <g id="Grupo_337" data-name="Grupo 337">
          <g id="Grupo_336" data-name="Grupo 336">
            <path id="Caminho_168" data-name="Caminho 168" d="M2434.49,2168.135" transform="translate(-2434.49 -2168.135)" fill="none" stroke="#1d1d1d" stroke-linecap="round" stroke-miterlimit="10" stroke-width="32"/>
          </g>
        </g>
      </g>
      <g id="Grupo_341" data-name="Grupo 341" transform="translate(70.311 190.729)" opacity="0.35">
        <g id="Grupo_340" data-name="Grupo 340">
          <g id="Grupo_339" data-name="Grupo 339">
            <path id="Caminho_169" data-name="Caminho 169" d="M1637.867,2120.12c-26.5,11.137-56.961,11.707-64.13,11.049-8.049-.74-50.286-.892-81.537-20.173.317-.487.611-.928.875-1.315l1.438-6.852,75.108-3.27,51.536,2.566,12.171,8.448,2.243,1.556a.075.075,0,0,1,.006.035C1636.34,2114.484,1637.109,2117.15,1637.867,2120.12Z" transform="translate(-1492.2 -2099.56)"/>
          </g>
        </g>
      </g>
      <g id="Grupo_344" data-name="Grupo 344" transform="translate(34.547 15.033)">
        <g id="Grupo_343" data-name="Grupo 343">
          <g id="Grupo_342" data-name="Grupo 342">
            <path id="Caminho_170" data-name="Caminho 170" d="M1263.672,1060.989c29.8,34.2,89.687,34.236,99.435,35.129,10.2.94,67.6-.618,93.578-31.573,12.621-15.028,12.57-28.772,6.118-48.558-.276-.837-.54-1.576-.813-2.253-1.751-4.415-3.549-6.388-6.978-17.585-.737-2.4-1.379-4.967-1.965-7.636-2.941-13.21-5.537-28.3-14.986-39.057-8.872-10.1-20.9-18.8-34.69-25.216,4.215-4.794,10.083-12.922,4.771-16.073-6.536-3.878-25.981,4.351-31.912,7.016-1.036.471-1.656.764-1.732.8a3.187,3.187,0,0,0,.883-1.051c1.036-2.453,2.565-8.523-2.214-11.486-6-3.718-48.344,3.66-78.3,25.434l.034,0C1252.215,958.458,1232.736,1025.484,1263.672,1060.989Z" transform="translate(-1248.531 -902.526)" fill="#fff"/>
          </g>
        </g>
      </g>
      <g id="Grupo_347" data-name="Grupo 347" transform="translate(37.273 54.117)" opacity="0.3">
        <g id="Grupo_346" data-name="Grupo 346">
          <g id="Grupo_345" data-name="Grupo 345">
            <path id="Caminho_171" data-name="Caminho 171" d="M1304.2,1168.809s-40.49,56.739-15.224,110.258c23.926,50.679,144.038,45.094,184.366,8.869,0,0-9.75,22.8-51.344,30.139-54.771,9.663-128.973-.167-147.72-37.881s5.151-99.58,5.151-99.58Z" transform="translate(-1267.104 -1168.809)"/>
          </g>
        </g>
      </g>
      <g id="Grupo_350" data-name="Grupo 350" transform="translate(68.343 24.724)" opacity="0.35">
        <g id="Grupo_349" data-name="Grupo 349">
          <g id="Grupo_348" data-name="Grupo 348">
            <path id="Caminho_172" data-name="Caminho 172" d="M1490.306,992.733c-23.361,17.855-3.962-9.375-3.962-9.375s33.894-13.2,40.862-14.623S1514.521,974.226,1490.306,992.733Z" transform="translate(-1478.786 -968.554)"/>
          </g>
        </g>
      </g>
      <g id="Grupo_353" data-name="Grupo 353" transform="translate(68.311 90.622)">
        <g id="Grupo_352" data-name="Grupo 352">
          <g id="Grupo_351" data-name="Grupo 351">
            <path id="Caminho_173" data-name="Caminho 173" d="M1564.038,1451.008c-2.509,29.163-44.65,48.587-69.617,31.813-11.973-8.05-16.945-19.853-15.654-33.7,1.242-13.416,9.2-22.552,21.9-27.282,19.343-7.215,37.9-5.835,54.4,7.5C1562.49,1435.333,1564.838,1441.735,1564.038,1451.008Z" transform="translate(-1478.569 -1417.521)" fill="#575b5a"/>
          </g>
        </g>
      </g>
      <g id="Grupo_356" data-name="Grupo 356" transform="translate(69.48 90.112)">
        <g id="Grupo_355" data-name="Grupo 355">
          <g id="Grupo_354" data-name="Grupo 354">
            <path id="Caminho_174" data-name="Caminho 174" d="M1572,1447.533c-2.509,29.163-44.65,48.587-69.617,31.813-11.973-8.05-16.945-19.853-15.654-33.7,1.241-13.416,9.2-22.552,21.9-27.282,19.343-7.215,37.9-5.835,54.4,7.5C1570.454,1431.859,1572.8,1438.261,1572,1447.533Z" transform="translate(-1486.534 -1414.047)" fill="#575b5a"/>
          </g>
        </g>
      </g>
      <g id="Grupo_359" data-name="Grupo 359" transform="translate(185.641 90.912)">
        <g id="Grupo_358" data-name="Grupo 358">
          <g id="Grupo_357" data-name="Grupo 357">
            <path id="Caminho_175" data-name="Caminho 175" d="M2333.049,1482.615a31.309,31.309,0,0,0,12.638-10.658,98.8,98.8,0,0,0-3.331-12.642l-.005-.006c-.25-.676-.515-1.409-.793-2.206,0-.018-.015-.035-.02-.052-1.751-4.41-3.55-6.383-6.979-17.58-.736-2.4-2.24-8.924-2.831-11.594-.292-1.3-.564-2.531-.834-3.7-13.78-6.473-27.938-6.575-42.07,1.858-7.2,4.3-10.137,9.7-10.783,18.106C2276.01,1470.621,2309.279,1494.055,2333.049,1482.615Z" transform="translate(-2277.953 -1419.497)" fill="#575b5a"/>
          </g>
        </g>
      </g>
      <g id="Grupo_362" data-name="Grupo 362" transform="translate(71.996 13.483)">
        <g id="Grupo_361" data-name="Grupo 361">
          <g id="Grupo_360" data-name="Grupo 360">
            <path id="Caminho_176" data-name="Caminho 176" d="M1506.027,922.571a2.348,2.348,0,0,1-1.217-4.358c10.911-6.6,29.929-14.417,48.452-19.916,12.05-3.578,33.347-8.964,40.6-4.848,2.786,1.58,3.6,4.67,3.573,7.543,7.415-2.8,23.023-7.863,29.792-3.846a6.978,6.978,0,0,1,3.712,5.526c.5,5.966-6.914,12.449-7.762,13.168a2.349,2.349,0,0,1-3.042-3.579h0c2.674-2.278,6.341-6.638,6.123-9.2-.043-.507-.244-1.178-1.428-1.881-4.9-2.907-20.618,1.923-29.375,5.65l-4.59,1.953,1.418-4.782c.318-1.093,1.13-5.412-.74-6.472-8.594-4.873-60.6,10.359-84.307,24.7A2.335,2.335,0,0,1,1506.027,922.571Z" transform="translate(-1503.676 -891.967)" fill="#1d1d1d"/>
          </g>
        </g>
      </g>
      <g id="Grupo_365" data-name="Grupo 365" transform="translate(33.123 30.214)">
        <g id="Grupo_364" data-name="Grupo 364">
          <g id="Grupo_363" data-name="Grupo 363">
            <path id="Caminho_177" data-name="Caminho 177" d="M1360.413,1186.784c-2.573,0-4.488-.086-5.595-.188-.871-.08-2.209-.156-3.9-.252-17.171-.973-69.424-3.935-97.085-35.678-10.922-12.529-16.411-34.711-14.683-59.337a121.19,121.19,0,0,1,5.93-30.188c9.437-27.649,27.189-46.172,52.761-55.054a2.348,2.348,0,0,1,1.541,4.436c-24.136,8.384-40.91,25.924-49.856,52.134a116.38,116.38,0,0,0-5.688,28.96c-1.644,23.448,3.417,44.353,13.536,55.962,26.362,30.251,77.128,33.13,93.811,34.075,1.741.1,3.115.176,4.069.264,10.034.926,66.342-.7,91.564-30.744,5.865-6.983,8.938-13.721,9.672-21.2,0-.043.007-.085.011-.128l.01-.121c.022-.217.039-.43.054-.647.033-.417.055-.827.065-1.239l0-.1c.009-.27.019-.545.019-.82.005-.33.005-.624,0-.924l0-.2a54.2,54.2,0,0,0-.779-8.941l-.021-.14c-.621-5.134-4.051-13.829-4.085-13.914l-.078-.2c-.482-1.2-.968-2.21-1.528-3.373a87.653,87.653,0,0,1-5.46-14.252c-.8-2.6-2.386-9.546-2.879-11.773l-.212-.945c-.212-.948-.416-1.858-.618-2.732-.224-.98-.439-1.906-.656-2.8l-.176-.4.025-.222c-1.992-8.117-3.9-13.466-9.783-23.4-.709-1.2-1.466-2.381-2.253-3.516l-.106-.147c-7.475-10.767-18.513-19.3-32.805-25.371l-.444-.189a2.348,2.348,0,0,1,1.809-4.334l.479.2c15.08,6.4,26.78,15.467,34.768,26.937l.065.089c.885,1.269,1.736,2.594,2.53,3.937,6.189,10.455,8.267,16.344,10.346,24.85l.16.642,0,.014c.205.853.409,1.734.621,2.658q.3,1.317.624,2.759l.212.948c.609,2.748,2.089,9.144,2.786,11.419a82.647,82.647,0,0,0,5.2,13.593c.593,1.233,1.153,2.4,1.714,3.808l.064.165c.431,1.1,3.655,9.456,4.334,14.91a58.98,58.98,0,0,1,.842,9.57,2.917,2.917,0,0,1,.006.378c0,.313,0,.621,0,.929,0,.291-.01.618-.021.94l0,.087c-.013.477-.039.967-.077,1.456-.018.238-.036.477-.061.721,0,.042-.006.084-.01.125l-.009.108c-.823,8.485-4.241,16.049-10.754,23.8-14.182,16.9-37.193,24.84-54,28.529A174.389,174.389,0,0,1,1360.413,1186.784Z" transform="translate(-1238.833 -1005.957)" fill="#1d1d1d"/>
          </g>
        </g>
      </g>
      <g id="Grupo_368" data-name="Grupo 368" transform="translate(33.554 2.347)">
        <g id="Grupo_367" data-name="Grupo 367">
          <g id="Grupo_366" data-name="Grupo 366">
            <path id="Caminho_178" data-name="Caminho 178" d="M1300.814,857.224c-.537.321-1.1.654-1.706,1.013-4.009,2.387-9.874,4.785-15.672,9.01-.282.2-.565.415-.847.62a83.487,83.487,0,0,0-14.7,13.729,8.61,8.61,0,0,1-5.937,2.7,9.418,9.418,0,0,1-8.168-3.439,52.01,52.01,0,0,1-3.816-5.377c-6.8-10.976-10.295-25.292-6.861-37.032a35.807,35.807,0,0,1,1.373-3.871c.3-.714.62-1.412.964-2.088,5.959-11.89,17.932-18.054,31.289-16a36.373,36.373,0,0,1,4.718,1.052c13.9,4.065,23.481,17.356,24.03,31.284A9.337,9.337,0,0,1,1300.814,857.224Z" transform="translate(-1241.771 -816.098)" fill="#575b5a"/>
          </g>
        </g>
      </g>
      <g id="Grupo_371" data-name="Grupo 371" transform="translate(33.121 16.858)" opacity="0.35">
        <g id="Grupo_370" data-name="Grupo 370">
          <g id="Grupo_369" data-name="Grupo 369">
            <path id="Caminho_179" data-name="Caminho 179" d="M1280.069,952.216a83.48,83.48,0,0,0-14.7,13.729,9.682,9.682,0,0,1-5.937,2.7,39.334,39.334,0,0,1-11.984-8.816,35.075,35.075,0,0,1-6.28-10.411c-4.4-10.921-1.916-27.745,1.667-34.463a33.462,33.462,0,0,1-.875,3.971c-.4,1.623-.792,3.184-.792,3.483.017,2.2,2.188,7.244,3.334,9.315C1250.967,943.4,1259.307,947.221,1280.069,952.216Z" transform="translate(-1238.818 -914.957)"/>
          </g>
        </g>
      </g>
      <g id="Grupo_374" data-name="Grupo 374" transform="translate(43.195 3.163)" opacity="0.3">
        <g id="Grupo_373" data-name="Grupo 373">
          <g id="Grupo_372" data-name="Grupo 372">
            <path id="Caminho_180" data-name="Caminho 180" d="M1307.45,830.334c13.384-4.495,19.894-3.268,31.15.619,11.279,3.894,19.247,15.188,20.527,17.968.376-.588-.846-6.467-2.505-9.488-6.7-12.217-21.206-19.843-35.458-17.285a37.013,37.013,0,0,0-4.69,1.161Z" transform="translate(-1307.45 -821.655)" fill="#fff"/>
          </g>
        </g>
      </g>
      <g id="Grupo_377" data-name="Grupo 377" transform="translate(31.226)">
        <g id="Grupo_376" data-name="Grupo 376">
          <g id="Grupo_375" data-name="Grupo 375">
            <path id="Caminho_181" data-name="Caminho 181" d="M1290.863,839.286c-.205-.813-.3-1.626-.442-2.3l-.51-2.106c-.191-.72-.324-1.434-.465-2.145-.187-.705-.326-1.413-.484-2.116a49.531,49.531,0,0,0-2.8-8.178A30.786,30.786,0,0,0,1274.79,809.6a30.089,30.089,0,0,0-7.85-3.531,35.533,35.533,0,0,0-8.578-1.265,30.206,30.206,0,0,0-8.469,1.266,26.01,26.01,0,0,0-7.578,3.87c-.554.448-1.157.836-1.677,1.326l-1.559,1.469c-.5.51-.944,1.076-1.421,1.609a14.533,14.533,0,0,0-1.3,1.709,32.942,32.942,0,0,0-2.26,3.677l-.893,1.98c-.141.334-.316.652-.43,1l-.352,1.033c-.22.691-.506,1.37-.676,2.069l-.515,2.1-.342,2.144c-.114.715-.131,1.448-.2,2.171a42.2,42.2,0,0,0,.408,8.785,53.16,53.16,0,0,0,5.753,16.809c.686,1.324,1.48,2.585,2.274,3.841.424.61.86,1.211,1.305,1.8l1.42,1.705.348.43.236.269.588.559c.443.378.952.777,1.5,1.173,1.087.8,2.254,1.679,3.444,2.738l.106.095a.866.866,0,0,1,.071,1.222.875.875,0,0,1-.352.239,6.847,6.847,0,0,1-2.755.327,9.454,9.454,0,0,1-2.6-.561,10.16,10.16,0,0,1-2.453-1.3l-.592-.452c-.192-.171-.38-.353-.567-.531-.18-.2-.379-.41-.537-.6l-.362-.494c-.478-.663-.951-1.33-1.4-2.006q-.649-1.035-1.329-2.044c-.859-1.375-1.728-2.746-2.473-4.184a57.819,57.819,0,0,1-6.262-18.324,46.915,46.915,0,0,1-.453-9.811c.079-.823.105-1.649.233-2.47l.395-2.461.6-2.434c.2-.81.514-1.574.768-2.362l.4-1.173c.131-.392.327-.762.489-1.144.342-.757.674-1.518,1.028-2.269a37.632,37.632,0,0,1,2.615-4.264,18.2,18.2,0,0,1,1.524-1.993c.556-.627,1.081-1.284,1.668-1.883l1.835-1.729c.615-.573,1.319-1.043,1.976-1.567a30.713,30.713,0,0,1,8.955-4.57,34.875,34.875,0,0,1,9.908-1.483,40.182,40.182,0,0,1,9.827,1.441,34.8,34.8,0,0,1,9.1,4.09,35.532,35.532,0,0,1,7.573,6.444,42.958,42.958,0,0,1,5.614,8.188,29.146,29.146,0,0,1,3.25,9.405c.088.832.2,1.659.256,2.488.023.835-.014,1.673-.071,2.5a10.976,10.976,0,0,1-.151,1.236,10.387,10.387,0,0,1-.3,1.317,9.874,9.874,0,0,1-1.071,2.316.847.847,0,0,1-1.543-.234Z" transform="translate(-1225.91 -800.105)" fill="#1d1d1d"/>
          </g>
        </g>
      </g>
      <g id="Grupo_380" data-name="Grupo 380" transform="translate(47.993 20.843)">
        <g id="Grupo_379" data-name="Grupo 379">
          <g id="Grupo_378" data-name="Grupo 378">
            <path id="Caminho_182" data-name="Caminho 182" d="M1379.89,965.8c.958-.352.846-1.932.691-2.976-1.411-9.54-6.417-17.228-15.215-19.8-10.966-3.21-21.068,2.273-24.278,13.238-2.553,8.72.224,19.223,6.224,25.663a14.7,14.7,0,0,0,2.25,2,3.463,3.463,0,0,0,4.44-.382C1357.983,979.582,1368.385,970.027,1379.89,965.8Z" transform="translate(-1340.14 -942.11)" fill="#f8a794"/>
          </g>
        </g>
      </g>
      <g id="Grupo_383" data-name="Grupo 383" transform="translate(47.992 20.844)">
        <g id="Grupo_382" data-name="Grupo 382">
          <g id="Grupo_381" data-name="Grupo 381">
            <path id="Caminho_183" data-name="Caminho 183" d="M1379.886,965.8c-9.382,3.446-18.03,10.439-23.062,15.047-1.139,1.039-2.09,1.961-2.824,2.689a3.466,3.466,0,0,1-4.444.382,14.774,14.774,0,0,1-2.249-2c-6-6.441-8.777-16.944-6.223-25.662,3.212-10.967,13.31-16.451,24.277-13.239a19.309,19.309,0,0,1,9.676,6.388,27.232,27.232,0,0,1,5.542,13.415C1380.731,963.873,1380.843,965.452,1379.886,965.8Z" transform="translate(-1340.135 -942.114)" fill="#fc7e81"/>
          </g>
        </g>
      </g>
      <g id="Grupo_386" data-name="Grupo 386" transform="translate(62.665 31.097)">
        <g id="Grupo_385" data-name="Grupo 385">
          <g id="Grupo_384" data-name="Grupo 384">
            <path id="Caminho_184" data-name="Caminho 184" d="M1465.184,1025.411c-9.382,3.446-18.03,10.439-23.062,15.047a27.293,27.293,0,0,1-1.068-17.325,21.753,21.753,0,0,1,2.512-5.6c5.985-9.392,20.608-6.264,22.287,4.746l.023.156C1466.03,1023.479,1466.141,1025.058,1465.184,1025.411Z" transform="translate(-1440.107 -1011.974)" fill="#e25963"/>
          </g>
        </g>
      </g>
      <g id="Grupo_389" data-name="Grupo 389" transform="translate(45.658 18.502)">
        <g id="Grupo_388" data-name="Grupo 388">
          <g id="Grupo_387" data-name="Grupo 387">
            <path id="Caminho_185" data-name="Caminho 185" d="M1337.981,973.294a5.776,5.776,0,0,1-3.345-1.066,17.266,17.266,0,0,1-2.612-2.314c-6.691-7.183-9.47-18.666-6.76-27.926a21.147,21.147,0,0,1,27.192-14.832c9.077,2.658,15.23,10.572,16.878,21.713.547,3.7-.9,5.044-2.205,5.525h0c-11.076,4.068-21.2,13.383-25.042,17.2A5.819,5.819,0,0,1,1337.981,973.294Zm7.673-42.437a16.2,16.2,0,0,0-7.782,1.919,17.244,17.244,0,0,0-8.1,10.533c-2.269,7.749.07,17.372,5.688,23.4a12.52,12.52,0,0,0,1.888,1.684,1.112,1.112,0,0,0,1.428-.132c3.973-3.949,14.342-13.479,25.985-17.995-.008-.173-.029-.4-.074-.71-.805-5.437-3.634-14.991-13.552-17.893A19.513,19.513,0,0,0,1345.654,930.857Z" transform="translate(-1324.236 -926.159)" fill="#1d1d1d"/>
          </g>
        </g>
      </g>
      <g id="Grupo_392" data-name="Grupo 392" transform="translate(147.492 50.476)" opacity="0.3">
        <g id="Grupo_391" data-name="Grupo 391">
          <g id="Grupo_390" data-name="Grupo 390">
            <path id="Caminho_186" data-name="Caminho 186" d="M2079.419,1153.961a2.913,2.913,0,0,1-.531-.049c-36.13-6.6-57.2-3.082-57.408-3.046a2.935,2.935,0,0,1-1.008-5.784c.9-.156,22.319-3.734,59.471,3.055a2.936,2.936,0,0,1-.524,5.824Z" transform="translate(-2018.04 -1144.002)" fill="#fff"/>
          </g>
        </g>
      </g>
      <g id="Grupo_395" data-name="Grupo 395" transform="translate(118.285 52.036)" opacity="0.3">
        <g id="Grupo_394" data-name="Grupo 394">
          <g id="Grupo_393" data-name="Grupo 393">
            <path id="Caminho_187" data-name="Caminho 187" d="M1821.982,1162.311a2.936,2.936,0,0,1-.67-5.794c5.786-1.362,16.282-1.861,16.727-1.882a2.936,2.936,0,0,1,.271,5.865c-.1,0-10.4.494-15.652,1.732A2.965,2.965,0,0,1,1821.982,1162.311Z" transform="translate(-1819.049 -1154.632)" fill="#fff"/>
          </g>
        </g>
      </g>
      <g id="Grupo_398" data-name="Grupo 398" transform="translate(124.953 197.073)" opacity="0.35">
        <g id="Grupo_397" data-name="Grupo 397">
          <g id="Grupo_396" data-name="Grupo 396">
            <path id="Caminho_188" data-name="Caminho 188" d="M1955.5,2142.783l-.417,4.879-2.125,24.717c-2.883-3.135-21.024-5.548-42.97-5.548s-40.105,2.419-42.97,5.554l-2.125-24.723v-.006l-.417-4.873Z" transform="translate(-1864.478 -2142.783)" fill="#fff"/>
          </g>
        </g>
      </g>
      <g id="Grupo_401" data-name="Grupo 401" transform="translate(127.66 235.417)" opacity="0.35">
        <g id="Grupo_400" data-name="Grupo 400">
          <g id="Grupo_399" data-name="Grupo 399">
            <path id="Caminho_189" data-name="Caminho 189" d="M1970.127,2404.026l-6.076,70.709c0,3.068-16.8,5.55-37.528,5.55S1889,2477.8,1889,2474.735l-6.082-70.715c3.391,3.11,21.626,5.484,43.6,5.484S1966.718,2407.13,1970.127,2404.026Z" transform="translate(-1882.918 -2404.02)"/>
          </g>
        </g>
      </g>
      <g id="Grupo_404" data-name="Grupo 404" transform="translate(127.66 228.577)">
        <g id="Grupo_403" data-name="Grupo 403">
          <g id="Grupo_402" data-name="Grupo 402">
            <path id="Caminho_190" data-name="Caminho 190" d="M1968.53,2357.429l-5.965,69.414c0,3.012-16.492,5.448-36.841,5.448s-36.835-2.436-36.835-5.448l-5.971-69.419c3.329,3.053,21.23,5.384,42.806,5.384S1965.183,2360.476,1968.53,2357.429Z" transform="translate(-1882.918 -2357.423)" fill="#eaa549"/>
          </g>
        </g>
      </g>
      <g id="Grupo_416" data-name="Grupo 416" transform="translate(184.483 248.47)">
        <g id="Grupo_409" data-name="Grupo 409" transform="translate(0 0)">
          <g id="Grupo_406" data-name="Grupo 406">
            <g id="Grupo_405" data-name="Grupo 405">
              <circle id="Elipse_20" data-name="Elipse 20" cx="6.04" cy="6.04" r="6.04" transform="translate(0 8.543) rotate(-45)" fill="#964557"/>
            </g>
          </g>
          <g id="Grupo_408" data-name="Grupo 408" transform="translate(2.135 2.135)">
            <g id="Grupo_407" data-name="Grupo 407">
              <path id="Caminho_191" data-name="Caminho 191" d="M2291.016,2520.315a6.407,6.407,0,1,1,6.407-6.408A6.415,6.415,0,0,1,2291.016,2520.315Zm0-12.081a5.674,5.674,0,1,0,5.673,5.674A5.68,5.68,0,0,0,2291.016,2508.234Z" transform="translate(-2284.609 -2507.5)" fill="#1d1d1d"/>
            </g>
          </g>
        </g>
        <g id="Grupo_412" data-name="Grupo 412" transform="translate(2.983 2.858)" opacity="0.55">
          <g id="Grupo_411" data-name="Grupo 411">
            <g id="Grupo_410" data-name="Grupo 410">
              <path id="Caminho_192" data-name="Caminho 192" d="M2297.937,2513.568a6.011,6.011,0,0,0-2.85.714,1.3,1.3,0,0,1,.785.415,2.243,2.243,0,0,1-3.212,2.858,1.219,1.219,0,0,1-.239-.406,6.04,6.04,0,0,0,1.158,6.645,6.041,6.041,0,1,1,7.2-9.511A6,6,0,0,0,2297.937,2513.568Z" transform="translate(-2290.386 -2512.423)" fill="#fff"/>
            </g>
          </g>
        </g>
        <g id="Grupo_415" data-name="Grupo 415" transform="translate(1.375 1.375)">
          <g id="Grupo_414" data-name="Grupo 414">
            <g id="Grupo_413" data-name="Grupo 413">
              <path id="Caminho_193" data-name="Caminho 193" d="M2286.6,2516.655a7.168,7.168,0,1,1,7.167-7.168A7.176,7.176,0,0,1,2286.6,2516.655Zm0-12.081a4.913,4.913,0,1,0,4.913,4.913A4.918,4.918,0,0,0,2286.6,2504.574Z" transform="translate(-2279.429 -2502.319)" fill="#1d1d1d"/>
            </g>
          </g>
        </g>
      </g>
      <g id="Grupo_428" data-name="Grupo 428" transform="translate(190.354 265.349)">
        <g id="Grupo_421" data-name="Grupo 421" transform="translate(0 0)">
          <g id="Grupo_418" data-name="Grupo 418">
            <g id="Grupo_417" data-name="Grupo 417">
              <circle id="Elipse_21" data-name="Elipse 21" cx="6.04" cy="6.04" r="6.04" transform="translate(0 8.543) rotate(-45)" fill="#964557"/>
            </g>
          </g>
          <g id="Grupo_420" data-name="Grupo 420" transform="translate(2.135 2.135)">
            <g id="Grupo_419" data-name="Grupo 419">
              <path id="Caminho_194" data-name="Caminho 194" d="M2331.016,2635.315a6.408,6.408,0,1,1,6.407-6.408A6.415,6.415,0,0,1,2331.016,2635.315Zm0-12.081a5.674,5.674,0,1,0,5.673,5.673A5.68,5.68,0,0,0,2331.016,2623.234Z" transform="translate(-2324.609 -2622.5)" fill="#1d1d1d"/>
            </g>
          </g>
        </g>
        <g id="Grupo_424" data-name="Grupo 424" transform="translate(2.983 2.858)" opacity="0.55">
          <g id="Grupo_423" data-name="Grupo 423">
            <g id="Grupo_422" data-name="Grupo 422">
              <path id="Caminho_195" data-name="Caminho 195" d="M2337.937,2628.568a6.008,6.008,0,0,0-2.85.714,1.3,1.3,0,0,1,.785.415,2.243,2.243,0,0,1-3.212,2.858,1.216,1.216,0,0,1-.239-.406,6.04,6.04,0,0,0,1.159,6.645,6.041,6.041,0,1,1,7.2-9.511A6,6,0,0,0,2337.937,2628.568Z" transform="translate(-2330.386 -2627.423)" fill="#fff"/>
            </g>
          </g>
        </g>
        <g id="Grupo_427" data-name="Grupo 427" transform="translate(1.375 1.375)">
          <g id="Grupo_426" data-name="Grupo 426">
            <g id="Grupo_425" data-name="Grupo 425">
              <path id="Caminho_196" data-name="Caminho 196" d="M2326.6,2631.655a7.168,7.168,0,1,1,7.167-7.168A7.176,7.176,0,0,1,2326.6,2631.655Zm0-12.081a4.913,4.913,0,1,0,4.913,4.913A4.918,4.918,0,0,0,2326.6,2619.573Z" transform="translate(-2319.429 -2617.319)" fill="#1d1d1d"/>
            </g>
          </g>
        </g>
      </g>
      <g id="Grupo_440" data-name="Grupo 440" transform="translate(172.007 278.559)">
        <g id="Grupo_433" data-name="Grupo 433" transform="translate(0 0)">
          <g id="Grupo_430" data-name="Grupo 430">
            <g id="Grupo_429" data-name="Grupo 429">
              <circle id="Elipse_22" data-name="Elipse 22" cx="6.04" cy="6.04" r="6.04" transform="translate(0 8.543) rotate(-45)" fill="#964557"/>
            </g>
          </g>
          <g id="Grupo_432" data-name="Grupo 432" transform="translate(2.135 2.135)">
            <g id="Grupo_431" data-name="Grupo 431">
              <path id="Caminho_197" data-name="Caminho 197" d="M2206.016,2725.315a6.408,6.408,0,1,1,6.407-6.408A6.415,6.415,0,0,1,2206.016,2725.315Zm0-12.081a5.674,5.674,0,1,0,5.673,5.673A5.679,5.679,0,0,0,2206.016,2713.234Z" transform="translate(-2199.609 -2712.5)" fill="#1d1d1d"/>
            </g>
          </g>
        </g>
        <g id="Grupo_436" data-name="Grupo 436" transform="translate(2.983 2.858)" opacity="0.55">
          <g id="Grupo_435" data-name="Grupo 435">
            <g id="Grupo_434" data-name="Grupo 434">
              <path id="Caminho_198" data-name="Caminho 198" d="M2212.937,2718.568a6.009,6.009,0,0,0-2.85.714,1.3,1.3,0,0,1,.786.415,2.243,2.243,0,0,1-3.213,2.858,1.22,1.22,0,0,1-.239-.406,6.039,6.039,0,0,0,1.159,6.645,6.041,6.041,0,1,1,7.2-9.511A6,6,0,0,0,2212.937,2718.568Z" transform="translate(-2205.386 -2717.423)" fill="#fff"/>
            </g>
          </g>
        </g>
        <g id="Grupo_439" data-name="Grupo 439" transform="translate(1.375 1.375)">
          <g id="Grupo_438" data-name="Grupo 438">
            <g id="Grupo_437" data-name="Grupo 437">
              <path id="Caminho_199" data-name="Caminho 199" d="M2201.6,2721.655a7.168,7.168,0,1,1,7.167-7.168A7.176,7.176,0,0,1,2201.6,2721.655Zm0-12.081a4.913,4.913,0,1,0,4.913,4.913A4.918,4.918,0,0,0,2201.6,2709.574Z" transform="translate(-2194.429 -2707.319)" fill="#1d1d1d"/>
            </g>
          </g>
        </g>
      </g>
      <g id="Grupo_452" data-name="Grupo 452" transform="translate(188.886 282.229)">
        <g id="Grupo_445" data-name="Grupo 445" transform="translate(0 0)">
          <g id="Grupo_442" data-name="Grupo 442">
            <g id="Grupo_441" data-name="Grupo 441">
              <circle id="Elipse_23" data-name="Elipse 23" cx="6.04" cy="6.04" r="6.04" transform="translate(0 8.543) rotate(-45)" fill="#964557"/>
            </g>
          </g>
          <g id="Grupo_444" data-name="Grupo 444" transform="translate(2.135 2.135)">
            <g id="Grupo_443" data-name="Grupo 443">
              <path id="Caminho_200" data-name="Caminho 200" d="M2321.016,2750.315a6.408,6.408,0,1,1,6.407-6.408A6.415,6.415,0,0,1,2321.016,2750.315Zm0-12.081a5.674,5.674,0,1,0,5.673,5.673A5.68,5.68,0,0,0,2321.016,2738.234Z" transform="translate(-2314.609 -2737.5)" fill="#1d1d1d"/>
            </g>
          </g>
        </g>
        <g id="Grupo_448" data-name="Grupo 448" transform="translate(2.983 2.858)" opacity="0.55">
          <g id="Grupo_447" data-name="Grupo 447">
            <g id="Grupo_446" data-name="Grupo 446">
              <path id="Caminho_201" data-name="Caminho 201" d="M2327.937,2743.568a6.009,6.009,0,0,0-2.85.714,1.3,1.3,0,0,1,.785.415,2.243,2.243,0,0,1-3.212,2.858,1.227,1.227,0,0,1-.239-.406,6.04,6.04,0,0,0,1.159,6.644,6.041,6.041,0,1,1,7.2-9.511A6,6,0,0,0,2327.937,2743.568Z" transform="translate(-2320.386 -2742.423)" fill="#fff"/>
            </g>
          </g>
        </g>
        <g id="Grupo_451" data-name="Grupo 451" transform="translate(1.375 1.375)">
          <g id="Grupo_450" data-name="Grupo 450">
            <g id="Grupo_449" data-name="Grupo 449">
              <path id="Caminho_202" data-name="Caminho 202" d="M2316.6,2746.655a7.168,7.168,0,1,1,7.167-7.168A7.176,7.176,0,0,1,2316.6,2746.655Zm0-12.081a4.913,4.913,0,1,0,4.913,4.913A4.918,4.918,0,0,0,2316.6,2734.574Z" transform="translate(-2309.429 -2732.319)" fill="#1d1d1d"/>
            </g>
          </g>
        </g>
      </g>
      <g id="Grupo_464" data-name="Grupo 464" transform="translate(154.394 267.551)">
        <g id="Grupo_457" data-name="Grupo 457" transform="translate(0 0)">
          <g id="Grupo_454" data-name="Grupo 454">
            <g id="Grupo_453" data-name="Grupo 453">
              <circle id="Elipse_24" data-name="Elipse 24" cx="6.04" cy="6.04" r="6.04" transform="translate(0 8.543) rotate(-45)" fill="#964557"/>
            </g>
          </g>
          <g id="Grupo_456" data-name="Grupo 456" transform="translate(2.135 2.135)">
            <g id="Grupo_455" data-name="Grupo 455">
              <path id="Caminho_203" data-name="Caminho 203" d="M2086.016,2650.315a6.407,6.407,0,1,1,6.407-6.408A6.415,6.415,0,0,1,2086.016,2650.315Zm0-12.081a5.674,5.674,0,1,0,5.673,5.673A5.68,5.68,0,0,0,2086.016,2638.234Z" transform="translate(-2079.609 -2637.5)" fill="#1d1d1d"/>
            </g>
          </g>
        </g>
        <g id="Grupo_460" data-name="Grupo 460" transform="translate(2.983 2.858)" opacity="0.55">
          <g id="Grupo_459" data-name="Grupo 459">
            <g id="Grupo_458" data-name="Grupo 458">
              <path id="Caminho_204" data-name="Caminho 204" d="M2092.937,2643.568a6.009,6.009,0,0,0-2.85.714,1.3,1.3,0,0,1,.785.415,2.243,2.243,0,0,1-3.212,2.858,1.22,1.22,0,0,1-.239-.406,6.039,6.039,0,0,0,1.159,6.645,6.041,6.041,0,1,1,7.2-9.511A6,6,0,0,0,2092.937,2643.568Z" transform="translate(-2085.386 -2642.423)" fill="#fff"/>
            </g>
          </g>
        </g>
        <g id="Grupo_463" data-name="Grupo 463" transform="translate(1.375 1.375)">
          <g id="Grupo_462" data-name="Grupo 462">
            <g id="Grupo_461" data-name="Grupo 461">
              <path id="Caminho_205" data-name="Caminho 205" d="M2081.6,2646.655a7.168,7.168,0,1,1,7.167-7.168A7.176,7.176,0,0,1,2081.6,2646.655Zm0-12.081a4.913,4.913,0,1,0,4.913,4.913A4.918,4.918,0,0,0,2081.6,2634.574Z" transform="translate(-2074.429 -2632.319)" fill="#1d1d1d"/>
            </g>
          </g>
        </g>
      </g>
      <g id="Grupo_476" data-name="Grupo 476" transform="translate(156.596 282.963)">
        <g id="Grupo_469" data-name="Grupo 469" transform="translate(0 0)">
          <g id="Grupo_466" data-name="Grupo 466">
            <g id="Grupo_465" data-name="Grupo 465">
              <circle id="Elipse_25" data-name="Elipse 25" cx="6.04" cy="6.04" r="6.04" transform="translate(0 8.543) rotate(-45)" fill="#964557"/>
            </g>
          </g>
          <g id="Grupo_468" data-name="Grupo 468" transform="translate(2.135 2.135)">
            <g id="Grupo_467" data-name="Grupo 467">
              <path id="Caminho_206" data-name="Caminho 206" d="M2101.016,2755.315a6.407,6.407,0,1,1,6.407-6.408A6.415,6.415,0,0,1,2101.016,2755.315Zm0-12.081a5.674,5.674,0,1,0,5.673,5.673A5.68,5.68,0,0,0,2101.016,2743.234Z" transform="translate(-2094.609 -2742.5)" fill="#1d1d1d"/>
            </g>
          </g>
        </g>
        <g id="Grupo_472" data-name="Grupo 472" transform="translate(2.983 2.858)" opacity="0.55">
          <g id="Grupo_471" data-name="Grupo 471">
            <g id="Grupo_470" data-name="Grupo 470">
              <path id="Caminho_207" data-name="Caminho 207" d="M2107.937,2748.568a6.008,6.008,0,0,0-2.85.714,1.3,1.3,0,0,1,.785.415,2.243,2.243,0,0,1-3.212,2.858,1.22,1.22,0,0,1-.239-.406,6.039,6.039,0,0,0,1.159,6.645,6.041,6.041,0,1,1,7.2-9.511A6,6,0,0,0,2107.937,2748.568Z" transform="translate(-2100.386 -2747.423)" fill="#fff"/>
            </g>
          </g>
        </g>
        <g id="Grupo_475" data-name="Grupo 475" transform="translate(1.375 1.375)">
          <g id="Grupo_474" data-name="Grupo 474">
            <g id="Grupo_473" data-name="Grupo 473">
              <path id="Caminho_208" data-name="Caminho 208" d="M2096.6,2751.655a7.168,7.168,0,1,1,7.167-7.168A7.176,7.176,0,0,1,2096.6,2751.655Zm0-12.081a4.913,4.913,0,1,0,4.913,4.913A4.918,4.918,0,0,0,2096.6,2739.574Z" transform="translate(-2089.429 -2737.319)" fill="#1d1d1d"/>
            </g>
          </g>
        </g>
      </g>
      <g id="Grupo_488" data-name="Grupo 488" transform="translate(136.781 279.293)">
        <g id="Grupo_481" data-name="Grupo 481" transform="translate(0 0)">
          <g id="Grupo_478" data-name="Grupo 478">
            <g id="Grupo_477" data-name="Grupo 477">
              <circle id="Elipse_26" data-name="Elipse 26" cx="6.04" cy="6.04" r="6.04" transform="translate(0 8.543) rotate(-45)" fill="#964557"/>
            </g>
          </g>
          <g id="Grupo_480" data-name="Grupo 480" transform="translate(2.135 2.135)">
            <g id="Grupo_479" data-name="Grupo 479">
              <path id="Caminho_209" data-name="Caminho 209" d="M1966.016,2730.315a6.407,6.407,0,1,1,6.407-6.408A6.414,6.414,0,0,1,1966.016,2730.315Zm0-12.081a5.674,5.674,0,1,0,5.673,5.673A5.68,5.68,0,0,0,1966.016,2718.234Z" transform="translate(-1959.609 -2717.5)" fill="#1d1d1d"/>
            </g>
          </g>
        </g>
        <g id="Grupo_484" data-name="Grupo 484" transform="translate(2.983 2.858)" opacity="0.55">
          <g id="Grupo_483" data-name="Grupo 483">
            <g id="Grupo_482" data-name="Grupo 482">
              <path id="Caminho_210" data-name="Caminho 210" d="M1972.937,2723.568a6.009,6.009,0,0,0-2.85.714,1.3,1.3,0,0,1,.786.415,2.243,2.243,0,0,1-3.213,2.858,1.22,1.22,0,0,1-.239-.406,6.039,6.039,0,0,0,1.159,6.645,6.041,6.041,0,1,1,7.2-9.511A6,6,0,0,0,1972.937,2723.568Z" transform="translate(-1965.386 -2722.423)" fill="#fff"/>
            </g>
          </g>
        </g>
        <g id="Grupo_487" data-name="Grupo 487" transform="translate(1.375 1.375)">
          <g id="Grupo_486" data-name="Grupo 486">
            <g id="Grupo_485" data-name="Grupo 485">
              <path id="Caminho_211" data-name="Caminho 211" d="M1961.6,2726.655a7.168,7.168,0,1,1,7.167-7.168A7.176,7.176,0,0,1,1961.6,2726.655Zm0-12.081a4.913,4.913,0,1,0,4.913,4.913A4.918,4.918,0,0,0,1961.6,2714.574Z" transform="translate(-1954.429 -2712.319)" fill="#1d1d1d"/>
            </g>
          </g>
        </g>
      </g>
      <g id="Grupo_500" data-name="Grupo 500" transform="translate(172.007 262.414)">
        <g id="Grupo_493" data-name="Grupo 493" transform="translate(0 0)">
          <g id="Grupo_490" data-name="Grupo 490">
            <g id="Grupo_489" data-name="Grupo 489">
              <circle id="Elipse_27" data-name="Elipse 27" cx="6.04" cy="6.04" r="6.04" transform="translate(0 8.543) rotate(-45)" fill="#964557"/>
            </g>
          </g>
          <g id="Grupo_492" data-name="Grupo 492" transform="translate(2.135 2.135)">
            <g id="Grupo_491" data-name="Grupo 491">
              <path id="Caminho_212" data-name="Caminho 212" d="M2206.016,2615.315a6.408,6.408,0,1,1,6.407-6.408A6.415,6.415,0,0,1,2206.016,2615.315Zm0-12.081a5.674,5.674,0,1,0,5.673,5.673A5.679,5.679,0,0,0,2206.016,2603.234Z" transform="translate(-2199.609 -2602.5)" fill="#1d1d1d"/>
            </g>
          </g>
        </g>
        <g id="Grupo_496" data-name="Grupo 496" transform="translate(2.983 2.858)" opacity="0.55">
          <g id="Grupo_495" data-name="Grupo 495">
            <g id="Grupo_494" data-name="Grupo 494">
              <path id="Caminho_213" data-name="Caminho 213" d="M2212.937,2608.568a6.012,6.012,0,0,0-2.85.714,1.3,1.3,0,0,1,.786.415,2.243,2.243,0,0,1-3.213,2.858,1.223,1.223,0,0,1-.239-.407,6.039,6.039,0,0,0,1.159,6.645,6.041,6.041,0,1,1,7.2-9.511A6,6,0,0,0,2212.937,2608.568Z" transform="translate(-2205.386 -2607.423)" fill="#fff"/>
            </g>
          </g>
        </g>
        <g id="Grupo_499" data-name="Grupo 499" transform="translate(1.375 1.375)">
          <g id="Grupo_498" data-name="Grupo 498">
            <g id="Grupo_497" data-name="Grupo 497">
              <path id="Caminho_214" data-name="Caminho 214" d="M2201.6,2611.655a7.168,7.168,0,1,1,7.167-7.168A7.176,7.176,0,0,1,2201.6,2611.655Zm0-12.081a4.913,4.913,0,1,0,4.913,4.913A4.918,4.918,0,0,0,2201.6,2599.574Z" transform="translate(-2194.429 -2597.319)" fill="#1d1d1d"/>
            </g>
          </g>
        </g>
      </g>
      <g id="Grupo_503" data-name="Grupo 503" transform="translate(124.803 222.77)">
        <g id="Grupo_502" data-name="Grupo 502">
          <g id="Grupo_501" data-name="Grupo 501">
            <path id="Caminho_215" data-name="Caminho 215" d="M1909.119,2400.88a190.016,190.016,0,0,1-26.39-1.62c-8.961-1.325-12.69-3.084-12.792-6.052l-6.481-75.352,4.444,4.077c2.1,1.922,16.644,4.766,41.218,4.766,24.553,0,39.114-2.844,41.225-4.766l4.434-4.039-6.472,75.314c-.1,2.968-3.83,4.726-12.792,6.052A190.1,190.1,0,0,1,1909.119,2400.88Zm-34.535-8.47c2.216,1.412,13.8,3.773,34.535,3.773s32.325-2.361,34.542-3.773l5.576-64.883c-8.215,2.655-24.889,3.869-40.118,3.869s-31.9-1.214-40.116-3.871Z" transform="translate(-1863.457 -2317.856)" fill="#1d1d1d"/>
          </g>
        </g>
      </g>
      <g id="Grupo_506" data-name="Grupo 506" transform="translate(127.495 221.121)">
        <g id="Grupo_505" data-name="Grupo 505">
          <g id="Grupo_504" data-name="Grupo 504">
            <path id="Caminho_216" data-name="Caminho 216" d="M1967.738,2312.171l-.164,1.914c-3.347,3.047-21.235,5.378-42.806,5.378s-39.477-2.331-42.806-5.384l-.164-1.9c2.865-3.135,21.013-5.554,42.97-5.554S1964.856,2309.036,1967.738,2312.171Z" transform="translate(-1881.798 -2306.623)" fill="#eaa549"/>
          </g>
        </g>
      </g>
      <g id="Grupo_509" data-name="Grupo 509" transform="translate(127.496 220.39)" opacity="0.5">
        <g id="Grupo_508" data-name="Grupo 508">
          <g id="Grupo_507" data-name="Grupo 507">
            <path id="Caminho_217" data-name="Caminho 217" d="M1967.74,2307.188l-.164,1.914a7.656,7.656,0,0,1-2.343,1.274c-6.276-2.4-22.028-4.1-40.463-4.1s-34.176,1.7-40.452,4.11a7.592,7.592,0,0,1-2.354-1.286l-.164-1.9c2.865-3.135,21.012-5.554,42.97-5.554S1964.858,2304.053,1967.74,2307.188Z" transform="translate(-1881.8 -2301.64)" fill="#fff"/>
          </g>
        </g>
      </g>
      <g id="Grupo_512" data-name="Grupo 512" transform="translate(169.472 201.791)">
        <g id="Grupo_511" data-name="Grupo 511">
          <g id="Grupo_510" data-name="Grupo 510">
            <path id="Caminho_218" data-name="Caminho 218" d="M2181.635,2174.927v25.921c-.54.487-3.429.863-6.91.863s-6.353-.376-6.9-.863l-.006-.006-.029-.305v-25.61Z" transform="translate(-2167.791 -2174.927)" fill="#1d1d1d"/>
          </g>
        </g>
      </g>
      <g id="Grupo_515" data-name="Grupo 515" transform="translate(179.098 227.377)">
        <g id="Grupo_514" data-name="Grupo 514">
          <g id="Grupo_513" data-name="Grupo 513">
            <path id="Caminho_219" data-name="Caminho 219" d="M2233.4,2349.271l-.029.311v-.334A.133.133,0,0,1,2233.4,2349.271Z" transform="translate(-2233.372 -2349.247)" fill="#1d1d1d"/>
          </g>
        </g>
      </g>
      <g id="Grupo_518" data-name="Grupo 518" transform="translate(165.254 227.401)">
        <g id="Grupo_517" data-name="Grupo 517">
          <g id="Grupo_516" data-name="Grupo 516">
            <path id="Caminho_220" data-name="Caminho 220" d="M2139.087,2349.718h-.035v-.311l.029.305Z" transform="translate(-2139.052 -2349.407)" fill="#1d1d1d"/>
          </g>
        </g>
      </g>
      <g id="Grupo_521" data-name="Grupo 521" transform="translate(125.066 218.772)">
        <g id="Grupo_520" data-name="Grupo 520">
          <g id="Grupo_519" data-name="Grupo 519">
            <path id="Caminho_221" data-name="Caminho 221" d="M1910.648,2308.157c-18.84,0-39.873-1.856-44.393-6l-.673-.618-.333-3.839.7-.76c4.559-4.987,30.245-6.318,44.7-6.318s40.121,1.329,44.7,6.308l.7.761-.332,3.859-.68.619C1950.491,2306.3,1929.468,2308.157,1910.648,2308.157Zm-40.005-8.77c4.36,1.845,18.256,4.073,40.005,4.073s35.64-2.229,40.01-4.074c-4.11-1.713-17.408-4.07-40.01-4.07S1874.752,2297.674,1870.643,2299.388Z" transform="translate(-1865.249 -2290.62)" fill="#1d1d1d"/>
          </g>
        </g>
      </g>
      <g id="Grupo_524" data-name="Grupo 524" transform="translate(122.395 194.725)">
        <g id="Grupo_523" data-name="Grupo 523">
          <g id="Grupo_522" data-name="Grupo 522">
            <path id="Caminho_222" data-name="Caminho 222" d="M1939.974,2164.244l-3.611-3.927c-1.549-1.67-15.237-4.79-41.242-4.79s-39.686,3.12-41.237,4.791l-3.606,3.884-.467-5.267-2.76-32.152h96.141Zm-87.6-30.335,1.812,21.083c8.859-3.23,28.831-4.162,40.935-4.162s32.074.932,40.935,4.16l2.02-23.51h-85.909Z" transform="translate(-1847.051 -2126.782)" fill="#1d1d1d"/>
          </g>
        </g>
      </g>
      <g id="Grupo_527" data-name="Grupo 527" transform="translate(114.629 188.811)">
        <g id="Grupo_526" data-name="Grupo 526">
          <g id="Grupo_525" data-name="Grupo 525">
            <ellipse id="Elipse_28" data-name="Elipse 28" cx="55.837" cy="8.266" rx="55.837" ry="8.266" fill="#07d398"/>
          </g>
        </g>
      </g>
      <g id="Grupo_530" data-name="Grupo 530" transform="translate(114.626 188.076)" opacity="0.5">
        <g id="Grupo_529" data-name="Grupo 529">
          <g id="Grupo_528" data-name="Grupo 528">
            <path id="Caminho_223" data-name="Caminho 223" d="M1905.793,2089.746c0,.822-.8,1.609-2.3,2.36-6.851-3.417-28.228-5.912-53.532-5.912s-46.687,2.495-53.538,5.912c-1.5-.752-2.3-1.544-2.3-2.36,0-4.562,25-8.266,55.84-8.266S1905.793,2085.185,1905.793,2089.746Z" transform="translate(-1794.12 -2081.48)" fill="#fff"/>
          </g>
        </g>
      </g>
      <g id="Grupo_533" data-name="Grupo 533" transform="translate(112.281 186.462)">
        <g id="Grupo_532" data-name="Grupo 532">
          <g id="Grupo_531" data-name="Grupo 531">
            <path id="Caminho_224" data-name="Caminho 224" d="M1836.325,2091.716a286.5,286.5,0,0,1-39.827-2.447c-16.177-2.395-18.359-5.473-18.359-8.167s2.182-5.773,18.359-8.168a325.447,325.447,0,0,1,79.653,0c16.178,2.4,18.359,5.473,18.359,8.168s-2.182,5.773-18.359,8.167A286.475,286.475,0,0,1,1836.325,2091.716Zm-53.06-10.614c3.893,2.575,23.527,5.917,53.06,5.917s49.166-3.342,53.06-5.917c-3.892-2.575-23.526-5.917-53.06-5.917S1787.158,2078.527,1783.266,2081.1Zm106.674.487h0Z" transform="translate(-1778.14 -2070.488)" fill="#1d1d1d"/>
          </g>
        </g>
      </g>
      <g id="Grupo_536" data-name="Grupo 536" transform="translate(213.782 231.046)" opacity="0.35">
        <g id="Grupo_535" data-name="Grupo 535">
          <g id="Grupo_534" data-name="Grupo 534">
            <path id="Caminho_225" data-name="Caminho 225" d="M2469.68,2374.24c3.206,3.646,4.544,6.488,4.615,8.742Z" transform="translate(-2469.68 -2374.24)"/>
          </g>
        </g>
      </g>
      <g id="Grupo_540" data-name="Grupo 540" transform="translate(192.688 239.788)" opacity="0.31">
        <g id="Grupo_539" data-name="Grupo 539">
          <g id="Grupo_538" data-name="Grupo 538">
            <g id="Grupo_537" data-name="Grupo 537">
              <path id="Caminho_226" data-name="Caminho 226" d="M2331.984,2467.864c-9.036-4.773-8.7-21.394,6.47-25.1,5.953-1.456,13.392-3.417,13.216-8.959l4.28,8.108q.44,3.127.822,6.347c.81,6.763,1.432,13.779,1.755,20.865C2359.425,2469.138,2343.109,2473.741,2331.984,2467.864Z" transform="translate(-2325.96 -2433.8)" fill="#1d1d1d"/>
            </g>
          </g>
        </g>
      </g>
      <g id="Grupo_543" data-name="Grupo 543" transform="translate(192.688 219.304)">
        <g id="Grupo_542" data-name="Grupo 542">
          <g id="Grupo_541" data-name="Grupo 541">
            <path id="Caminho_227" data-name="Caminho 227" d="M2347.054,2294.241c11.1,12.6-.222,15.651-8.6,17.7-15.175,3.711-15.507,20.334-6.475,25.1,15.458,8.163,29.633,2.4,36.4-2.4" transform="translate(-2325.959 -2294.241)" fill="#575b5a"/>
          </g>
        </g>
      </g>
      <g id="Grupo_546" data-name="Grupo 546" transform="translate(192.688 224.605)" opacity="0.5">
        <g id="Grupo_545" data-name="Grupo 545">
          <g id="Grupo_544" data-name="Grupo 544">
            <path id="Caminho_228" data-name="Caminho 228" d="M2354.518,2339.2a4.479,4.479,0,0,1-.282.646c-2.049,4.016-9.112,6.347-14.308,7.621-8.331,2.037-12.564,7.638-13.457,13.363-1.92-6.728,1.468-15.5,11.983-18.071,5.454-1.333,12.165-3.094,13.1-7.644a5.319,5.319,0,0,0,.112-1.315,8.643,8.643,0,0,0-.934-3.44C2354.524,2333.93,2355.375,2336.842,2354.518,2339.2Z" transform="translate(-2325.961 -2330.36)" fill="#fff"/>
          </g>
        </g>
      </g>
      <g id="Grupo_550" data-name="Grupo 550" transform="translate(192.589 229.038)" opacity="0.35">
        <g id="Grupo_549" data-name="Grupo 549">
          <g id="Grupo_548" data-name="Grupo 548">
            <g id="Grupo_547" data-name="Grupo 547">
              <path id="Caminho_229" data-name="Caminho 229" d="M2371.686,2387.62c-9.149,14.4-51.5,14.525-45.888-8.055,17.318,18.162,47.294,2.874,44.649-19C2373.916,2368.138,2376.646,2379.842,2371.686,2387.62Z" transform="translate(-2325.288 -2360.56)" fill="#1d1d1d"/>
            </g>
          </g>
        </g>
      </g>
      <g id="Grupo_553" data-name="Grupo 553" transform="translate(230.127 246.868)" opacity="0.35">
        <g id="Grupo_552" data-name="Grupo 552">
          <g id="Grupo_551" data-name="Grupo 551">
            <path id="Caminho_230" data-name="Caminho 230" d="M2582.232,2482.04c-.376.264-.775.534-1.192.8C2581.463,2482.568,2581.856,2482.3,2582.232,2482.04Z" transform="translate(-2581.04 -2482.04)"/>
          </g>
        </g>
      </g>
      <g id="Grupo_556" data-name="Grupo 556" transform="translate(190.34 217.46)">
        <g id="Grupo_555" data-name="Grupo 555">
          <g id="Grupo_554" data-name="Grupo 554">
            <path id="Caminho_231" data-name="Caminho 231" d="M2334.494,2332.827a36.6,36.6,0,0,1-17.257-4.421c-5.041-2.663-7.915-8.6-7.151-14.78.9-7.243,6.19-12.732,14.164-14.682,3.763-.92,10.766-2.632,11.753-5.794.545-1.747-.668-4.362-3.507-7.56a2.348,2.348,0,1,1,3.513-3.118c4.106,4.625,5.57,8.576,4.478,12.078-1.777,5.695-9.807,7.657-15.12,8.957-6,1.469-9.972,5.467-10.618,10.7-.526,4.255,1.356,8.293,4.683,10.05,18.454,9.747,35.194-2.04,37.2-5.192a2.349,2.349,0,1,1,3.962,2.524C2358.521,2324.837,2348.166,2332.827,2334.494,2332.827Z" transform="translate(-2309.964 -2281.682)" fill="#1d1d1d"/>
          </g>
        </g>
      </g>
      <g id="Grupo_559" data-name="Grupo 559" transform="translate(109.359 116.044)">
        <g id="Grupo_558" data-name="Grupo 558">
          <g id="Grupo_557" data-name="Grupo 557">
            <path id="Caminho_232" data-name="Caminho 232" d="M1758.556,1611.458a20.534,20.534,0,0,1-.116-6.52,18.954,18.954,0,0,1,2.039-6.447,14.476,14.476,0,0,1,4.825-5.328,14.908,14.908,0,0,1,6.819-2.327,15.769,15.769,0,0,1,7.131.759,13.688,13.688,0,0,1,5.875,4.179,17.438,17.438,0,0,1,3.673,12.617.866.866,0,0,1-1.706.106l0-.019a18.952,18.952,0,0,0-5.081-9.824,10.431,10.431,0,0,0-4.294-2.47,12.313,12.313,0,0,0-4.995-.278,11.289,11.289,0,0,0-8.338,4.961,29.134,29.134,0,0,0-4.116,10.546l-.014.064a.867.867,0,0,1-1.7-.02Z" transform="translate(-1758.237 -1590.726)" fill="#fff"/>
          </g>
        </g>
      </g>
      <g id="Grupo_562" data-name="Grupo 562" transform="translate(199.52 113.397)">
        <g id="Grupo_561" data-name="Grupo 561">
          <g id="Grupo_560" data-name="Grupo 560">
            <path id="Caminho_233" data-name="Caminho 233" d="M2372.841,1592.457a19.261,19.261,0,0,1-.156-6.2,17.912,17.912,0,0,1,1.919-6.147,13.786,13.786,0,0,1,4.6-5.1,14.213,14.213,0,0,1,6.514-2.225,15.03,15.03,0,0,1,6.811.731,13.054,13.054,0,0,1,5.606,4,16.493,16.493,0,0,1,3.442,12.024.866.866,0,0,1-1.706.108l0-.02a18,18,0,0,0-4.85-9.231,9.794,9.794,0,0,0-4.026-2.294,11.585,11.585,0,0,0-4.675-.25,10.613,10.613,0,0,0-7.809,4.628,27.964,27.964,0,0,0-3.956,9.924l-.015.065a.868.868,0,0,1-1.7-.021Z" transform="translate(-2372.509 -1572.686)" fill="#fff"/>
          </g>
        </g>
      </g>
      <g id="Grupo_565" data-name="Grupo 565" transform="translate(140.592 241.844)" opacity="0.5">
        <g id="Grupo_564" data-name="Grupo 564">
          <g id="Grupo_563" data-name="Grupo 563">
            <ellipse id="Elipse_29" data-name="Elipse 29" cx="7.403" cy="26.897" rx="7.403" ry="26.897" fill="#fff"/>
          </g>
        </g>
      </g>
      <g id="Grupo_569" data-name="Grupo 569" transform="translate(100.399 241.839)" opacity="0.31">
        <g id="Grupo_568" data-name="Grupo 568">
          <g id="Grupo_567" data-name="Grupo 567">
            <g id="Grupo_566" data-name="Grupo 566">
              <path id="Caminho_234" data-name="Caminho 234" d="M1770,2478.157c-10.509,5.228-20.913,6.4-32.08,6.737a55.252,55.252,0,0,1-40.732-16.521l28.257.1c10.987,5.075,6.367-22.6,15.041-20.587,11.09,2.573,19.7,3.479,24.33,4.871C1779.785,2457.238,1779.146,2473.6,1770,2478.157Z" transform="translate(-1697.187 -2447.778)" fill="#1d1d1d"/>
            </g>
          </g>
        </g>
      </g>
      <g id="Grupo_572" data-name="Grupo 572" transform="translate(101.44 220.09)">
        <g id="Grupo_571" data-name="Grupo 571">
          <g id="Grupo_570" data-name="Grupo 570">
            <path id="Caminho_235" data-name="Caminho 235" d="M1776.054,2339.981a80.012,80.012,0,0,1-31.963,7.841,116.158,116.158,0,0,1-39.808-5.384l12.4-42.844a153.1,153.1,0,0,0,29.852,10.113c11.09,2.573,19.7,3.479,24.33,4.871C1785.84,2319.062,1785.2,2335.428,1776.054,2339.981Z" transform="translate(-1704.283 -2299.594)" fill="#575b5a"/>
          </g>
        </g>
      </g>
      <g id="Grupo_575" data-name="Grupo 575" transform="translate(113.673 220.09)" opacity="0.5">
        <g id="Grupo_574" data-name="Grupo 574">
          <g id="Grupo_573" data-name="Grupo 573">
            <path id="Caminho_236" data-name="Caminho 236" d="M1853.3,2332.026c-1.444-4.7-3.709-10.179-11.024-12.781-4.984-1.773-14.4-1.167-26.7-4.667-6.541-1.862-13.965-3.689-20.642-6.955-3.632-1.777-8.263-4.139-7.137-8.022h0a153.054,153.054,0,0,0,29.854,10.11c11.085,2.578,19.692,3.481,24.324,4.873C1851.782,2317.519,1854.894,2325.556,1853.3,2332.026Z" transform="translate(-1787.627 -2299.6)" fill="#fff"/>
          </g>
        </g>
      </g>
      <g id="Grupo_578" data-name="Grupo 578" transform="translate(99.488 245.812)" opacity="0.35">
        <g id="Grupo_577" data-name="Grupo 577">
          <g id="Grupo_576" data-name="Grupo 576">
            <path id="Caminho_237" data-name="Caminho 237" d="M1764.707,2489.506a80.031,80.031,0,0,1-31.968,7.838,109.674,109.674,0,0,1-38.234-4.872l-3.523-1.361c5.34-5.744,17.229-8.472,26.132-7.216,6,.847,14.256,2.756,23.43,3.087,13.665.493,23.583-4.757,30.257-12.143C1772.3,2480.658,1769.85,2486.946,1764.707,2489.506Z" transform="translate(-1690.981 -2474.84)"/>
          </g>
        </g>
      </g>
      <g id="Grupo_581" data-name="Grupo 581" transform="translate(99.091 217.738)">
        <g id="Grupo_580" data-name="Grupo 580">
          <g id="Grupo_579" data-name="Grupo 579">
            <path id="Caminho_238" data-name="Caminho 238" d="M1725.618,2336.66a116.635,116.635,0,0,1-35.775-5.675,2.348,2.348,0,0,1,1.571-4.426c.381.134,38.47,13.311,69.94-2.35a10.206,10.206,0,0,0,5.187-10.109c-.21-2.452-1.6-8.427-10-10.942a92.915,92.915,0,0,0-9.208-1.88c-10.689-1.874-26.843-4.707-45.285-13.223a2.349,2.349,0,0,1,1.969-4.264c17.887,8.26,33.677,11.029,44.127,12.862a94.9,94.9,0,0,1,9.745,2.007c7.739,2.318,12.721,7.941,13.329,15.04.532,6.222-2.592,12.135-7.774,14.715C1750.845,2334.686,1737.465,2336.66,1725.618,2336.66Z" transform="translate(-1688.28 -2283.574)" fill="#1d1d1d"/>
          </g>
        </g>
      </g>
      <g id="Grupo_584" data-name="Grupo 584" transform="translate(236.938 272.359)">
        <g id="Grupo_583" data-name="Grupo 583">
          <g id="Grupo_582" data-name="Grupo 582">
            <path id="Caminho_239" data-name="Caminho 239" d="M2627.44,2655.707" transform="translate(-2627.44 -2655.707)" fill="#575b5a"/>
          </g>
        </g>
      </g>
      <g id="Grupo_587" data-name="Grupo 587" transform="translate(170.382 151.2)">
        <g id="Grupo_586" data-name="Grupo 586">
          <g id="Grupo_585" data-name="Grupo 585">
            <path id="Caminho_240" data-name="Caminho 240" d="M2186.038,1831.139v44.092c0,.487-2.695.886-6.024.886s-6.024-.4-6.024-.886v-44.092c0-.493,2.7-.892,6.024-.892S2186.038,1830.646,2186.038,1831.139Z" transform="translate(-2173.991 -1830.247)" fill="#1d1d1d"/>
          </g>
        </g>
      </g>
      <g id="Grupo_590" data-name="Grupo 590" transform="translate(156.933 142.468)" opacity="0.35">
        <g id="Grupo_589" data-name="Grupo 589">
          <g id="Grupo_588" data-name="Grupo 588">
            <path id="Caminho_241" data-name="Caminho 241" d="M2082.36,1790.13a9.642,9.642,0,0,0,6.541,9.187c7.036,2.612,10.881-3.453,12.113-5.912a.507.507,0,0,1,.875-.007c1.113,2.442,4.422,7.176,10.635,5.734,6.424-1.491,5.335-8.865,5.335-8.865l-1.944-13.711-29.5-5.807-4.054,5.941" transform="translate(-2082.357 -1770.749)" fill="#1d1d1d"/>
          </g>
        </g>
      </g>
      <g id="Grupo_593" data-name="Grupo 593" transform="translate(156.933 136.596)">
        <g id="Grupo_592" data-name="Grupo 592">
          <g id="Grupo_591" data-name="Grupo 591">
            <path id="Caminho_242" data-name="Caminho 242" d="M2082.36,1750.129a9.642,9.642,0,0,0,6.541,9.187c7.036,2.612,10.881-3.453,12.113-5.912a.507.507,0,0,1,.875-.007c1.113,2.442,4.422,7.176,10.635,5.734,6.424-1.491,5.335-8.865,5.335-8.865l-1.944-13.711-29.5-5.807-4.054,5.941" transform="translate(-2082.357 -1730.748)" fill="#fff"/>
          </g>
        </g>
      </g>
      <g id="Grupo_596" data-name="Grupo 596" transform="translate(155.386 154.49)">
        <g id="Grupo_595" data-name="Grupo 595">
          <g id="Grupo_594" data-name="Grupo 594">
            <path id="Caminho_243" data-name="Caminho 243" d="M2074.892,1854.227c.019.128.04.4.083.607s.093.451.143.675a8.871,8.871,0,0,0,.438,1.305,7.967,7.967,0,0,0,1.411,2.241,8.825,8.825,0,0,0,4.549,2.55,6.05,6.05,0,0,0,4.653-.719,11.031,11.031,0,0,0,3.517-3.994c.061-.1.109-.208.164-.312l.081-.157.02-.039a3.261,3.261,0,0,1,.166-.285,2.738,2.738,0,0,1,.422-.5,2.836,2.836,0,0,1,2.051-.752,2.781,2.781,0,0,1,2.108,1.086,2.438,2.438,0,0,1,.2.3c.05.083.136.265.12.233l.035.073.07.147c.044.1.093.2.148.293.1.2.213.389.332.578a8.779,8.779,0,0,0,1.664,2.008,6.678,6.678,0,0,0,2.049,1.283,6.352,6.352,0,0,0,2.376.375,8.353,8.353,0,0,0,1.289-.126c.211-.037.391-.106.591-.152l.3-.073c.093-.032.174-.08.263-.114a3.89,3.89,0,0,0,1.795-1.3,6,6,0,0,0,1.085-2.238,8.925,8.925,0,0,0,.259-1.36,10.488,10.488,0,0,0,.08-1.354v-.175a1.536,1.536,0,0,1,3.049-.275,11.848,11.848,0,0,1,.083,3.837,9.458,9.458,0,0,1-1.388,3.8,9.684,9.684,0,0,1-.652.861c-.251.263-.5.528-.769.779q-.429.333-.874.655a8.727,8.727,0,0,1-.937.527c-.159.081-.32.167-.481.235l-.491.169c-.327.105-.662.233-.987.31a12.71,12.71,0,0,1-1.967.316,10.126,10.126,0,0,1-4.1-.481,10.851,10.851,0,0,1-3.578-2.056,13.349,13.349,0,0,1-2.563-3.006c-.176-.274-.343-.554-.5-.843-.081-.142-.156-.288-.229-.438l-.109-.224-.055-.112a1.326,1.326,0,0,0,.072.143,2.421,2.421,0,0,0,.14.211,1.852,1.852,0,0,0,1.392.741,1.786,1.786,0,0,0,1.294-.488,1.9,1.9,0,0,0,.289-.342,1.51,1.51,0,0,0,.112-.2l-.027.052-.11.208c-.075.138-.144.279-.224.413a14.907,14.907,0,0,1-5.245,5.632,10.149,10.149,0,0,1-8.037.954,13.239,13.239,0,0,1-1.831-.677c-.292-.136-.586-.266-.873-.413l-.837-.514a10.867,10.867,0,0,1-4.636-6.178,11.644,11.644,0,0,1-.386-1.877c-.028-.319-.061-.634-.065-.957a9.3,9.3,0,0,1,.023-1.036,1.51,1.51,0,0,1,3-.122Z" transform="translate(-2071.821 -1852.661)" fill="#1d1d1d"/>
          </g>
        </g>
      </g>
      <g id="Grupo_599" data-name="Grupo 599" transform="translate(164.018 137.641)">
        <g id="Grupo_598" data-name="Grupo 598">
          <g id="Grupo_597" data-name="Grupo 597">
            <path id="Caminho_244" data-name="Caminho 244" d="M2152,1738.368a4.318,4.318,0,0,1,3.343,2.914c.38,1.319-.743,3.5-1.842,4.743a14.172,14.172,0,0,1-21.847-1.205c-2.406-3.364-.433-6.775,4.395-6.922C2141.029,1737.745,2146.026,1738.165,2152,1738.368Z" transform="translate(-2130.629 -1737.865)" fill="#1d1d1d"/>
          </g>
        </g>
      </g>
      <g id="Grupo_602" data-name="Grupo 602" transform="translate(176.958 140.088)" opacity="0.5">
        <g id="Grupo_601" data-name="Grupo 601">
          <g id="Grupo_600" data-name="Grupo 600">
            <path id="Caminho_245" data-name="Caminho 245" d="M2225.7,1754.6a1.523,1.523,0,0,1,1.178.754c.162.348-.145.932-.471,1.266-1.734,1.784-5.321,1.662-7.194-.2-.883-.878-.333-1.793,1.245-1.858C2222.084,1754.5,2223.733,1754.582,2225.7,1754.6Z" transform="translate(-2218.79 -1754.539)" fill="#fff"/>
          </g>
        </g>
      </g>
      <g id="Grupo_605" data-name="Grupo 605" transform="translate(150.88 146.845)">
        <g id="Grupo_604" data-name="Grupo 604">
          <g id="Grupo_603" data-name="Grupo 603">
            <path id="Caminho_246" data-name="Caminho 246" d="M2042.193,1800.573s10.921,2.034,9.75,13.592c-.97,9.578-10.821,10.82-10.821,10.82" transform="translate(-2041.122 -1800.573)" fill="#fff"/>
          </g>
        </g>
      </g>
      <g id="Grupo_608" data-name="Grupo 608" transform="translate(149.734 145.709)">
        <g id="Grupo_607" data-name="Grupo 607">
          <g id="Grupo_606" data-name="Grupo 606">
            <path id="Caminho_247" data-name="Caminho 247" d="M2035.742,1792.841a12.045,12.045,0,0,1,2.393.488,14.368,14.368,0,0,1,2.246.891,13.172,13.172,0,0,1,3.943,3.023l.808,1,.662,1.107a7.367,7.367,0,0,1,.555,1.161,8.852,8.852,0,0,1,.455,1.2,13.637,13.637,0,0,1,.484,2.487l.121,1.25c-.007.409-.019.819-.04,1.228s-.024.817-.077,1.229l-.211,1.243c-.038.207-.068.414-.115.62l-.187.612c-.129.407-.249.816-.41,1.212a12.748,12.748,0,0,1-2.885,4.222,13.184,13.184,0,0,1-4.157,2.7,15.9,15.9,0,0,1-2.3.738,13.132,13.132,0,0,1-2.418.353,1.229,1.229,0,0,1-.445-2.4l.137-.043a18.037,18.037,0,0,0,1.824-.687c.3-.131.6-.286.9-.421l.857-.477a11.641,11.641,0,0,0,2.913-2.375,10.3,10.3,0,0,0,1.829-3.071,11.794,11.794,0,0,0,.643-3.626,10.588,10.588,0,0,0-1.833-6.929,11.731,11.731,0,0,0-2.676-2.612,13.215,13.215,0,0,0-1.671-1.038,16.247,16.247,0,0,0-1.77-.826l-.123-.049a1.149,1.149,0,0,1,.544-2.211Z" transform="translate(-2033.315 -1792.835)" fill="#1d1d1d"/>
          </g>
        </g>
      </g>
      <g id="Grupo_611" data-name="Grupo 611" transform="translate(100.752 312.466)">
        <g id="Grupo_610" data-name="Grupo 610">
          <g id="Grupo_609" data-name="Grupo 609">
            <ellipse id="Elipse_30" data-name="Elipse 30" cx="3.043" cy="5.534" rx="3.043" ry="5.534" fill="#fc7e81"/>
          </g>
        </g>
      </g>
      <g id="Grupo_614" data-name="Grupo 614" transform="translate(108.571 304.031)">
        <g id="Grupo_613" data-name="Grupo 613">
          <g id="Grupo_612" data-name="Grupo 612">
            <ellipse id="Elipse_31" data-name="Elipse 31" cx="4.22" cy="7.674" rx="4.22" ry="7.674" fill="#fc7e81"/>
          </g>
        </g>
      </g>
      <g id="Grupo_617" data-name="Grupo 617" transform="translate(118.704 314.858)">
        <g id="Grupo_616" data-name="Grupo 616">
          <g id="Grupo_615" data-name="Grupo 615">
            <ellipse id="Elipse_32" data-name="Elipse 32" cx="2.796" cy="5.084" rx="2.796" ry="5.084" fill="#fc7e81"/>
          </g>
        </g>
      </g>
    </g>
  </g>
</svg>
