<svg id="Grupo_2476" data-name="Grupo 2476" xmlns="http://www.w3.org/2000/svg" width="4000" height="4000" viewBox="0 0 4000 4000">
  <g id="Grupo_2396" data-name="Grupo 2396">
    <rect id="Retângulo_891" data-name="Retângulo 891" width="4000" height="4000" fill="#ff8bae"/>
  </g>
  <g id="Grupo_2475" data-name="Grupo 2475">
    <g id="Grupo_2397" data-name="Grupo 2397" opacity="0.3">
      <ellipse id="Elipse_89" data-name="Elipse 89" cx="912.5" cy="96.883" rx="912.5" ry="96.883" transform="translate(1050 3290.617)" fill="#390075"/>
    </g>
    <g id="Grupo_2474" data-name="Grupo 2474">
      <g id="Grupo_2473" data-name="Grupo 2473">
        <g id="Grupo_2398" data-name="Grupo 2398">
          <path id="Caminho_1645" data-name="Caminho 1645" d="M2322.825,1810.868l-79.393,160.078,10.464,225.595,6.808,147.634,3.715,80.116c-31.675,186.387-200.108,314.173-491.982,266.021,11.935-80.883-3.2-159.136-35.522-228.084-44.242-94.464-120.643-171.437-203.594-213.965-5.4-100.047,24.937-184.375,105.179-246.777,39.558-84.572-14.134-215.292-107.811-282.9-48.56-43.759-33.443-86.722,28.593-129.17,131.636-60.814,289.82,3.742,337.6,149.655a285.763,285.763,0,0,1,9.491,37.709c.34,64.519,11.52,115.477,54.1,126.612l22.027-16.306,197.231-146.258Z" fill="#fff"/>
        </g>
        <g id="Grupo_2399" data-name="Grupo 2399" opacity="0.75">
          <path id="Caminho_1646" data-name="Caminho 1646" d="M1652.778,1952.475c7.492,37.3,5.305,73.733-8.916,104.2-69.037,53.627-101.126,123.558-105.3,205.746-1.376-.72-2.7-1.4-4.073-2.116-5.4-100.046,24.938-184.375,105.179-246.777C1648.32,1995.006,1652.532,1974.251,1652.778,1952.475Z" fill="#fff"/>
        </g>
        <g id="Grupo_2400" data-name="Grupo 2400" opacity="0.75">
          <path id="Caminho_1647" data-name="Caminho 1647" d="M1858.149,1975.547l15.034-1.461a293.936,293.936,0,0,0,110.387-33.464h0a293.877,293.877,0,0,0,43.4-28.452l178.871-141.317-26.1-30.023Z" fill="#fff"/>
        </g>
        <g id="Grupo_2401" data-name="Grupo 2401" opacity="0.75">
          <path id="Caminho_1648" data-name="Caminho 1648" d="M1906.377,1776.779c.027,9.592.329,18.907,1,27.834-38.257-161.608-205.677-235.916-343.9-172.1-28.967,19.844-47.68,39.747-54.473,59.8-18.9-34.736.682-68.99,50.286-102.9C1701.783,1523.576,1875.334,1604.624,1906.377,1776.779Z" fill="#fff"/>
        </g>
        <g id="Grupo_2404" data-name="Grupo 2404">
          <g id="Grupo_2402" data-name="Grupo 2402">
            <path id="Caminho_1649" data-name="Caminho 1649" d="M1910.905,1834.763a261.814,261.814,0,0,1-3.532-30.15c1.19,5.008,2.24,10.131,3.195,15.313C1910.6,1824.946,1910.685,1829.911,1910.905,1834.763Z" fill="#fff"/>
          </g>
          <g id="Grupo_2403" data-name="Grupo 2403">
            <path id="Caminho_1650" data-name="Caminho 1650" d="M1908.446,1835.212a265.641,265.641,0,0,1-3.569-30.437l4.926-.739c1.131,4.743,2.183,9.8,3.223,15.439.078,5.42.159,10.354.376,15.176Z" fill="#390075"/>
          </g>
        </g>
        <g id="Grupo_2407" data-name="Grupo 2407">
          <g id="Grupo_2405" data-name="Grupo 2405">
            <path id="Caminho_1651" data-name="Caminho 1651" d="M1377.82,2422.33c-59.911-96.573,70.706-193.233,181.526-153.227,22.724,8.2,43.386,21.2,61.816,36.817,93.346,79.126,146.344,186.127,154.6,324.038,17.889,184.133-204.061,217.418-222.347,115.375" fill="#fff"/>
          </g>
          <g id="Grupo_2406" data-name="Grupo 2406">
            <path id="Caminho_1652" data-name="Caminho 1652" d="M1634.386,2804.763c-43.723,0-76.934-22.719-83.433-58.989l4.922-.884c8.04,44.863,55.569,59.253,96.306,53.621,65.323-9.009,131.079-65.523,121.094-168.311-8.042-134.289-59.763-242.72-153.73-322.373-19.541-16.565-40.081-28.8-61.048-36.372-68.323-24.668-139.419,4.253-171.616,43.994-26.067,32.173-28.6,70.647-6.936,105.562l-4.248,2.636c-22.852-36.833-20.191-77.419,7.3-111.345,33.286-41.079,106.7-71.006,177.2-45.549,21.529,7.771,42.583,20.308,62.581,37.261,95.051,80.569,147.363,190.183,155.481,325.8,10.3,105.979-57.781,164.328-125.393,173.654A135.179,135.179,0,0,1,1634.386,2804.763Z" fill="#390075"/>
          </g>
        </g>
        <g id="Grupo_2408" data-name="Grupo 2408" opacity="0.3">
          <path id="Caminho_1653" data-name="Caminho 1653" d="M1775.766,2629.957c17.89,184.133-204.083,217.4-222.333,115.391l-91.013-167.384a197.69,197.69,0,0,0,74.383-52.388l9.6,17.654c14.9,83.048,164.618,76.49,210.277-28.015Q1772.039,2568.58,1775.766,2629.957Z" fill="#390075"/>
        </g>
        <g id="Grupo_2409" data-name="Grupo 2409" opacity="0.75">
          <path id="Caminho_1654" data-name="Caminho 1654" d="M1751.115,2497.219c-26.151-61.308-65.442-113.6-117.066-157.367-18.4-15.644-39.1-28.653-61.8-36.847-97.146-35.07-209.464,34.819-195.389,117.646-57.452-95.995,72.287-191.337,182.5-151.558,22.7,8.193,43.354,21.207,61.8,36.846C1682.035,2357.544,1725.728,2421.017,1751.115,2497.219Z" fill="#fff"/>
        </g>
        <g id="Grupo_2410" data-name="Grupo 2410">
          <path id="Caminho_1655" data-name="Caminho 1655" d="M1553.415,2745.333c118.451-73.465-32.831-355.157-162.269-325.836-97.532,22.178-195.46,21.43-293.824-4.613a90.283,90.283,0,0,0-85.165,22.062c-79.43,75.7-99.745,165.295-81.831,263.88a96.074,96.074,0,0,0,60.995,72.917C1168.824,2839.338,1424.791,2822.045,1553.415,2745.333Z" fill="#3e4561"/>
        </g>
        <g id="Grupo_2411" data-name="Grupo 2411" opacity="0.3">
          <path id="Caminho_1656" data-name="Caminho 1656" d="M1553.433,2745.348c-128.636,76.7-384.615,93.982-562.089,28.387a96.061,96.061,0,0,1-61.035-72.89,365.9,365.9,0,0,1-5.9-54.485,95.328,95.328,0,0,0,32.456,20.206c177.525,65.591,433.5,48.257,562.084-28.437,33.826-21.019,45.66-58.991,42.248-101.862C1603.8,2613.811,1614.646,2707.35,1553.433,2745.348Z" fill="#390075"/>
        </g>
        <g id="Grupo_2412" data-name="Grupo 2412" opacity="0.55">
          <path id="Caminho_1657" data-name="Caminho 1657" d="M1596.158,2662.879c-21.873-101.56-115.808-215.259-200.4-196.09-97.561,22.189-195.5,21.405-293.822-4.608a90.265,90.265,0,0,0-85.168,22.038c-64.468,61.372-90.011,131.973-87.74,209.115-15.567-95.593,5.718-182.609,83.147-256.392a90.265,90.265,0,0,1,85.168-22.039c98.326,26.014,196.261,26.8,293.822,4.609C1489.323,2397.266,1600.033,2553.844,1596.158,2662.879Z" fill="#fff"/>
        </g>
        <g id="Grupo_2413" data-name="Grupo 2413">
          <path id="Caminho_1658" data-name="Caminho 1658" d="M1242.164,2828.953c-90.154,0-181.04-13.423-256.042-41.14a111.375,111.375,0,0,1-70.555-84.307c-20.346-111.978,7.864-202.722,86.241-277.42a105.751,105.751,0,0,1,99.355-25.7c93.931,24.863,190.374,26.372,286.658,4.485,82.016-18.587,165.82,67.885,203.027,158.676,35.52,86.668,24.2,161.206-29.529,194.532-.073.046-.146.092-.222.136C1483.2,2804.673,1363.358,2828.953,1242.164,2828.953Zm-167.473-402a75.908,75.908,0,0,0-52.185,20.852c-70.5,67.185-95.823,149.073-77.422,250.34a81.247,81.247,0,0,0,51.438,61.528c168.477,62.253,419.883,49.819,549.089-27.153,48.206-30.008,40.645-101.07,17.478-157.6-33-80.515-105.09-155.212-168.63-140.8-101.042,22.981-202.31,21.384-300.974-4.741A73.424,73.424,0,0,0,1074.691,2426.953Zm478.723,318.379h0Z" fill="#390075"/>
        </g>
        <g id="Grupo_2414" data-name="Grupo 2414">
          <path id="Caminho_1659" data-name="Caminho 1659" d="M1634.215,2817.275c-49.868,0-87.94-26.738-95.567-69.3a15,15,0,1,1,29.532-5.293c6.616,36.938,46.1,48.425,82.295,43.442,59.592-8.22,119.546-60.144,110.359-154.719-.02-.183-.032-.369-.044-.555-7.823-130.656-58.064-236.13-149.329-313.491-18.4-15.6-37.646-27.09-57.207-34.15-62.905-22.715-128.174,3.713-157.661,40.105-13.228,16.328-31.6,49.875-6.026,91.1a15,15,0,1,1-25.493,15.816c-25.83-41.633-22.837-87.488,8.211-125.806,36.9-45.539,114.4-77.148,191.155-49.436,22.937,8.279,45.283,21.563,66.42,39.483,97.688,82.807,151.473,195.288,159.859,334.311,10.959,114.109-62.861,176.948-136.145,187.058A149.165,149.165,0,0,1,1634.215,2817.275Z" fill="#390075"/>
        </g>
        <g id="Grupo_2415" data-name="Grupo 2415">
          <path id="Caminho_1660" data-name="Caminho 1660" d="M1535.863,2277.686a15,15,0,0,1-14.673-11.956c-18.086-87.192,17.153-193.626,85.7-258.831,23.3-22.219,35.127-53.415,31.621-83.437-8.85-75.855-48.24-139.866-120.42-195.693a78.851,78.851,0,0,1-30.271-53.038,77.7,77.7,0,0,1,16.167-57.961c41-52.08,119.338-77.773,199.607-65.471,94.25,14.446,168.655,76.335,204.131,169.8,9,23.611,14.385,50.276,16,79.231,4.214,75.4,24.8,87.005,42.268,88.694a15,15,0,0,1-2.886,29.858c-63.144-6.1-67.642-86.582-69.333-116.877-1.446-25.869-6.187-49.5-14.09-70.242-31.538-83.086-97.375-138.047-180.637-150.808-68.679-10.539-137.595,11.321-171.489,54.373a47.917,47.917,0,0,0-9.966,35.735,49.073,49.073,0,0,0,18.857,32.981c78.889,61.018,122.024,131.655,131.861,215.942,4.59,39.328-10.635,79.941-40.73,108.64-61.441,58.447-93.1,153.438-77.012,231.013a15.011,15.011,0,0,1-14.7,18.05Z" fill="#390075"/>
        </g>
        <g id="Grupo_2416" data-name="Grupo 2416">
          <path id="Caminho_1661" data-name="Caminho 1661" d="M1591.99,2022.347a150.365,150.365,0,0,1,24.68-23.555,268.958,268.958,0,0,1,59.741-34.181,172.228,172.228,0,0,1,33.052-9.831,2.561,2.561,0,0,1,1.952,4.6l-.023.016c-9.109,6.57-17.834,13.173-26.208,20.142q-12.609,10.345-24.4,21.389c-7.976,7.242-15.539,14.929-23.408,22.238s-15.823,14.537-24.7,20.914l-.1.072a15.126,15.126,0,0,1-20.585-21.8Z" fill="#390075"/>
        </g>
        <g id="Grupo_2417" data-name="Grupo 2417">
          <path id="Caminho_1662" data-name="Caminho 1662" d="M1841.6,1983.342c29.5-25.985,60.219-49.878,91.1-73.438,30.913-23.5,62.3-46.235,93.043-69.777q23.253-17.389,46.141-35.217,23.058-17.6,45.741-35.639c30.4-23.861,60.355-48.2,90.3-72.608l.023-.02a15.012,15.012,0,0,1,19.883,22.463c-28.313,27.192-58.164,52.676-88.68,77.237q-22.964,18.33-46.432,35.972-23.57,17.5-47.47,34.509c-32.088,22.359-64.351,44.419-97.675,64.835-33.358,20.356-67.473,39.506-103.253,55.878a2.527,2.527,0,0,1-2.72-4.195Z" fill="#390075"/>
        </g>
        <g id="Grupo_2418" data-name="Grupo 2418">
          <path id="Caminho_1663" data-name="Caminho 1663" d="M2619.478,2377.186c-118.405,43.956-250.75,56.111-355.059,47.1-19.6-1.662-38.178-4.127-55.508-7.216l-21.686-69.127-40.2-128.314q54.195-10.692,106.868-23.093c150.217-35.542,290.879-82.565,418.287-145.53,37.82-18.695,82.165-12.1,111.954,13.739a96,96,0,0,1,25.132,34.28C2846.9,2185.4,2787,2317.608,2619.478,2377.186Z" fill="#fff"/>
        </g>
        <g id="Grupo_2419" data-name="Grupo 2419" opacity="0.75">
          <path id="Caminho_1664" data-name="Caminho 1664" d="M2815.566,2117.307c-28.091-38.364-81.811-51.481-126.387-29.417-144.717,71.539-317.862,123.394-493.117,160.4a42.238,42.238,0,0,1-49.034-28.654h0c190.567-37.5,367.984-90.911,525.155-168.623,51.142-25.314,114.318-4.325,137.086,48.019A119.591,119.591,0,0,1,2815.566,2117.307Z" fill="#fff"/>
        </g>
        <g id="Grupo_2420" data-name="Grupo 2420">
          <path id="Caminho_1665" data-name="Caminho 1665" d="M1890.018,2715.408a738.137,738.137,0,0,1-120.005-10.313,15,15,0,1,1,4.888-29.6c258.943,42.734,440.867-54.473,474.727-253.714a15,15,0,0,1,29.575,5.025c-17.144,100.893-70.921,180.886-155.515,231.33C2060,2696.113,1980.57,2715.408,1890.018,2715.408Z" fill="#390075"/>
        </g>
        <g id="Grupo_2430" data-name="Grupo 2430">
          <g id="Grupo_2421" data-name="Grupo 2421">
            <path id="Caminho_1666" data-name="Caminho 1666" d="M2420.344,840.991l315.078,658.17a92.589,92.589,0,0,1-43.539,123.506l-370.937,177.574a92.59,92.59,0,0,1-123.507-43.538l-315.077-658.171a92.535,92.535,0,0,1,43.56-123.461L2296.859,797.5A92.579,92.579,0,0,1,2420.344,840.991Z" fill="#fff"/>
            <path id="Caminho_1667" data-name="Caminho 1667" d="M2281.024,1811.87a95.327,95.327,0,0,1-85.84-54.089l-315.078-658.169a95.041,95.041,0,0,1,44.736-126.8L2295.78,795.242a95.075,95.075,0,0,1,126.819,44.67l315.078,658.169a95.212,95.212,0,0,1-44.715,126.843L2322.025,1802.5A94.8,94.8,0,0,1,2281.024,1811.87Zm55.767-1021a89.8,89.8,0,0,0-38.853,8.884L1927,977.327a90.03,90.03,0,0,0-42.383,120.127L2199.7,1755.623a90.086,90.086,0,0,0,120.171,42.363L2690.8,1620.413a90.2,90.2,0,0,0,42.361-120.174L2418.087,842.07a90.294,90.294,0,0,0-81.3-51.2Z" fill="#390075"/>
          </g>
          <g id="Grupo_2422" data-name="Grupo 2422" opacity="0.3">
            <path id="Caminho_1668" data-name="Caminho 1668" d="M2420.344,840.991l315.078,658.17a92.589,92.589,0,0,1-43.539,123.506l-370.937,177.574a92.482,92.482,0,0,1-95.887-9.7,91.8,91.8,0,0,0,47.539-8.733l370.982-177.6a92.579,92.579,0,0,0,43.494-123.485L2372,822.56a91.812,91.812,0,0,0-27.62-33.842A92.458,92.458,0,0,1,2420.344,840.991Z" fill="#390075"/>
          </g>
          <g id="Grupo_2423" data-name="Grupo 2423" opacity="0.75">
            <path id="Caminho_1669" data-name="Caminho 1669" d="M2380.2,799.174a92.362,92.362,0,0,0-43.564,9.047L1965.7,985.795a92.59,92.59,0,0,0-43.539,123.507l315.056,658.125a91.978,91.978,0,0,0,40.208,41.84,92.589,92.589,0,0,1-79.988-52.564l-315.077-658.171a92.577,92.577,0,0,1,43.56-123.461L2296.859,797.5A92.482,92.482,0,0,1,2380.2,799.174Z" fill="#fff"/>
          </g>
          <g id="Grupo_2424" data-name="Grupo 2424">
            <path id="Caminho_1670" data-name="Caminho 1670" d="M2284.226,1723.564a7.6,7.6,0,0,1-10.128-3.572l-315.064-658.141a7.6,7.6,0,0,1,3.57-10.127l370.948-177.58a7.6,7.6,0,0,1,10.129,3.569l315.064,658.142a7.606,7.606,0,0,1-3.571,10.13Z" fill="#f9195a"/>
          </g>
          <g id="Grupo_2425" data-name="Grupo 2425" opacity="0.25">
            <path id="Caminho_1671" data-name="Caminho 1671" d="M2556.95,1131.793l69.648,145.488L1868.431,1048.36a92.545,92.545,0,0,1,52.491-78.289l38.785-18.567Z" fill="#fff"/>
          </g>
          <g id="Grupo_2426" data-name="Grupo 2426" opacity="0.25">
            <path id="Caminho_1672" data-name="Caminho 1672" d="M2677.637,1622.093l-159.424,76.319-410.621-123.948-69.626-145.443Z" fill="#fff"/>
          </g>
          <g id="Grupo_2427" data-name="Grupo 2427" opacity="0.25">
            <path id="Caminho_1673" data-name="Caminho 1673" d="M2668.157,1364.1l50.088,104.629L1945.26,1235.368l-50.066-104.584Z" fill="#fff"/>
          </g>
          <g id="Grupo_2428" data-name="Grupo 2428">
            <path id="Caminho_1674" data-name="Caminho 1674" d="M2281.027,1824.365a107.892,107.892,0,0,1-97.127-61.194l-315.066-658.142a107.6,107.6,0,0,1,50.591-143.5l370.947-177.581a107.594,107.594,0,0,1,143.506,50.589l315.066,658.142a107.6,107.6,0,0,1-50.591,143.506l-370.947,177.58A107.208,107.208,0,0,1,2281.027,1824.365Zm55.746-1021.006a77.305,77.305,0,0,0-33.447,7.647l-370.947,177.58a77.594,77.594,0,0,0-36.484,103.489l315.065,658.142a77.684,77.684,0,0,0,103.492,36.485L2685.4,1609.121a77.595,77.595,0,0,0,36.484-103.491L2406.817,847.488a77.8,77.8,0,0,0-70.044-44.129Z" fill="#390075"/>
          </g>
          <g id="Grupo_2429" data-name="Grupo 2429">
            <path id="Caminho_1675" data-name="Caminho 1675" d="M2280.987,1739.307a22.629,22.629,0,0,1-20.417-12.835L1945.5,1068.328a22.6,22.6,0,0,1,10.62-30.132l370.95-177.581a22.6,22.6,0,0,1,30.139,10.625l315.061,658.138a22.6,22.6,0,0,1-10.627,30.139L2290.7,1737.095l-.005,0A22.459,22.459,0,0,1,2280.987,1739.307Zm3.24-15.742h0Zm-308.464-661.509,308.667,644.78,357.588-171.184-308.667-644.78Z" fill="#390075"/>
          </g>
        </g>
        <g id="Grupo_2440" data-name="Grupo 2440">
          <g id="Grupo_2431" data-name="Grupo 2431">
            <path id="Caminho_1676" data-name="Caminho 1676" d="M2661.823,789.457l163.358,711.18a92.59,92.59,0,0,1-69.52,110.98l-400.812,92.066a92.59,92.59,0,0,1-110.98-69.519l-163.358-711.18a92.537,92.537,0,0,1,69.531-110.931l400.812-92.067A92.579,92.579,0,0,1,2661.823,789.457Z" fill="#fff"/>
            <path id="Caminho_1677" data-name="Caminho 1677" d="M2333.927,1708.569a95.178,95.178,0,0,1-92.5-73.847l-163.357-711.18a95.035,95.035,0,0,1,71.409-113.925l400.81-92.068a95.187,95.187,0,0,1,113.965,71.35l163.357,711.179a95.087,95.087,0,0,1-71.4,113.975l-400.81,92.065A95.811,95.811,0,0,1,2333.927,1708.569ZM2571.6,720.124a90.139,90.139,0,0,0-20.188,2.3L2150.6,814.49a90.035,90.035,0,0,0-67.654,107.934L2246.3,1633.6a90.09,90.09,0,0,0,107.986,67.641l400.81-92.065a90.09,90.09,0,0,0,67.642-107.984L2659.386,790.017A90.227,90.227,0,0,0,2571.6,720.124Z" fill="#390075"/>
          </g>
          <g id="Grupo_2432" data-name="Grupo 2432" opacity="0.3">
            <path id="Caminho_1678" data-name="Caminho 1678" d="M2661.823,789.457l163.358,711.18a92.59,92.59,0,0,1-69.52,110.98l-400.812,92.066a92.482,92.482,0,0,1-91.438-30.453,91.8,91.8,0,0,0,48.3,1.886l400.86-92.078a92.579,92.579,0,0,0,69.471-110.969L2618.682,760.89a91.8,91.8,0,0,0-19.542-39.067A92.456,92.456,0,0,1,2661.823,789.457Z" fill="#390075"/>
          </g>
          <g id="Grupo_2433" data-name="Grupo 2433" opacity="0.75">
            <path id="Caminho_1679" data-name="Caminho 1679" d="M2631.809,739.867a92.379,92.379,0,0,0-44.487-.708l-400.813,92.066a92.59,92.59,0,0,0-69.519,110.98l163.346,711.131a91.976,91.976,0,0,0,30.074,49.627,92.588,92.588,0,0,1-66.541-68.8l-163.358-711.18a92.578,92.578,0,0,1,69.531-110.931l400.812-92.067A92.483,92.483,0,0,1,2631.809,739.867Z" fill="#fff"/>
          </g>
          <g id="Grupo_2434" data-name="Grupo 2434">
            <path id="Caminho_1680" data-name="Caminho 1680" d="M2335.8,1620.827a7.6,7.6,0,0,1-9.1-5.7l-163.35-711.149a7.6,7.6,0,0,1,5.7-9.1l400.824-92.069a7.6,7.6,0,0,1,9.1,5.7l163.351,711.148a7.606,7.606,0,0,1-5.7,9.1Z" fill="#f9195a"/>
          </g>
          <g id="Grupo_2435" data-name="Grupo 2435" opacity="0.25">
            <path id="Caminho_1681" data-name="Caminho 1681" d="M2730.241,1114.083l36.11,157.206L2076.686,881.953a92.544,92.544,0,0,1,68.356-64.9l41.908-9.627Z" fill="#fff"/>
          </g>
          <g id="Grupo_2436" data-name="Grupo 2436" opacity="0.25">
            <path id="Caminho_1682" data-name="Caminho 1682" d="M2740.671,1618.911l-172.264,39.569-373.529-210.829-36.1-157.157Z" fill="#fff"/>
          </g>
          <g id="Grupo_2437" data-name="Grupo 2437" opacity="0.25">
            <path id="Caminho_1683" data-name="Caminho 1683" d="M2787.9,1365.1l25.969,113.056-703.153-396.909-25.958-113.007Z" fill="#fff"/>
          </g>
          <g id="Grupo_2438" data-name="Grupo 2438">
            <path id="Caminho_1684" data-name="Caminho 1684" d="M2333.9,1721.06a107.7,107.7,0,0,1-104.656-83.548l-163.35-711.15a107.585,107.585,0,0,1,80.777-128.947l400.825-92.071a107.595,107.595,0,0,1,128.948,80.777l163.349,711.15a107.585,107.585,0,0,1-80.776,128.947l-400.825,92.071A108.477,108.477,0,0,1,2333.9,1721.06Zm237.829-988.474a78.149,78.149,0,0,0-17.519,2l-400.826,92.07a77.59,77.59,0,0,0-58.252,92.993L2258.48,1630.8a77.6,77.6,0,0,0,93,58.252l400.825-92.07a77.589,77.589,0,0,0,58.252-92.993L2647.2,792.834a77.673,77.673,0,0,0-75.476-60.248Z" fill="#390075"/>
          </g>
          <g id="Grupo_2439" data-name="Grupo 2439">
            <path id="Caminho_1685" data-name="Caminho 1685" d="M2334.068,1636.028a22.63,22.63,0,0,1-21.982-17.544l-163.352-711.15a22.621,22.621,0,0,1,16.96-27.078l400.828-92.067a22.6,22.6,0,0,1,27.078,16.957L2756.949,1516.3a22.605,22.605,0,0,1-16.96,27.078l-400.828,92.07h0A22.8,22.8,0,0,1,2334.068,1636.028ZM2179.63,907.837l160.037,696.714,386.386-88.755L2566.019,819.084Z" fill="#390075"/>
          </g>
        </g>
        <g id="Grupo_2457" data-name="Grupo 2457">
          <g id="Grupo_2441" data-name="Grupo 2441">
            <path id="Caminho_1686" data-name="Caminho 1686" d="M2738.875,1861.534l-404.469-74.446a92.594,92.594,0,0,1-74.3-107.825l132.083-717.615a92.594,92.594,0,0,1,107.826-74.3l404.468,74.446a92.594,92.594,0,0,1,74.3,107.826L2846.7,1787.231A92.593,92.593,0,0,1,2738.875,1861.534Z" fill="#fff"/>
            <path id="Caminho_1687" data-name="Caminho 1687" d="M2755.839,1865.588a96.162,96.162,0,0,1-17.415-1.6l-404.47-74.446a95.091,95.091,0,0,1-76.309-110.735L2389.728,961.2a95.089,95.089,0,0,1,110.734-76.308l404.471,74.445a95.09,95.09,0,0,1,76.308,110.735l-132.082,717.615a95.153,95.153,0,0,1-93.32,77.905Zm-272.63-977.28a90.238,90.238,0,0,0-88.564,73.792l-132.083,717.614a90.091,90.091,0,0,0,72.295,104.915l404.47,74.446a90.1,90.1,0,0,0,104.915-72.295l132.082-717.615a90.09,90.09,0,0,0-72.295-104.914L2499.559,889.8A90.222,90.222,0,0,0,2483.209,888.308Z" fill="#390075"/>
          </g>
          <g id="Grupo_2442" data-name="Grupo 2442" opacity="0.25">
            <path id="Caminho_1688" data-name="Caminho 1688" d="M2919.431,1392.11l-29.2,158.635-478.7-630.926a92.541,92.541,0,0,1,88.489-32.468l42.289,7.783Z" fill="#fff"/>
          </g>
          <g id="Grupo_2450" data-name="Grupo 2450">
            <g id="Grupo_2443" data-name="Grupo 2443">
              <path id="Caminho_1689" data-name="Caminho 1689" d="M2711.42,1400.715l-90.431,99.047a16.969,16.969,0,0,1-28.316-5.212L2543.435,1369.8a16.972,16.972,0,0,1,3.268-17.689l90.368-98.709a16.97,16.97,0,0,1,28.293,5.207l49.3,124.416A16.973,16.973,0,0,1,2711.42,1400.715Z" fill="#f9195a"/>
            </g>
            <g id="Grupo_2444" data-name="Grupo 2444">
              <path id="Caminho_1690" data-name="Caminho 1690" d="M2473.878,1148.272l-30.277,33.162a6.3,6.3,0,0,1-10.513-1.936L2416.6,1137.73a6.3,6.3,0,0,1,1.214-6.567l30.255-33.049a6.3,6.3,0,0,1,10.5,1.934l16.506,41.655A6.3,6.3,0,0,1,2473.878,1148.272Z" fill="#f9195a"/>
            </g>
            <g id="Grupo_2446" data-name="Grupo 2446">
              <g id="Grupo_2445" data-name="Grupo 2445">
                <path id="Caminho_1691" data-name="Caminho 1691" d="M2465.979,1074.681l-.856-8.769a3.8,3.8,0,0,0-3.1-3.373l-13.1-2.412a3.806,3.806,0,0,0-4.068,1.993l-4.13,7.974a3.807,3.807,0,0,1-4.069,1.993l-9.544-1.757a3.805,3.805,0,0,1-2.684-5.505l30.7-58.754a3.807,3.807,0,0,1,4.062-1.98l17.137,3.154a3.805,3.805,0,0,1,3.088,3.28l8.074,65.89a3.805,3.805,0,0,1-4.466,4.206l-13.946-2.567A3.807,3.807,0,0,1,2465.979,1074.681Zm-13.377-29.627,11.289,2.078-1.923-21.283Z" fill="#390075"/>
              </g>
            </g>
            <g id="Grupo_2447" data-name="Grupo 2447">
              <path id="Caminho_1692" data-name="Caminho 1692" d="M2821.735,1611.814l-16.485-41.769a6.3,6.3,0,0,0-10.513-1.935l-30.277,33.162a6.3,6.3,0,0,0-1.2,6.568l16.506,41.656a6.3,6.3,0,0,0,10.5,1.933l30.256-33.049A6.3,6.3,0,0,0,2821.735,1611.814Z" fill="#f9195a"/>
            </g>
            <g id="Grupo_2449" data-name="Grupo 2449">
              <g id="Grupo_2448" data-name="Grupo 2448">
                <path id="Caminho_1693" data-name="Caminho 1693" d="M2792.249,1675.72l13.946,2.567a3.807,3.807,0,0,1,2.676,5.521l-31.006,58.7a3.8,3.8,0,0,1-4.054,1.965l-17.136-3.154a3.806,3.806,0,0,1-3.091-3.3l-7.77-65.835a3.806,3.806,0,0,1,4.468-4.189l9.545,1.757a3.8,3.8,0,0,1,3.092,3.31l1.021,8.923a3.8,3.8,0,0,0,3.092,3.31l13.1,2.412a3.806,3.806,0,0,0,4.1-2.049l3.923-7.89A3.807,3.807,0,0,1,2792.249,1675.72Zm-25.232,46.253,9.374-19.2-11.289-2.078Z" fill="#390075"/>
              </g>
            </g>
          </g>
          <g id="Grupo_2451" data-name="Grupo 2451" opacity="0.25">
            <path id="Caminho_1694" data-name="Caminho 1694" d="M2728.793,1859.675l-173.83-31.995L2295.68,1486l29.189-158.586Z" fill="#fff"/>
          </g>
          <g id="Grupo_2452" data-name="Grupo 2452" opacity="0.3">
            <path id="Caminho_1695" data-name="Caminho 1695" d="M2976.135,1068.5l-132.08,717.6a92.59,92.59,0,0,1-107.833,74.308l-404.456-74.444a92.593,92.593,0,0,1-71.1-61.74,92.2,92.2,0,0,0,47.477,24.347l404.456,74.444a92.589,92.589,0,0,0,107.832-74.308l132.08-717.6a91.916,91.916,0,0,0-3.209-46.093A92.6,92.6,0,0,1,2976.135,1068.5Z" fill="#390075"/>
          </g>
          <g id="Grupo_2453" data-name="Grupo 2453" opacity="0.75">
            <path id="Caminho_1696" data-name="Caminho 1696" d="M2972.83,1016.364a91.668,91.668,0,0,0-43.46-20.76l-404.505-74.453a92.622,92.622,0,0,0-107.833,74.308l-132.08,717.6a92.426,92.426,0,0,0,5.909,53.249,92.558,92.558,0,0,1-30.75-87.054l132.08-717.6a92.59,92.59,0,0,1,107.833-74.308l404.456,74.443A92.462,92.462,0,0,1,2972.83,1016.364Z" fill="#fff"/>
          </g>
          <g id="Grupo_2454" data-name="Grupo 2454">
            <path id="Caminho_1697" data-name="Caminho 1697" d="M2755.865,1878.093a108.689,108.689,0,0,1-19.7-1.809v0l-404.47-74.446a107.592,107.592,0,0,1-86.338-125.293l132.08-717.615a107.715,107.715,0,0,1,125.293-86.338l404.47,74.446a107.587,107.587,0,0,1,86.338,125.291l-132.083,717.614a107.663,107.663,0,0,1-105.586,88.147ZM2483.214,900.808a77.72,77.72,0,0,0-76.277,63.555l-132.082,717.615a77.588,77.588,0,0,0,62.265,90.356l404.47,74.448a77.68,77.68,0,0,0,90.357-62.265L2964.029,1066.9a77.587,77.587,0,0,0-62.263-90.357L2497.3,902.1A77.6,77.6,0,0,0,2483.214,900.808Z" fill="#390075"/>
          </g>
          <g id="Grupo_2455" data-name="Grupo 2455">
            <path id="Caminho_1698" data-name="Caminho 1698" d="M2477.465,967.927c35.523,3.315,70.839,7.759,106.032,12.88,35.216,4.988,70.259,10.918,105.277,16.984l26.269,4.524,26.205,4.865,52.386,9.862,104.745,19.872a10.071,10.071,0,0,1,8.035,11.66l-21.972,122.194c-7.125,40.768-14.571,81.476-22.03,122.182l-11.8,60.946c-3.946,20.313-7.862,40.632-12.213,60.871-8.673,40.483-18.082,80.83-30.084,120.7a1.677,1.677,0,0,1-3.279-.6c2.981-41.53,8.553-82.583,14.863-123.5,3.141-20.461,6.715-40.843,10.261-61.23l10.671-61.155c7.524-40.694,15.06-81.387,22.917-122.019l22.976-122.009,8.034,11.659L2789.8,1037.882l-52.465-9.437-26.221-4.783-26.157-5.126c-34.883-6.8-69.741-13.735-104.425-21.613-34.709-7.746-69.293-16.167-103.671-25.718a1.673,1.673,0,0,1,.6-3.278Z" fill="#390075"/>
          </g>
          <g id="Grupo_2456" data-name="Grupo 2456">
            <path id="Caminho_1699" data-name="Caminho 1699" d="M2433.843,1214.131c-7.7,82.72-21.463,164.324-35.914,245.8-7.431,40.7-15.334,81.316-23.067,121.96l-11.444,61-11.019,61.076-8.214-11.922,104.967,18.672c34.936,6.509,69.971,12.478,104.815,19.486,34.878,6.83,69.806,13.388,104.523,21.089s69.314,16.051,103.547,26.378a1.677,1.677,0,0,1-.6,3.278c-35.666-2.539-70.968-7.067-106.153-12.221s-70.158-11.472-105.181-17.508c-35.056-5.857-69.922-12.754-104.886-19.11l-104.736-19.927-.1-.018a10.18,10.18,0,0,1-8.119-11.9l11.45-61,11.023-61.073c7.246-40.737,14.322-81.5,21.87-122.181,15.506-81.284,31.7-162.44,53.958-242.48a1.674,1.674,0,0,1,3.279.6Z" fill="#390075"/>
          </g>
        </g>
        <g id="Grupo_2458" data-name="Grupo 2458">
          <path id="Caminho_1700" data-name="Caminho 1700" d="M2541.094,1949.411c-52.523,77.794-122.155,148.056-201.923,213.778-7.072,5.811-14.193,11.627-21.373,17.348a315.3,315.3,0,0,1-66.993,16.757,278.611,278.611,0,0,1-113.323-8.18c-58.189-16.2-111.926-49.66-163.647-90.8,87.239-52.432,171.591-116.991,253.7-191.229,101.135-91.408,186.166-199.135,253.094-317.914a88.136,88.136,0,0,1,68.6-44.643,87.248,87.248,0,0,1,70.4,25.059,129.749,129.749,0,0,1,33.427,55.026C2674.536,1694.664,2644.188,1798.535,2541.094,1949.411Z" fill="#fff"/>
        </g>
        <g id="Grupo_2459" data-name="Grupo 2459" opacity="0.75">
          <path id="Caminho_1701" data-name="Caminho 1701" d="M2616.264,1566.448a88.606,88.606,0,0,0-90.667,44.023c-66.928,118.779-151.959,226.506-253.094,317.914-68.312,61.766-138.179,116.831-209.969,163.787a90.917,90.917,0,0,1-88.7,6.141h0c87.239-52.432,171.591-116.991,253.7-191.229,101.135-91.408,186.166-199.135,253.094-317.914a88.136,88.136,0,0,1,68.6-44.643A87.049,87.049,0,0,1,2616.264,1566.448Z" fill="#fff"/>
        </g>
        <g id="Grupo_2460" data-name="Grupo 2460">
          <path id="Caminho_1702" data-name="Caminho 1702" d="M1972.556,2096.169q40.806-30.351,80.265-61.707,39.382-31.547,77.431-64.438c25.263-22.043,51.729-42.645,76.849-64.926,25.18-22.144,49.17-45.264,72.322-69.375A1246.238,1246.238,0,0,0,2405.864,1680.5q28.452-41.26,53.617-84.671c4.252-7.285,7.892-14.109,13.745-22.839a143.325,143.325,0,0,1,9.315-11.515l5.363-5.138a44.011,44.011,0,0,1,5.635-4.821,102.716,102.716,0,0,1,54.236-21.787c9.819-1.244,19.764-.287,29.514,1.238,9.639,2.15,19.239,5.034,27.931,9.856,8.926,4.38,16.764,10.6,24,17.253a150.429,150.429,0,0,1,18.283,21.4,144.862,144.862,0,0,1,22.685,51.336c4.325,18.22,4.983,36.781,3.8,54.8-2.558,36.161-12.923,70.209-25.778,102.463-12.947,32.311-28.773,63.02-45.958,92.726-17.158,29.787-35.827,58.334-55.3,86.489a855.868,855.868,0,0,1-63.978,80.9c-45.786,51.314-96.988,97.138-150.26,139.65a15,15,0,1,1-18.712-23.45l.012-.009c52.378-41.8,102.277-86.514,146.571-136.158a826,826,0,0,0,61.764-78.1c18.983-27.44,37.352-55.533,53.94-84.347,16.664-28.794,31.864-58.364,44.067-88.837,12.162-30.393,21.537-61.958,23.708-93.4,2.391-31.328-3.684-62.378-21.112-86.826a120.639,120.639,0,0,0-14.6-17.089c-5.219-4.7-10.7-9.192-17.019-12.213-6.093-3.463-12.894-5.376-19.685-6.984-6.914-.981-13.968-1.814-20.968-.844a72.713,72.713,0,0,0-38.525,15.451,25.23,25.23,0,0,0-3.979,3.411l-3.813,3.608c-2.21,2.714-4.624,5.28-6.6,8.188l-2.856,4.445c-.927,1.327-2,3.18-3.076,5.079l-6.4,11.109q-25.731,44.368-54.871,86.65a1275.974,1275.974,0,0,1-129.489,158.958c-23.6,24.736-48.566,48.323-73.853,71.17-25.288,22.782-50.45,45.874-77.937,66.124q-41.055,30.555-84.6,57.53a929.462,929.462,0,0,1-89.552,49.143,2.511,2.511,0,0,1-2.575-4.286Z" fill="#390075"/>
        </g>
        <g id="Grupo_2461" data-name="Grupo 2461">
          <path id="Caminho_1703" data-name="Caminho 1703" d="M2146.575,2217.333c30.632-10.1,61.385-19.008,92.071-27.954l91.911-26.637q91.814-26.443,181.247-59.54,44.659-16.6,88.332-35.585l21.759-9.631,21.633-9.9L2665,2037.853c4.025-1.757,8.336-3.692,12.577-5.293,4.4-1.279,8.688-2.97,13.2-3.817a120.373,120.373,0,0,1,54.4.249,117.772,117.772,0,0,1,48.413,24.983c14.03,11.882,24.488,28.051,30.932,44.808,6.551,16.634,9.344,34.409,9.668,51.92a189.372,189.372,0,0,1-7.118,51.507,215.27,215.27,0,0,1-19.915,47.294c-16.767,29.739-39.574,55.4-65.36,76.824-25.733,21.613-54.681,38.8-84.859,52.708-15.17,6.826-30.656,12.74-45.957,18.148-7.624,2.867-15.431,5.342-23.227,7.833-7.763,2.608-15.643,4.785-23.5,7.048-62.944,17.853-127.905,27.588-193.077,30.276a802.516,802.516,0,0,1-97.872-2.237,243.776,243.776,0,0,1-24.556-2.887c-8.047-1.315-15.95-3.126-23.816-5.109-15.682-4.22-31.229-9.195-46.186-17.369a2.474,2.474,0,0,1,.776-4.61l.051-.007c16.606-2.7,32.763-3.066,48.8-2.836,8,.215,15.973.514,23.827,1.115,7.9.566,15.332,1.107,23.283,1.533a827.266,827.266,0,0,0,94.193-.018,910.121,910.121,0,0,0,185.847-29.363c7.555-2.087,15.142-4.087,22.59-6.5,7.482-2.321,14.991-4.539,22.406-7.2,14.987-5.015,29.53-10.31,43.684-16.387,28.157-12.433,55.079-27.769,78.713-47.084,23.606-19.246,44.206-42.135,59.171-68.132,14.961-25.862,24.248-55.112,23.85-84.2-.372-14.45-2.705-28.824-8.013-42-5.16-13-12.677-24.521-23.2-33.361a88.027,88.027,0,0,0-36.291-18.43,91.056,91.056,0,0,0-40.826.332c-3.375.63-6.54,2.035-9.832,2.962-3.215,1.291-6.2,2.691-9.508,4.141l-21.774,10.7c-14.592,6.974-29.239,13.831-44.044,20.332q-44.4,19.521-89.809,36.494c-60.506,22.676-122.358,41.42-184.795,57.349-31.267,7.8-62.731,14.76-94.488,20.156a958.157,958.157,0,0,1-95.871,12.21,2.363,2.363,0,0,1-.907-4.6Z" fill="#390075"/>
        </g>
        <g id="Grupo_2462" data-name="Grupo 2462">
          <ellipse id="Elipse_90" data-name="Elipse 90" cx="77.462" cy="19.795" rx="77.462" ry="19.795" transform="matrix(0.849, -0.528, 0.528, 0.849, 1759.66, 2212.975)" fill="#390075"/>
        </g>
        <g id="Grupo_2463" data-name="Grupo 2463">
          <ellipse id="Elipse_91" data-name="Elipse 91" cx="73.033" cy="16.138" rx="73.033" ry="16.138" transform="matrix(0.603, -0.798, 0.798, 0.603, 1676.368, 2137.893)" fill="#390075"/>
        </g>
        <g id="Grupo_2464" data-name="Grupo 2464">
          <ellipse id="Elipse_92" data-name="Elipse 92" cx="80.966" cy="16.138" rx="80.966" ry="16.138" transform="translate(1872.516 2289.389) rotate(-17.623)" fill="#390075"/>
        </g>
        <g id="Grupo_2465" data-name="Grupo 2465" opacity="0.3">
          <path id="Caminho_1704" data-name="Caminho 1704" d="M2541.094,1949.411c-52.523,77.794-122.155,148.056-201.923,213.778-28.269,12.04-59.558,24.524-88.366,34.1-23.217,7.681-44.7,13.536-61.718,15.742-47.719,6.243-53.732-10.655-51.6-23.922a44.187,44.187,0,0,1,5.185-14.369c320.2-195.948,517.054-471.76,461.141-617.587l49.253,67.454C2674.536,1694.664,2644.188,1798.535,2541.094,1949.411Z" fill="#390075"/>
        </g>
        <g id="Grupo_2466" data-name="Grupo 2466" opacity="0.3">
          <path id="Caminho_1705" data-name="Caminho 1705" d="M2619.478,2377.186c-118.405,43.956-250.75,56.111-355.059,47.1-31.675,186.387-200.108,314.173-491.982,266.021,11.935-80.883-3.2-159.136-35.522-228.084,99.313,117.347,250.379,89.508,340.1,41.407,31.516-16.877,50.355-51.511,45.31-86.889-8.6-60.552,52.288-68.326,52.288-68.326l12.614-.472q37.534-1.461,73.479-3.773c312.3-20.3,527.7-91.759,523.219-279.556l.214.131a96,96,0,0,1,25.132,34.28C2846.9,2185.4,2787,2317.608,2619.478,2377.186Z" fill="#390075"/>
        </g>
        <g id="Grupo_2467" data-name="Grupo 2467" opacity="0.3">
          <path id="Caminho_1706" data-name="Caminho 1706" d="M2206.3,1775.571a72.023,72.023,0,0,1,2.84,8.534c9.59,34.862-3.855,72.011-32.864,93.593l-162.416,120.833a80.532,80.532,0,0,0-31.035,79.7l2.5,13.1,132.418-96.166L2310.8,1819.421l-46.534-8.875Z" fill="#390075"/>
        </g>
        <g id="Grupo_2468" data-name="Grupo 2468" opacity="0.3">
          <path id="Caminho_1707" data-name="Caminho 1707" d="M1982.5,1887.085l.4,4.081-110.038,74.741c-49.614,19.84-74.867,14.306-78.909-13.332-2.947-20.511,8.373-40.5,26.788-50.025,42.082-21.872,65.313-80.594,76.149-163.48a285.763,285.763,0,0,1,9.491,37.709c.34,64.519,11.52,115.477,54.1,126.612Z" fill="#390075"/>
        </g>
        <g id="Grupo_2469" data-name="Grupo 2469" opacity="0.25">
          <path id="Caminho_1708" data-name="Caminho 1708" d="M1314.833,2607.033c-1.926,27.271-60.429,45.356-130.67,40.4s-125.622-31.089-123.7-58.359,58.826-22.662,129.068-17.7S1316.759,2579.763,1314.833,2607.033Z" fill="#fff"/>
        </g>
        <g id="Grupo_2470" data-name="Grupo 2470" opacity="0.25">
          <ellipse id="Elipse_93" data-name="Elipse 93" cx="42.5" cy="33.125" rx="42.5" ry="33.125" transform="translate(1355.811 2568.098) rotate(-16.075)" fill="#fff"/>
        </g>
        <g id="Grupo_2471" data-name="Grupo 2471" opacity="0.55">
          <path id="Caminho_1709" data-name="Caminho 1709" d="M1640.222,2480.552c-16.508,12.23-30-11.594-53.011-42.658s-46.839-57.6-30.331-69.833,48.548,3.037,71.562,34.1S1656.731,2468.321,1640.222,2480.552Z" fill="#fff"/>
        </g>
        <g id="Grupo_2472" data-name="Grupo 2472" opacity="0.55">
          <path id="Caminho_1710" data-name="Caminho 1710" d="M1871.662,2441.443c-6.174-26.275,29.583-30.163,79.024-41.779s93.845-26.563,100.018-.288-28.9,56.992-78.343,68.609S1877.835,2467.718,1871.662,2441.443Z" fill="#fff"/>
        </g>
      </g>
    </g>
  </g>
</svg>
