<svg xmlns="http://www.w3.org/2000/svg" width="587" height="587" viewBox="0 0 587 587">
  <g id="Grupo_112" data-name="Grupo 112" transform="translate(0 -0.324)">
    <g id="Grupo_2" data-name="Grupo 2" transform="translate(0 0.324)">
      <g id="Grupo_1" data-name="Grupo 1">
        <rect id="Retângulo_1" data-name="Retângulo 1" width="587" height="587" fill="#95c4fc"/>
      </g>
    </g>
    <g id="Grupo_111" data-name="Grupo 111" transform="translate(123.135 82.055)">
      <g id="Grupo_3" data-name="Grupo 3" transform="translate(57.882 399.258)" opacity="0.3">
        <ellipse id="Elipse_1" data-name="Elipse 1" cx="122" cy="22" rx="122" ry="22" transform="translate(-0.018 0.01)" fill="#371a45"/>
      </g>
      <g id="Grupo_110" data-name="Grupo 110">
        <g id="Grupo_4" data-name="Grupo 4" transform="translate(2.428 124.414)">
          <path id="Caminho_1" data-name="Caminho 1" d="M990.3,1466.238l-11.473,36.341c-17.595,4.97-61.63-2.931-92-23.865-13.1-9.021-23.652-20.468-28.453-34.349-14.049-40.606,22.273-43.078,36.257-34.258,10.878,6.859,18.9,15.984,28.706,25C937.41,1448.048,955.161,1460.764,990.3,1466.238Z" transform="translate(-855.199 -1405.938)" fill="#fff"/>
        </g>
        <g id="Grupo_5" data-name="Grupo 5" transform="translate(2.427 132.032)" opacity="0.35">
          <path id="Caminho_2" data-name="Caminho 2" d="M982.734,1534.459l-3.915,12.392c-17.595,4.97-61.63-2.931-92-23.865-13.1-9.021-23.652-20.468-28.453-34.348-5.209-15.058-3.494-24.868,1.443-30.809-.291,4.969.615,11,3.119,18.242q.11.318.236.648c3.971,10.367,17.353,13.14,25.375,5.466,1.55-1.482,2.6-2.226,2.6-1.534.083,13.867-4.321,24.767.241,29.768C915.938,1537.34,964.726,1539.06,982.734,1534.459Z" transform="translate(-855.193 -1457.829)" fill="#371a45"/>
        </g>
        <g id="Grupo_6" data-name="Grupo 6" transform="translate(34.054 153.581)">
          <path id="Caminho_3" data-name="Caminho 3" d="M1174.075,1635.726l-5.287,16.74-6.186,19.6a45.947,45.947,0,0,1-11.286,1.424c-21.122.427-55.593-7.972-80.714-25.289,20.591-10.224,31.391-30.382,36.51-43.609a117.163,117.163,0,0,0,23.49,17.258,121.8,121.8,0,0,0,32.413,11.8Q1168.239,1634.814,1174.075,1635.726Z" transform="translate(-1070.603 -1604.594)" fill="#4a83ff"/>
        </g>
        <g id="Grupo_7" data-name="Grupo 7" transform="translate(34.054 184.267)" opacity="0.35">
          <path id="Caminho_4" data-name="Caminho 4" d="M1174.075,1814.039,1162.6,1850.38c-17.595,4.97-61.63-2.931-92-23.865a61.162,61.162,0,0,0,9-5.494,161.976,161.976,0,0,0,49.7,17.875,37.076,37.076,0,0,0,42.063-25.3h0C1172.257,1813.747,1173.156,1813.9,1174.075,1814.039Z" transform="translate(-1070.603 -1813.592)" fill="#371a45"/>
        </g>
        <g id="Grupo_8" data-name="Grupo 8" transform="translate(0 122.004)">
          <path id="Caminho_5" data-name="Caminho 5" d="M951.7,1492.474c-16.905,0-39.96-5.29-59.714-14.242a132.542,132.542,0,0,1-20.643-11.544c-14.867-10.239-24.744-22.2-29.355-35.539-7.229-20.9-1.3-31.188,4.945-36.143,9.639-7.645,25.818-6.662,34.881-.945,8.174,5.158,14.651,11.434,21.508,18.08,2.44,2.364,4.963,4.809,7.581,7.214a126.658,126.658,0,0,0,14.038,11.367c14.149,9.767,30.553,15.844,51.625,19.126a2.414,2.414,0,1,1-.743,4.77c-21.817-3.4-38.856-9.728-53.623-19.922a131.279,131.279,0,0,1-14.564-11.787c-2.664-2.447-5.211-4.915-7.674-7.3-6.672-6.466-12.975-12.573-20.724-17.464-7.506-4.735-21.39-5.635-29.306.644-7.2,5.714-8.373,16.359-3.382,30.783,4.267,12.348,13.531,23.5,27.534,33.144a127.685,127.685,0,0,0,19.894,11.12c27.413,12.422,57.161,16.069,70.087,12.417a2.414,2.414,0,1,1,1.312,4.646A51.409,51.409,0,0,1,951.7,1492.474Z" transform="translate(-838.664 -1389.523)" fill="#371a45"/>
        </g>
        <g id="Grupo_9" data-name="Grupo 9" transform="translate(37.436 155.487)">
          <path id="Caminho_6" data-name="Caminho 6" d="M1142.337,1630.161c-4.977,18.413-17.82,31.839-29.193,40.564a6.251,6.251,0,0,1-6.514.672c-3.369-1.621-6.679-3.36-9.894-5.218a6.234,6.234,0,0,1-.413-10.511,71.7,71.7,0,0,0,12.577-11,95.2,95.2,0,0,0,15.727-23.454,6.246,6.246,0,0,1,9.661-2.193c1.818,1.512,3.708,3.007,5.69,4.477A6.277,6.277,0,0,1,1142.337,1630.161Z" transform="translate(-1093.639 -1617.576)" fill="#fff"/>
        </g>
        <g id="Grupo_10" data-name="Grupo 10" transform="translate(37.437 178.514)" opacity="0.35">
          <path id="Caminho_7" data-name="Caminho 7" d="M1138.483,1774.411c-6.193,13.149-16.236,23.141-25.334,30.123a6.25,6.25,0,0,1-6.516.673c-3.365-1.624-6.678-3.365-9.894-5.222a6.235,6.235,0,0,1-.414-10.509c1.45-1,2.9-2.077,4.329-3.229a6.139,6.139,0,0,0,2.537,2.8c3.216,1.857,6.529,3.591,9.894,5.216a6.249,6.249,0,0,0,6.516-.673A92.049,92.049,0,0,0,1138.483,1774.411Z" transform="translate(-1093.643 -1774.411)" fill="#371a45"/>
        </g>
        <g id="Grupo_11" data-name="Grupo 11" transform="translate(35.023 153.071)">
          <path id="Caminho_8" data-name="Caminho 8" d="M1095.325,1660.4a8.683,8.683,0,0,1-3.767-.864c-3.476-1.673-6.859-3.457-10.055-5.3a8.648,8.648,0,0,1-.578-14.587,69.425,69.425,0,0,0,12.155-10.631,92.852,92.852,0,0,0,15.332-22.856,8.659,8.659,0,0,1,13.393-3.032c1.9,1.575,3.722,3.013,5.585,4.394a8.643,8.643,0,0,1,3.252,9.234h0c-5.3,19.6-19.267,33.573-30.054,41.849A8.632,8.632,0,0,1,1095.325,1660.4Zm20.963-54.446a3.853,3.853,0,0,0-3.5,2.239,97.645,97.645,0,0,1-16.121,24.052,74.312,74.312,0,0,1-13,11.374,3.82,3.82,0,0,0,.248,6.436c3.092,1.786,6.367,3.513,9.734,5.133a3.82,3.82,0,0,0,4-.412c10.2-7.822,23.388-20.986,28.332-39.278h0a3.843,3.843,0,0,0-1.468-4.1c-1.934-1.435-3.83-2.926-5.795-4.559A3.792,3.792,0,0,0,1116.288,1605.949Zm12.025,10.172h0Z" transform="translate(-1077.201 -1601.119)" fill="#371a45"/>
        </g>
        <g id="Grupo_12" data-name="Grupo 12" transform="translate(229.336 165.652)">
          <path id="Caminho_9" data-name="Caminho 9" d="M2451.055,1821.977c-13.881,18.1-50.024,11.824-50.024,11.824l-.316-122.292-.064-24.7s20.618.548,36.285,7.021c7.55,3.114,13.945,7.608,16.337,14.074C2461.6,1730.374,2462.461,1807.1,2451.055,1821.977Z" transform="translate(-2400.651 -1686.81)" fill="#fff"/>
        </g>
        <g id="Grupo_13" data-name="Grupo 13" transform="translate(229.34 165.657)" opacity="0.35">
          <path id="Caminho_10" data-name="Caminho 10" d="M2459.532,1758.953c.485,26.816-2.052,54.693-8.455,63.046-13.88,18.1-50.028,11.826-50.028,11.826l-.374-146.986s.384.008,1.089.047l.29,114.6s36.148,6.272,50.027-11.826C2455.839,1784.76,2458.266,1773.137,2459.532,1758.953Z" transform="translate(-2400.675 -1686.84)" fill="#371a45"/>
        </g>
        <g id="Grupo_14" data-name="Grupo 14" transform="translate(226.925 163.238)">
          <path id="Caminho_11" data-name="Caminho 11" d="M2401.246,1823.269a92.832,92.832,0,0,1-14.637-1.115,2.414,2.414,0,0,1,.823-4.756c.347.06,34.877,5.8,47.7-10.917,10.567-13.778,10.335-88.922,1.87-111.76-6.719-18.132-49.986-19.512-50.423-19.524a2.414,2.414,0,0,1,.13-4.826c1.914.051,46.971,1.495,54.819,22.672,4.033,10.883,6.622,35.292,6.441,60.738-.1,13.321-1.163,45.409-9.008,55.638C2430.142,1820.918,2413.432,1823.269,2401.246,1823.269Z" transform="translate(-2384.231 -1670.37)" fill="#371a45"/>
        </g>
        <g id="Grupo_15" data-name="Grupo 15" transform="translate(255.005 249.032)">
          <path id="Caminho_12" data-name="Caminho 12" d="M2606.021,2254.714l-24.633,1.85a4.838,4.838,0,0,0-4.4,3.959c-1.437,7.947-3.805,26.474,3.925,32.592,6.416,5.078,16.833,4.482,22.937-.684,6.828-5.779,7.5-23.95,7.385-32.945A4.843,4.843,0,0,0,2606.021,2254.714Z" transform="translate(-2575.482 -2254.7)" fill="#fff"/>
        </g>
        <g id="Grupo_16" data-name="Grupo 16" transform="translate(255.005 253.175)" opacity="0.35">
          <path id="Caminho_13" data-name="Caminho 13" d="M2576.984,2284.6c-1.442,7.944-3.806,26.472,3.925,32.587,6.417,5.08,16.831,4.484,22.939-.684,4.2-3.557,6.065-11.8,6.855-19.708a20.678,20.678,0,0,1-5.019,9.266c-12.416,12.063-21.684-2.16-21.684-2.16s-1.609,3.454-2.89,3.649c-5.361.818-4.252-15.963-3.477-24.633A4.682,4.682,0,0,0,2576.984,2284.6Z" transform="translate(-2575.481 -2282.917)" fill="#371a45"/>
        </g>
        <g id="Grupo_17" data-name="Grupo 17" transform="translate(252.585 246.619)">
          <path id="Caminho_14" data-name="Caminho 14" d="M2577.7,2285.03a19.924,19.924,0,0,1-12.352-4.043c-8.462-6.7-6.64-24.749-4.8-34.914a7.253,7.253,0,0,1,6.6-5.936l24.634-1.849h0a7.255,7.255,0,0,1,7.8,7.147c.155,12.572-1.149,28.817-8.238,34.817A21.237,21.237,0,0,1,2577.7,2285.03Zm14.44-41.93-24.634,1.85a2.426,2.426,0,0,0-2.209,1.982c-2.76,15.259-1.621,26.574,3.047,30.269,5.359,4.242,14.464,3.95,19.881-.635,4.283-3.625,6.725-15.241,6.53-31.073a2.43,2.43,0,0,0-2.614-2.394Z" transform="translate(-2558.995 -2238.267)" fill="#371a45"/>
        </g>
        <g id="Grupo_18" data-name="Grupo 18" transform="translate(263.059 267.936)">
          <path id="Caminho_15" data-name="Caminho 15" d="M2633,2384.625c.274,3.09.259,6.037.461,8.963a44.477,44.477,0,0,0,1.23,8.5,17.262,17.262,0,0,0,3.513,7.108,12.046,12.046,0,0,0,6.406,3.713l.009,0a2.415,2.415,0,1,1-1.12,4.7c-.051-.012-.107-.028-.156-.043a18.251,18.251,0,0,1-4.649-2.162,15.72,15.72,0,0,1-3.783-3.507,21.206,21.206,0,0,1-3.818-8.989,47.874,47.874,0,0,1-.754-9.217c-.013-3.021.186-6.03.112-8.883v-.034a1.278,1.278,0,0,1,2.551-.146Z" transform="translate(-2630.334 -2383.459)" fill="#371a45"/>
        </g>
        <g id="Grupo_19" data-name="Grupo 19" transform="translate(240.857 183.754)">
          <path id="Caminho_16" data-name="Caminho 16" d="M2509.257,1812.2c-2.269.176-4.577.442-6.854.754s-4.556.68-6.814,1.1-4.5.894-6.726,1.433c-2.227.521-4.418,1.151-6.593,1.8l-.041.012a2.417,2.417,0,1,1-1.383-4.633c.075-.022.155-.042.23-.057,2.338-.455,4.674-.881,7.019-1.191q3.513-.495,7.033-.788t7.038-.436c2.351-.088,4.682-.127,7.058-.077a1.04,1.04,0,0,1,.064,2.077Z" transform="translate(-2479.118 -1810.098)" fill="#371a45"/>
        </g>
        <g id="Grupo_20" data-name="Grupo 20" transform="translate(229.336 165.652)" opacity="0.35">
          <path id="Caminho_17" data-name="Caminho 17" d="M2436.936,1693.831a103.882,103.882,0,0,1-36.221,17.678l-.064-24.7S2421.269,1687.358,2436.936,1693.831Z" transform="translate(-2400.651 -1686.81)" fill="#371a45"/>
        </g>
        <g id="Grupo_21" data-name="Grupo 21" transform="translate(110.761 268.268)">
          <path id="Caminho_18" data-name="Caminho 18" d="M1663.582,2518.949c-10.535,24.409-55.638,20.39-67.021,10.289-11.661-10.36,9.422-23.289,9.422-23.289-4.407-7.487-6.814-18.152-8.018-29.4a241.711,241.711,0,0,1-.679-36.658c.537-10.736,1.456-18.2,1.456-18.2l66.484-35.979c-.045,13.531-2.31,25.1-4.336,34.375-4.316,19.711-4.038,34.873-2.291,47.258.848,6.012,2.038,11.37,3.223,16.274C1665.161,2497.478,1668.415,2507.741,1663.582,2518.949Z" transform="translate(-1593.045 -2385.716)" fill="#fff"/>
        </g>
        <g id="Grupo_22" data-name="Grupo 22" transform="translate(114.617 268.268)">
          <path id="Caminho_19" data-name="Caminho 19" d="M1681,2467.349c.848,6.012,2.038,11.37,3.223,16.274-29.845,5.235-52.687-2.1-63.856-7.073a241.665,241.665,0,0,1-.68-36.658c.537-10.736,1.456-18.2,1.456-18.2l66.484-35.979c-.045,13.531-2.31,25.1-4.336,34.375C1678.979,2439.8,1679.257,2454.963,1681,2467.349Z" transform="translate(-1619.307 -2385.716)" fill="#4a83ff"/>
        </g>
        <g id="Grupo_23" data-name="Grupo 23" transform="translate(176.991 306.905)" opacity="0.35">
          <path id="Caminho_20" data-name="Caminho 20" d="M2044.866,2648.869q-.4,2.1-.735,4.126Q2044.46,2650.964,2044.866,2648.869Z" transform="translate(-2044.131 -2648.869)" fill="#371a45"/>
        </g>
        <g id="Grupo_24" data-name="Grupo 24" transform="translate(108.349 265.85)">
          <path id="Caminho_21" data-name="Caminho 21" d="M1612.516,2525.508c-13.468,0-26.151-3.7-31.568-8.516-3.163-2.81-4.6-6.072-4.284-9.7.641-7.255,8.357-13.525,12.126-16.177-13.357-26.109-6.749-81.364-6.454-83.763a2.413,2.413,0,1,1,4.79.59c-.072.587-7.057,58.985,6.925,82.733a2.413,2.413,0,0,1-.818,3.282c-3.1,1.908-11.266,8.1-11.762,13.765-.179,2.045.7,3.9,2.683,5.659,6.441,5.721,25.585,9.468,41.566,5.918,7.571-1.682,17.47-5.712,21.635-15.361,4.091-9.479,1.949-18.176-1.014-30.214-3.95-16.044-8.867-36.012-1.822-68.2,2.2-10.044,4.238-21.1,4.279-33.873a2.414,2.414,0,0,1,2.414-2.405h.008a2.414,2.414,0,0,1,2.406,2.421c-.044,13.225-2.136,24.584-4.391,34.889-6.8,31.089-2.037,50.453,1.794,66.011,3.069,12.465,5.493,22.311.759,33.281-3.936,9.119-12.587,15.4-25.02,18.16A66.118,66.118,0,0,1,1612.516,2525.508Z" transform="translate(-1576.62 -2369.251)" fill="#371a45"/>
        </g>
        <g id="Grupo_25" data-name="Grupo 25" transform="translate(113.83 356.891)">
          <path id="Caminho_22" data-name="Caminho 22" d="M1663.076,3001.953c-14.658,0-34.657-1.632-48.2-9.247a1.81,1.81,0,1,1,1.774-3.156c22.191,12.473,64.543,7.94,64.969,7.892a1.81,1.81,0,0,1,.4,3.6A185.753,185.753,0,0,1,1663.076,3001.953Z" transform="translate(-1613.948 -2989.317)" fill="#371a45"/>
        </g>
        <g id="Grupo_26" data-name="Grupo 26" transform="translate(170.424 320.06)">
          <path id="Caminho_23" data-name="Caminho 23" d="M1999.407,2738.471" transform="translate(-1999.407 -2738.471)" fill="none" stroke="#293856" stroke-linecap="round" stroke-linejoin="round" stroke-width="32.877"/>
        </g>
        <g id="Grupo_27" data-name="Grupo 27" transform="translate(155.38 210.212)">
          <path id="Caminho_24" data-name="Caminho 24" d="M1896.941,1990.306" transform="translate(-1896.941 -1990.306)" fill="#32b1d1"/>
        </g>
        <g id="Grupo_28" data-name="Grupo 28" transform="translate(111.302 245.424)" opacity="0.35">
          <path id="Caminho_25" data-name="Caminho 25" d="M1599.438,2230.126c-1.567,14.087-2.476,26.3-2.663,36.485C1596.517,2257.121,1597.439,2244.877,1599.438,2230.126Z" transform="translate(-1596.733 -2230.126)" fill="#371a45"/>
        </g>
        <g id="Grupo_29" data-name="Grupo 29" transform="translate(252.849 245.398)" opacity="0.35">
          <path id="Caminho_26" data-name="Caminho 26" d="M2561.809,2247.52c-.064-5.474-.4-11.347-1.012-17.569A130.935,130.935,0,0,1,2561.809,2247.52Z" transform="translate(-2560.797 -2229.951)" fill="#371a45"/>
        </g>
        <g id="Grupo_30" data-name="Grupo 30" transform="translate(108.111 139.101)">
          <path id="Caminho_27" data-name="Caminho 27" d="M1634.291,1706.871a102.225,102.225,0,0,0,48.271-8.5,62.934,62.934,0,0,0,34.225-36.984c9.264-26.256,2.6-84.307-22.559-150.213l-81.787-5.205c-37.212,71.112-45.477,148.9-30.14,174.487a39.307,39.307,0,0,0,5.375,7.27c8.767,9.052,22.635,14.384,33.857,17.058" transform="translate(-1575 -1505.97)" fill="#fff"/>
        </g>
        <g id="Grupo_31" data-name="Grupo 31" transform="translate(108.116 139.099)">
          <path id="Caminho_28" data-name="Caminho 28" d="M1720.541,1640.458a78.208,78.208,0,0,1-3.727,20.921,62.936,62.936,0,0,1-34.225,36.982,102.159,102.159,0,0,1-48.268,8.5l-12.761-2.084c-11.221-2.673-25.089-8-33.857-17.058a39.322,39.322,0,0,1-5.371-7.274c-9.305-15.524-9.92-50.28-.647-91.106,1.948-8.581,3.34-17.089,6.181-26.083,1.4-4.439,3.894-9.255,5.518-13.759a348.063,348.063,0,0,1,19.083-43.537l81.788,5.209c4.976,13.039,9.234,25.774,12.78,38.011a.049.049,0,0,1,.006.026C1717.6,1585.616,1721.926,1617.661,1720.541,1640.458Z" transform="translate(-1575.034 -1505.957)" fill="#4a83ff"/>
        </g>
        <g id="Grupo_32" data-name="Grupo 32" transform="translate(105.706 205.272)">
          <path id="Caminho_29" data-name="Caminho 29" d="M1572.693,1957.447a17.129,17.129,0,0,1,.094,2.569c-.013.843-.084,1.668-.17,2.488a45.686,45.686,0,0,1-.8,4.837c-.618,3.2-1.461,6.338-2.243,9.5s-1.425,6.348-2.01,9.546c-.6,3.2-1.121,6.4-1.614,9.615a199.931,199.931,0,0,0-2.324,38.729,91.354,91.354,0,0,0,2.723,18.926,42.749,42.749,0,0,0,3.273,8.689,45.064,45.064,0,0,0,2.41,3.97,32.366,32.366,0,0,0,2.806,3.615,50.714,50.714,0,0,0,15.23,10.726q2.142,1.034,4.359,1.931c1.473.606,3.007,1.061,4.531,1.533a42.749,42.749,0,0,1,4.5,1.672,18.325,18.325,0,0,1,2.18,1.148,12.449,12.449,0,0,1,2.106,1.581l.028.027a.914.914,0,0,1-.4,1.537,12.736,12.736,0,0,1-5.22.21,24.681,24.681,0,0,1-4.874-1.306c-1.575-.6-3.113-1.291-4.673-1.929s-3.106-1.319-4.629-2.057a55.362,55.362,0,0,1-16.714-11.835,37.248,37.248,0,0,1-3.223-4.145,49.511,49.511,0,0,1-2.688-4.435,47.444,47.444,0,0,1-3.66-9.675,96.037,96.037,0,0,1-2.883-19.938,204.631,204.631,0,0,1,2.37-39.686c.5-3.269,1.031-6.534,1.642-9.782q.443-2.44.94-4.867l.944-4.867a89.38,89.38,0,0,1,2.253-9.652,28.518,28.518,0,0,1,4.191-9.111.859.859,0,0,1,1.544.4Z" transform="translate(-1558.617 -1956.659)" fill="#371a45"/>
        </g>
        <g id="Grupo_33" data-name="Grupo 33" transform="translate(143.139 136.687)">
          <path id="Caminho_30" data-name="Caminho 30" d="M1844.9,1695.506q-3.536,0-7.239-.254a2.414,2.414,0,0,1,.338-4.815,99.3,99.3,0,0,0,47.121-8.295,60.74,60.74,0,0,0,32.93-35.583c8.115-23,4.424-77.313-21.987-147.1l-80.236-5.107a2.414,2.414,0,1,1,.307-4.818l81.787,5.206a2.414,2.414,0,0,1,2.1,1.548c23.677,62.017,32.751,123.052,22.581,151.877a65.522,65.522,0,0,1-35.521,38.387A104.33,104.33,0,0,1,1844.9,1695.506Z" transform="translate(-1813.568 -1489.53)" fill="#371a45"/>
        </g>
        <g id="Grupo_34" data-name="Grupo 34" transform="translate(164.991 156.732)">
          <path id="Caminho_31" data-name="Caminho 31" d="M1971.878,1811.987q-3.534,0-7.234-.253a2.414,2.414,0,1,1,.338-4.815,99.311,99.311,0,0,0,47.118-8.294,60.737,60.737,0,0,0,32.93-35.58c8.946-25.356,2.21-77.869-17.159-133.782a2.413,2.413,0,0,1,4.561-1.58c19.706,56.882,26.437,110.644,17.151,136.968a65.521,65.521,0,0,1-35.521,38.385A104.371,104.371,0,0,1,1971.878,1811.987Z" transform="translate(-1962.399 -1626.059)" fill="#371a45"/>
        </g>
        <g id="Grupo_35" data-name="Grupo 35" transform="translate(121.399 382.765)">
          <path id="Caminho_32" data-name="Caminho 32" d="M1700.465,3172.345a46.693,46.693,0,0,0-8.124-1.87,42.363,42.363,0,0,0-8.115-.392c-1.338,0-2.659.24-3.971.357-1.3.253-2.608.4-3.875.753-.632.175-1.286.257-1.91.461s-1.252.387-1.884.563a18.759,18.759,0,0,0-1.867.628c-.621.22-1.248.428-1.888.619l-.229.068a2.411,2.411,0,0,1-1.828-4.435,27.81,27.81,0,0,1,8.553-3.033,30.623,30.623,0,0,1,4.521-.511c.756-.026,1.514.013,2.267.026a20.662,20.662,0,0,1,2.25.154,35.3,35.3,0,0,1,8.681,1.954,30.68,30.68,0,0,1,7.761,4.059.347.347,0,0,1-.314.608Z" transform="translate(-1665.501 -3165.544)" fill="#371a45"/>
        </g>
        <g id="Grupo_36" data-name="Grupo 36" transform="translate(110.761 230.227)" opacity="0.35">
          <path id="Caminho_33" data-name="Caminho 33" d="M1736.149,2159.362c-.129,9.213-31.738-38.484-31.738-32.16,0,13.883,4.582,34.676,3.429,53.644-.3,4.873-.757,9.5-1.214,13.637-1.024,9.244-3.522,16.058-8.663,17.934a121.164,121.164,0,0,1-40.155,7.162c-2.622.024-5.328-.032-8.115-.193-11.666-.669-38.817-5.893-50.125-19.187a24.237,24.237,0,0,1-1.865-2.476c-2.495-3.83-3.823-10.374-4.068-19.419-.3,15.235,1.006,25.95,4.068,31.682.042.079.092.154.135.233-.193,2.509-.388,5.416-.547,8.619.129.29.271.568.412.832,6.926,12.973,23.705,20.332,37.356,23.856a18.339,18.339,0,0,1,13.2,13.085c3.963,15.249,11.233,23.056,7.519,34.354-7.595,23.074-46.781,16.215-62.158,7.15-1.148,3.288-.722,6.808,2.953,10.071,11.38,10.1,56.485,14.119,67.019-10.29,6.55-15.177-1.741-28.62-4.984-51.6-.193-1.374-.367-2.779-.522-4.229-.039-.335-.071-.677-.1-1.019-.039-.368-.071-.729-.1-1.1-.039-.419-.071-.845-.109-1.276-.045-.645-.09-1.3-.135-1.967,0-.024,0-.049,0-.073a102.331,102.331,0,0,0,40.337-8.734,62.918,62.918,0,0,0,34.222-36.981C1734.963,2183.043,1736.31,2172.309,1736.149,2159.362Z" transform="translate(-1593.049 -2126.623)" fill="#371a45"/>
        </g>
        <g id="Grupo_37" data-name="Grupo 37" transform="translate(175.21 277.36)">
          <path id="Caminho_34" data-name="Caminho 34" d="M2102.878,2580.873c-10.542,24.415-55.645,20.4-67.021,10.3-11.661-10.36,9.416-23.289,9.416-23.289-7.429-8.684-10.949-20.63-12.4-32.433-2.64-21.451,1.559-42.424,1.559-42.424l70.082-45.382c-.045,13.537-2.3,25.108-4.335,34.387-5.132,23.445-3.766,40.457-1.152,54.02C2102.677,2555.027,2108.76,2567.251,2102.878,2580.873Z" transform="translate(-2032.002 -2447.64)" fill="#fff"/>
        </g>
        <g id="Grupo_38" data-name="Grupo 38" transform="translate(175.21 277.36)">
          <path id="Caminho_35" data-name="Caminho 35" d="M2100.179,2482.027c-5.132,23.445-3.766,40.457-1.152,54.02-40.334,14.126-65.493-.226-66.153-.6-2.64-21.451,1.559-42.424,1.559-42.424l26.66-20.822,43.422-24.56C2104.47,2461.177,2102.211,2472.748,2100.179,2482.027Z" transform="translate(-2032.002 -2447.64)" fill="#4a83ff"/>
        </g>
        <g id="Grupo_39" data-name="Grupo 39" transform="translate(175.641 277.359)" opacity="0.35">
          <path id="Caminho_36" data-name="Caminho 36" d="M2102.684,2482.025c-5.132,23.445-3.766,40.457-1.152,54.02-40.334,14.127-65.494-.226-66.154-.6-.181-1.443-.324-2.886-.44-4.317l.333.093c25.6,7.024,51.466-10.918,53.6-37.374a150.727,150.727,0,0,1,3.064-20.143,195.417,195.417,0,0,0,3.417-19.465l11.667-6.6C2106.974,2461.176,2104.716,2472.746,2102.684,2482.025Z" transform="translate(-2034.938 -2447.638)" fill="#371a45"/>
        </g>
        <g id="Grupo_40" data-name="Grupo 40" transform="translate(175.548 269.04)" opacity="0.35">
          <path id="Caminho_37" data-name="Caminho 37" d="M2102.142,2433.817c-12.308,56.252,12.778,75.491,2.7,98.856-10.535,24.409-55.64,20.393-67.02,10.29-3.056-2.714-3.862-5.6-3.385-8.394,15.306,8.078,53.673,9.465,63.28-12.8,3.469-8.038-17.494-23.665-17.634-41.135-.117-14.64,3.98-29.6,8.274-41.176,3.455-9.317,5.576-38.325,24.228-48.486-.264,9.935-1.509,18.336-3.714,24.854-1.077.342-2.289.7-3.624,1.045C2104.4,2423.153,2103.238,2428.82,2102.142,2433.817Z" transform="translate(-2034.305 -2390.975)" fill="#371a45"/>
        </g>
        <g id="Grupo_41" data-name="Grupo 41" transform="translate(172.615 276.882)">
          <path id="Caminho_38" data-name="Caminho 38" d="M2020.143,2490.543c.039,6.512-.286,12.908-.505,19.289-.152,6.381-.2,12.754.273,19.081a86.046,86.046,0,0,0,1.2,9.408,67.909,67.909,0,0,0,2.277,9.133,53.412,53.412,0,0,0,3.557,8.6,43.669,43.669,0,0,0,5.085,7.624,2.439,2.439,0,0,1-.555,3.616l-.018.011c-.92.58-1.934,1.3-2.864,2.009s-1.857,1.475-2.726,2.264a26.042,26.042,0,0,0-4.495,5.134,8.816,8.816,0,0,0-1.661,5.5,7.468,7.468,0,0,0,2.906,4.7,22.347,22.347,0,0,0,5.841,3.274,48.544,48.544,0,0,0,6.795,2.112,69.554,69.554,0,0,0,14.34,1.715c2.415.028,4.828-.061,7.225-.271a59.716,59.716,0,0,0,7.1-1.1,38.694,38.694,0,0,0,12.991-5.258,26.38,26.38,0,0,0,5.139-4.475,24.144,24.144,0,0,0,3.563-5.706,28.73,28.73,0,0,0,2.126-13.547,87.822,87.822,0,0,0-2.616-14.317c-1.182-4.832-2.422-9.726-3.391-14.706a132.826,132.826,0,0,1-2.129-15.106,121.883,121.883,0,0,1-.261-15.272,148,148,0,0,1,1.5-15.168c.773-5,1.875-10.023,2.881-14.826,1-4.849,1.562-9.744,2.251-14.6a115.673,115.673,0,0,1,2.662-14.655V2445a.832.832,0,0,1,1.608.011,43.772,43.772,0,0,1,.812,15.246,141.458,141.458,0,0,1-2.6,14.969c-1.048,4.975-2.083,9.714-2.842,14.592a143.3,143.3,0,0,0-1.447,14.645,119.825,119.825,0,0,0,2.3,29.235c.939,4.829,2.153,9.625,3.345,14.5a92.106,92.106,0,0,1,2.742,15.135,35.182,35.182,0,0,1-.292,8,32.793,32.793,0,0,1-2.211,7.772,28.954,28.954,0,0,1-4.344,6.958,31.155,31.155,0,0,1-6.121,5.343,43.448,43.448,0,0,1-14.621,5.952,64.347,64.347,0,0,1-7.7,1.2q-3.87.34-7.745.292a74.393,74.393,0,0,1-15.366-1.841,53.4,53.4,0,0,1-7.5-2.335,26.9,26.9,0,0,1-7.152-4.065,8.182,8.182,0,0,1-.811-.735c-.259-.261-.529-.5-.776-.783a13.683,13.683,0,0,1-1.378-1.828,10.754,10.754,0,0,1-1.621-4.5,11.292,11.292,0,0,1,.506-4.686,17.021,17.021,0,0,1,1.877-3.941,30.738,30.738,0,0,1,5.33-6.124c.98-.89,1.994-1.727,3.036-2.522,1.058-.8,2.079-1.535,3.271-2.288l-.572,3.626a48.479,48.479,0,0,1-5.693-8.522,58.163,58.163,0,0,1-3.875-9.354,78.694,78.694,0,0,1-2.45-9.722c-.337-1.633-.575-3.277-.834-4.919-.2-1.646-.433-3.292-.586-4.94a108.667,108.667,0,0,1-.27-19.79,82.839,82.839,0,0,1,1.256-9.79,53.929,53.929,0,0,1,2.657-9.551.818.818,0,0,1,1.578.3Z" transform="translate(-2014.326 -2444.387)" fill="#371a45"/>
        </g>
        <g id="Grupo_42" data-name="Grupo 42" transform="translate(174.255 363.341)">
          <path id="Caminho_39" data-name="Caminho 39" d="M2060.027,3043.376c-10.744,0-22.634-1.611-33.483-6.676a1.81,1.81,0,0,1,1.531-3.28c27.946,13.044,64.547,1.693,64.914,1.577a1.81,1.81,0,0,1,1.094,3.452A123.646,123.646,0,0,1,2060.027,3043.376Z" transform="translate(-2025.498 -3033.25)" fill="#371a45"/>
        </g>
        <g id="Grupo_43" data-name="Grupo 43" transform="translate(186.069 392.128)">
          <path id="Caminho_40" data-name="Caminho 40" d="M2144.733,3239.563a2.4,2.4,0,0,1-1.336-.405c-.612-.4-14.946-9.643-34.126-1.984a2.414,2.414,0,0,1-1.791-4.483c21.63-8.636,37.914,2,38.6,2.453a2.414,2.414,0,0,1-1.344,4.42Z" transform="translate(-2105.962 -3229.32)" fill="#371a45"/>
        </g>
        <g id="Grupo_64" data-name="Grupo 64" transform="translate(184.239 302.646)">
          <g id="Grupo_44" data-name="Grupo 44" transform="translate(64.194 2.052)">
            <path id="Caminho_41" data-name="Caminho 41" d="M2530.718,2633.844" transform="translate(-2530.718 -2633.844)" fill="#575b5a"/>
          </g>
          <g id="Grupo_45" data-name="Grupo 45" transform="translate(30.148)">
            <path id="Caminho_42" data-name="Caminho 42" d="M2349.64,2636.81a1.266,1.266,0,0,0,0-.317l-.046-.4c-.036-.272-.085-.551-.136-.829-.115-.556-.267-1.11-.439-1.659a15.813,15.813,0,0,0-1.413-3.14,12.265,12.265,0,0,0-4.876-4.689,14.879,14.879,0,0,0-1.641-.714c-.586-.239-1.184-.442-1.783-.645-1.2-.413-2.412-.759-3.641-1.051a36.984,36.984,0,0,0-3.714-.7,26.7,26.7,0,0,0-3.669-.241h-.117a26.957,26.957,0,0,0-3.665.275,37.126,37.126,0,0,0-3.7.732c-1.224.3-2.437.659-3.626,1.082-.6.208-1.191.416-1.774.66a14.584,14.584,0,0,0-1.623.725,12.242,12.242,0,0,0-4.771,4.684,15.631,15.631,0,0,0-1.364,3.119c-.164.545-.309,1.094-.416,1.644-.047.276-.093.551-.125.82l-.04.394c0,.111-.021.291,0,.3a5.7,5.7,0,1,1-7.969,3.444l1.47-4.8a6.51,6.51,0,0,1,.239-.642l.229-.542c.155-.353.321-.692.489-1.029.333-.672.686-1.323,1.071-1.956a24.226,24.226,0,0,1,2.6-3.574,18.008,18.008,0,0,1,7.128-5.1,16.994,16.994,0,0,1,2.02-.647c.646-.178,1.291-.354,1.941-.512,1.3-.318,2.6-.611,3.921-.845s2.637-.451,3.974-.581a30.534,30.534,0,0,1,4.1-.2h-.117a30.415,30.415,0,0,1,4.1.238c1.334.142,2.651.37,3.964.615s2.612.548,3.906.876c.648.163,1.29.344,1.932.527a17.088,17.088,0,0,1,2,.657,18.019,18.019,0,0,1,7.023,5.1,24.041,24.041,0,0,1,2.549,3.554c.377.628.723,1.274,1.047,1.941.165.333.326.67.478,1.02l.223.535a6.623,6.623,0,0,1,.232.629l.812,2.658a3.955,3.955,0,0,1-7.565,2.309A4,4,0,0,1,2349.64,2636.81Z" transform="translate(-2298.839 -2619.865)" fill="#371a45"/>
          </g>
          <g id="Grupo_46" data-name="Grupo 46" transform="translate(2.413 16.323)">
            <rect id="Retângulo_2" data-name="Retângulo 2" width="114.231" height="83.256" rx="41.628" fill="#a34f31"/>
          </g>
          <g id="Grupo_47" data-name="Grupo 47" transform="translate(0 13.906)">
            <path id="Caminho_43" data-name="Caminho 43" d="M2199.945,2802.662h-93.83a12.628,12.628,0,0,1-12.614-12.614V2727.2a12.631,12.631,0,0,1,12.614-12.62h93.83a12.631,12.631,0,0,1,12.614,12.62v62.85A12.628,12.628,0,0,1,2199.945,2802.662Zm-93.83-83.257a7.8,7.8,0,0,0-7.787,7.793v62.85a7.8,7.8,0,0,0,7.787,7.787h93.83a7.8,7.8,0,0,0,7.786-7.787V2727.2a7.8,7.8,0,0,0-7.786-7.793Z" transform="translate(-2093.5 -2714.578)" fill="#371a45"/>
          </g>
          <g id="Grupo_48" data-name="Grupo 48" transform="translate(1.698 25.647)" opacity="0.35">
            <path id="Caminho_44" data-name="Caminho 44" d="M2211.318,2835.126v-1.648a10.2,10.2,0,0,0,8.7-10.088v-18.64a10.2,10.2,0,0,0-10.2-10.207h-79.295V2855.7h-15.251a10.2,10.2,0,0,1-10.2-10.2v12.781a10.2,10.2,0,0,0,10.2,10.2h93.83a10.2,10.2,0,0,0,10.2-10.2V2845.5a10.192,10.192,0,0,1-9.977,10.194v-17.4A3.511,3.511,0,0,0,2211.318,2835.126Zm-11.979,20.569H2140.5v-17.4a3.51,3.51,0,0,0,2-3.166v-1.536h56.842Z" transform="translate(-2105.067 -2794.543)" fill="#371a45"/>
          </g>
          <g id="Grupo_49" data-name="Grupo 49" transform="translate(2.413 25.647)" opacity="0.3">
            <path id="Caminho_45" data-name="Caminho 45" d="M2134.674,2794.543v39.048h-14.535a10.2,10.2,0,0,1-10.2-10.2v-18.64a10.2,10.2,0,0,1,10.2-10.207Z" transform="translate(-2109.938 -2794.543)" fill="#6b184e"/>
          </g>
          <g id="Grupo_50" data-name="Grupo 50" transform="translate(2.414 16.319)">
            <path id="Caminho_46" data-name="Caminho 46" d="M2224.171,2741.222v18.64a10.2,10.2,0,0,1-10.2,10.2h-93.83a10.2,10.2,0,0,1-10.2-10.2v-18.64a10.2,10.2,0,0,1,10.2-10.207h93.83A10.2,10.2,0,0,1,2224.171,2741.222Z" transform="translate(-2109.94 -2731.015)" fill="#a34f31"/>
          </g>
          <g id="Grupo_51" data-name="Grupo 51" transform="translate(2.413 16.317)" opacity="0.3">
            <path id="Caminho_47" data-name="Caminho 47" d="M2224.169,2741.208v8.558a10.2,10.2,0,0,0-10.2-10.207H2196.4a.9.9,0,0,1,.006.131c0,4.683-5.934,8.484-13.248,8.484s-13.242-3.8-13.242-8.484a.9.9,0,0,1,.006-.131h-49.782a10.2,10.2,0,0,0-10.2,10.207v-8.558a10.2,10.2,0,0,1,10.2-10.207h93.83A10.2,10.2,0,0,1,2224.169,2741.208Z" transform="translate(-2109.938 -2731.001)" fill="#fff"/>
          </g>
          <g id="Grupo_52" data-name="Grupo 52" transform="translate(0 13.906)">
            <path id="Caminho_48" data-name="Caminho 48" d="M2199.945,2758.452h-93.83a12.628,12.628,0,0,1-12.614-12.614V2727.2a12.631,12.631,0,0,1,12.614-12.62h93.83a12.631,12.631,0,0,1,12.614,12.62v18.641A12.628,12.628,0,0,1,2199.945,2758.452Zm-93.83-39.047a7.8,7.8,0,0,0-7.787,7.793v18.641a7.8,7.8,0,0,0,7.787,7.787h93.83a7.8,7.8,0,0,0,7.786-7.787V2727.2a7.8,7.8,0,0,0-7.786-7.793Z" transform="translate(-2093.5 -2714.578)" fill="#371a45"/>
          </g>
          <g id="Grupo_53" data-name="Grupo 53" transform="translate(20.931 16.05)">
            <path id="Retângulo_3" data-name="Retângulo 3" d="M4.992,0h0A4.992,4.992,0,0,1,9.983,4.992V78.534a4.992,4.992,0,0,1-4.992,4.992h0A4.992,4.992,0,0,1,0,78.534V4.992A4.992,4.992,0,0,1,4.992,0Z" fill="#bf943d"/>
          </g>
          <g id="Grupo_54" data-name="Grupo 54" transform="translate(27.149 16.05)" opacity="0.35">
            <path id="Caminho_49" data-name="Caminho 49" d="M2288.395,2732.7v6.077h-9.982V2732.7a3.533,3.533,0,0,1,3.52-3.521h2.948A3.528,3.528,0,0,1,2288.395,2732.7Z" transform="translate(-2278.412 -2729.179)" fill="#371a45"/>
          </g>
          <g id="Grupo_55" data-name="Grupo 55" transform="translate(24.444 47.03)" opacity="0.3">
            <path id="Caminho_50" data-name="Caminho 50" d="M2262.69,2940.183V2962.8a3.526,3.526,0,0,1-2.706-3.421V2943.6A3.526,3.526,0,0,1,2262.69,2940.183Z" transform="translate(-2259.984 -2940.183)" fill="#6b184e"/>
          </g>
          <g id="Grupo_56" data-name="Grupo 56" transform="translate(20.931 16.05)">
            <path id="Retângulo_4" data-name="Retângulo 4" d="M4.992,0h0A4.992,4.992,0,0,1,9.983,4.992V78.534a4.992,4.992,0,0,1-4.992,4.992h0A4.992,4.992,0,0,1,0,78.534V4.992A4.992,4.992,0,0,1,4.992,0Z" fill="#ec1c24"/>
          </g>
          <g id="Grupo_57" data-name="Grupo 57" transform="translate(89.737 16.05)">
            <path id="Retângulo_5" data-name="Retângulo 5" d="M4.992,0h0A4.992,4.992,0,0,1,9.983,4.992V78.534a4.992,4.992,0,0,1-4.992,4.992h0A4.992,4.992,0,0,1,0,78.534V4.992A4.992,4.992,0,0,1,4.992,0Z" fill="#ec1c24"/>
          </g>
          <g id="Grupo_58" data-name="Grupo 58" transform="translate(18.517 13.637)">
            <path id="Caminho_51" data-name="Caminho 51" d="M2228.073,2801.1h-2.1a6.363,6.363,0,0,1-6.355-6.355V2719.1a6.362,6.362,0,0,1,6.355-6.355h2.1a6.362,6.362,0,0,1,6.355,6.355v75.643A6.363,6.363,0,0,1,2228.073,2801.1Zm-2.1-83.526a1.549,1.549,0,0,0-1.528,1.528v75.643a1.549,1.549,0,0,0,1.528,1.529h2.1a1.549,1.549,0,0,0,1.528-1.529V2719.1a1.549,1.549,0,0,0-1.528-1.528Z" transform="translate(-2219.618 -2712.744)" fill="#371a45"/>
          </g>
          <g id="Grupo_59" data-name="Grupo 59" transform="translate(87.323 13.637)">
            <path id="Caminho_52" data-name="Caminho 52" d="M2696.706,2801.1h-2.1a6.363,6.363,0,0,1-6.355-6.355V2719.1a6.362,6.362,0,0,1,6.355-6.355h2.1a6.362,6.362,0,0,1,6.355,6.355v75.643A6.363,6.363,0,0,1,2696.706,2801.1Zm-2.1-83.526a1.548,1.548,0,0,0-1.528,1.528v75.643a1.549,1.549,0,0,0,1.528,1.529h2.1a1.549,1.549,0,0,0,1.528-1.529V2719.1a1.549,1.549,0,0,0-1.528-1.528Z" transform="translate(-2688.251 -2712.744)" fill="#371a45"/>
          </g>
          <g id="Grupo_60" data-name="Grupo 60" transform="translate(87.384 46.822)">
            <path id="Retângulo_6" data-name="Retângulo 6" d="M7.345,0h0A7.345,7.345,0,0,1,14.69,7.345v8.129a7.345,7.345,0,0,1-7.345,7.345h0A7.345,7.345,0,0,1,0,15.474V7.345A7.345,7.345,0,0,1,7.345,0Z" fill="#ffce00"/>
          </g>
          <g id="Grupo_61" data-name="Grupo 61" transform="translate(84.97 44.409)">
            <path id="Caminho_53" data-name="Caminho 53" d="M2685.382,2949.975h-6.806a6.362,6.362,0,0,1-6.356-6.355v-14.936a6.363,6.363,0,0,1,6.356-6.355h6.806a6.363,6.363,0,0,1,6.355,6.355v14.936A6.362,6.362,0,0,1,2685.382,2949.975Zm-6.806-22.818a1.548,1.548,0,0,0-1.528,1.528v14.936a1.548,1.548,0,0,0,1.528,1.528h6.806a1.548,1.548,0,0,0,1.528-1.528v-14.936a1.548,1.548,0,0,0-1.528-1.528Z" transform="translate(-2672.22 -2922.329)" fill="#371a45"/>
          </g>
          <g id="Grupo_62" data-name="Grupo 62" transform="translate(18.222 46.932)">
            <rect id="Retângulo_7" data-name="Retângulo 7" width="14.69" height="22.819" rx="7.345" fill="#ffce00"/>
          </g>
          <g id="Grupo_63" data-name="Grupo 63" transform="translate(15.903 44.409)">
            <path id="Caminho_54" data-name="Caminho 54" d="M2214.977,2949.975h-6.806a6.362,6.362,0,0,1-6.355-6.355v-14.936a6.363,6.363,0,0,1,6.355-6.355h6.806a6.363,6.363,0,0,1,6.355,6.355v14.936A6.362,6.362,0,0,1,2214.977,2949.975Zm-6.806-22.818a1.548,1.548,0,0,0-1.528,1.528v14.936a1.548,1.548,0,0,0,1.528,1.528h6.806a1.549,1.549,0,0,0,1.528-1.528v-14.936a1.549,1.549,0,0,0-1.528-1.528Z" transform="translate(-2201.815 -2922.329)" fill="#371a45"/>
          </g>
        </g>
        <g id="Grupo_65" data-name="Grupo 65" transform="translate(222.123 178.443)">
          <path id="Caminho_55" data-name="Caminho 55" d="M2406.913,1880.757c-.5,31.08-14.379,34.872-31.922,34.788-14.65-.078-15.627-11.3-15.627-11.3a10.247,10.247,0,0,1-6.879-7.494c-1.359-5.533,4.394-13.932,6.161-16.346.323-.433.511-.673.511-.673a68.61,68.61,0,0,0,.608-9.985c0-1.23-.02-2.562-.071-3.986a126.111,126.111,0,0,0-8.173-39.473L2366,1773.926c25.664,27.644,37.131,53.723,40.231,90.556.142,1.669.272,3.365.375,5.08.052.822.1,1.65.142,2.485Q2406.988,1876.725,2406.913,1880.757Z" transform="translate(-2351.521 -1773.926)" fill="#fff"/>
        </g>
        <g id="Grupo_66" data-name="Grupo 66" transform="translate(222.88 278.925)" opacity="0.35">
          <path id="Caminho_56" data-name="Caminho 56" d="M2411.316,2464.652c-.5,31.08-14.379,34.872-31.922,34.788-14.65-.078-15.627-11.3-15.627-11.3a10.247,10.247,0,0,1-6.879-7.493,11.829,11.829,0,0,1,.725-6.529c2.039,4.368,6.7,1.448,6.7,1.448s.435,15.183,15.085,15.26c17.11.084,30.731-3.52,31.857-32.523Q2411.378,2461.653,2411.316,2464.652Z" transform="translate(-2356.682 -2458.304)" fill="#371a45"/>
        </g>
        <g id="Grupo_67" data-name="Grupo 67" transform="translate(222.123 178.443)">
          <path id="Caminho_57" data-name="Caminho 57" d="M2406.605,1869.564c-17.012-1.01-37.7-.246-46.837.188a124.152,124.152,0,0,0-8.244-43.46l4.691-24.463,9.784-27.9C2392.829,1802.828,2404.14,1830.013,2406.605,1869.564Z" transform="translate(-2351.524 -1773.928)" fill="#4a83ff"/>
        </g>
        <g id="Grupo_68" data-name="Grupo 68" transform="translate(230.231 178.443)" opacity="0.7">
          <path id="Caminho_58" data-name="Caminho 58" d="M2453.719,1869.562c-17.012-1.01-37.7-.246-46.838.188,0-1.6-.039-3.371-.136-5.293,10.516-.375,26.162-.679,39.538.116-2.252-36.147-11.894-61.967-34.025-88.207l.854-2.44C2439.942,1802.826,2451.253,1830.011,2453.719,1869.562Z" transform="translate(-2406.745 -1773.926)" fill="#fff"/>
        </g>
        <g id="Grupo_69" data-name="Grupo 69" transform="translate(221.793 230.511)">
          <path id="Caminho_59" data-name="Caminho 59" d="M2355.056,2163.376c-.5-2.85-.844-5.7-1.243-8.557s-.755-5.722-1.215-8.586-.963-5.731-1.533-8.6c-.553-2.875-1.182-5.745-1.783-8.656a.349.349,0,0,1,.645-.243,76.879,76.879,0,0,1,3.89,8.065c1.14,2.764,2.154,5.586,3.021,8.458a75.332,75.332,0,0,1,2.147,8.747,52.256,52.256,0,0,1,.881,8.971,2.422,2.422,0,0,1-4.808.418Z" transform="translate(-2349.274 -2128.556)" fill="#371a45"/>
        </g>
        <g id="Grupo_70" data-name="Grupo 70" transform="translate(220.471 176.032)">
          <path id="Caminho_60" data-name="Caminho 60" d="M2366.013,1903.949l-.628,0c-13.169-.064-16.771-8.377-17.708-11.925a12.668,12.668,0,0,1-7.135-8.7c-1.66-6.78,4.844-16.067,6.718-18.559a86,86,0,0,0,.3-15.467,2.413,2.413,0,1,1,4.818-.295,83.815,83.815,0,0,1-.43,17.117,2.415,2.415,0,0,1-.485,1.1c-2.916,3.71-7.184,11.051-6.229,14.954a7.836,7.836,0,0,0,5.155,5.735,2.448,2.448,0,0,1,1.789,2.125c.094.907,1.28,9.032,13.235,9.09,8.3.045,16.7-.708,22.144-6.414,5.738-6.017,8.089-17.315,7.187-34.539-2.133-40.727-13.379-67.812-40.111-96.6a2.413,2.413,0,1,1,3.537-3.284c27.589,29.716,39.2,57.651,41.394,99.637.989,18.881-1.717,30.995-8.515,38.122C2384.492,1902.91,2375.178,1903.949,2366.013,1903.949Z" transform="translate(-2340.274 -1757.507)" fill="#371a45"/>
        </g>
        <g id="Grupo_71" data-name="Grupo 71" transform="translate(227.527 294.177)">
          <path id="Caminho_61" data-name="Caminho 61" d="M2392.657,2563.5l.517,13,0,.045a2.423,2.423,0,0,1-4.843.192,2.564,2.564,0,0,1,.017-.4l1.617-12.972a1.351,1.351,0,0,1,2.69.113Z" transform="translate(-2388.331 -2562.179)" fill="#371a45"/>
        </g>
        <g id="Grupo_72" data-name="Grupo 72" transform="translate(38.37 120.483)">
          <path id="Caminho_62" data-name="Caminho 62" d="M1100.51,1417.281c-2.835-9.67,6.971-17.582,6.971-17.582s-8.848-15.9-1.948-20.215c3.7-2.309,13.948,8.577,16.33,15.708a49.718,49.718,0,0,1,2.386,13.99" transform="translate(-1099.996 -1379.168)" fill="#fff"/>
        </g>
        <g id="Grupo_73" data-name="Grupo 73" transform="translate(37.041 118.03)">
          <path id="Caminho_63" data-name="Caminho 63" d="M1092.4,1403.137c-.2-.388-.4-.788-.578-1.2-.089-.206-.189-.414-.269-.626-.065-.215-.12-.433-.176-.653-.1-.44-.246-.889-.311-1.344l-.117-1.383a15.181,15.181,0,0,1,.889-5.494,20.915,20.915,0,0,1,2.574-4.869,26.189,26.189,0,0,1,1.7-2.147c.291-.351.621-.673.941-1,.342-.335.638-.627,1.073-1l-.64,3.291a41.066,41.066,0,0,1-3.182-7.3,28.419,28.419,0,0,1-1.543-8.139,11.305,11.305,0,0,1,.852-4.707,8.883,8.883,0,0,1,.635-1.188,8.064,8.064,0,0,1,.88-1.076l.5-.486.551-.414a4.5,4.5,0,0,1,1.664-.8,5.909,5.909,0,0,1,3.175.175,11.317,11.317,0,0,1,2.214.975,22.161,22.161,0,0,1,3.466,2.466,35.71,35.71,0,0,1,5.491,5.887,31.258,31.258,0,0,1,2.22,3.374,22.954,22.954,0,0,1,1.773,3.78c.116.336.239.706.333,1.029l.265.962c.171.642.3,1.292.437,1.939a31.507,31.507,0,0,1,.473,3.917,24.03,24.03,0,0,1-.762,7.819.419.419,0,0,1-.8.023l-.008-.023c-.848-2.439-1.542-4.82-2.281-7.141-.372-1.159-.729-2.309-1.116-3.438-.19-.564-.381-1.128-.583-1.683l-.3-.832c-.1-.271-.2-.491-.3-.74a27.479,27.479,0,0,0-1.608-2.935c-.613-.971-1.29-1.923-1.989-2.861a40.618,40.618,0,0,0-4.655-5.2,17.291,17.291,0,0,0-2.575-2,6.021,6.021,0,0,0-1.2-.594,4.975,4.975,0,0,0-.523-.133.22.22,0,0,1,.079-.037s.057-.054.012-.018l-.1.075-.208.141c-.055.059-.111.116-.171.17-.135.093-.2.257-.319.369a4.186,4.186,0,0,0-.251.469,5.914,5.914,0,0,0-.42,2.647,21.424,21.424,0,0,0,1.528,6.534c.417,1.1.875,2.2,1.368,3.28.475,1.076,1.026,2.193,1.523,3.177l.072.142a2.537,2.537,0,0,1-.712,3.149c-.205.159-.519.433-.782.669l-.813.773a21.4,21.4,0,0,0-1.551,1.642,27.413,27.413,0,0,0-2.663,3.606,18.681,18.681,0,0,0-1.813,4.072,17.536,17.536,0,0,0-.6,4.681v.049a.408.408,0,0,1-.771.178Z" transform="translate(-1090.948 -1362.457)" fill="#371a45"/>
        </g>
        <g id="Grupo_74" data-name="Grupo 74" transform="translate(229.247 268.264)" opacity="0.35">
          <path id="Caminho_64" data-name="Caminho 64" d="M2448.313,2402.7a4.13,4.13,0,0,1-2.019.292,258.867,258.867,0,0,0-43.867-.155,4.3,4.3,0,0,1-2.381-.486c.323-.433.511-.673.511-.673a68.621,68.621,0,0,0,.608-9.985c0-1.229-.019-2.562-.071-3.986a257.025,257.025,0,0,1,45.052-1.657,4.061,4.061,0,0,1,1.482.375c.142,1.669.271,3.365.375,5.08.052.822.1,1.65.142,2.485Q2448.388,2398.671,2448.313,2402.7Z" transform="translate(-2400.046 -2385.693)" fill="#371a45"/>
        </g>
        <g id="Grupo_75" data-name="Grupo 75" transform="translate(226.513 256.82)">
          <path id="Caminho_65" data-name="Caminho 65" d="M2430.406,2325.047a258.972,258.972,0,0,0-43.868-.157,4.264,4.264,0,0,1-4.643-4.04c-.09-2-.236-4.141-.453-6.422a4.273,4.273,0,0,1,3.676-4.657,257.049,257.049,0,0,1,45.141-1.67,4.262,4.262,0,0,1,3.947,3.746q.509,4.2.875,8.576A4.27,4.27,0,0,1,2430.406,2325.047Z" transform="translate(-2381.422 -2307.744)" fill="#fff"/>
        </g>
        <g id="Grupo_76" data-name="Grupo 76" transform="translate(226.795 257.099)" opacity="0.35">
          <path id="Caminho_66" data-name="Caminho 66" d="M2432.043,2326.668a258.918,258.918,0,0,0-43.867-.155,4.262,4.262,0,0,1-4.64-4.044q-.068-1.573-.194-3.274a259.351,259.351,0,0,1,43.071.22,4.273,4.273,0,0,0,4.679-4.627q-.223-2.6-.485-5.145l1.288.078a4.268,4.268,0,0,1,3.947,3.747q.514,4.2.874,8.574A4.266,4.266,0,0,1,2432.043,2326.668Z" transform="translate(-2383.342 -2309.643)" fill="#371a45"/>
        </g>
        <g id="Grupo_77" data-name="Grupo 77" transform="translate(224.099 254.401)">
          <path id="Caminho_67" data-name="Caminho 67" d="M2416.816,2313.427a6.741,6.741,0,0,1-.682-.035h0a256.819,256.819,0,0,0-43.414-.154,6.746,6.746,0,0,1-5-1.634,6.593,6.593,0,0,1-2.262-4.7c-.094-2.065-.243-4.186-.445-6.3a6.667,6.667,0,0,1,5.761-7.278,258.179,258.179,0,0,1,45.614-1.685,6.677,6.677,0,0,1,6.187,5.864c.343,2.831.64,5.746.884,8.666a6.686,6.686,0,0,1-6.643,7.261Zm-.192-4.837a1.816,1.816,0,0,0,1.469-.516,1.88,1.88,0,0,0,.556-1.5c-.239-2.861-.531-5.717-.865-8.488a1.848,1.848,0,0,0-1.708-1.627,252.918,252.918,0,0,0-44.666,1.654,1.856,1.856,0,0,0-1.592,2.035c.209,2.2.365,4.4.462,6.542a1.807,1.807,0,0,0,.621,1.287,1.857,1.857,0,0,0,1.4.457,262.106,262.106,0,0,1,44.322.161Z" transform="translate(-2364.981 -2291.268)" fill="#371a45"/>
        </g>
        <g id="Grupo_78" data-name="Grupo 78" transform="translate(130.085 139.099)">
          <path id="Caminho_68" data-name="Caminho 68" d="M1827.319,1526.006c-15.971,13.828-83.28,86.251-83.28,86.251l-19.377-72.384a346.261,346.261,0,0,1,15.466-33.915l81.788,5.209Q1824.779,1518.662,1827.319,1526.006Z" transform="translate(-1724.662 -1505.959)" fill="#fff"/>
        </g>
        <g id="Grupo_79" data-name="Grupo 79" transform="translate(130.085 139.099)">
          <path id="Caminho_69" data-name="Caminho 69" d="M1827.319,1526.006c-15.971,13.828-83.28,86.251-83.28,86.251l-19.377-72.384a346.261,346.261,0,0,1,15.466-33.915l81.788,5.209Q1824.779,1518.662,1827.319,1526.006Z" transform="translate(-1724.662 -1505.959)" fill="#fff"/>
        </g>
        <g id="Grupo_80" data-name="Grupo 80" transform="translate(127.672 136.686)">
          <path id="Caminho_70" data-name="Caminho 70" d="M1730.014,1600.648a2.414,2.414,0,0,1-2.332-1.789l-19.377-72.384a2.415,2.415,0,0,1,.085-1.507,349.6,349.6,0,0,1,15.574-34.151,2.431,2.431,0,0,1,2.292-1.29l81.787,5.209a2.415,2.415,0,0,1,2.1,1.547c1.876,4.909,3.7,9.926,5.429,14.91a2.413,2.413,0,0,1-.7,2.615c-15.689,13.585-82.419,85.347-83.092,86.07A2.415,2.415,0,0,1,1730.014,1600.648ZM1713.174,1526l18.044,67.4c12.978-13.924,63.5-67.95,79.264-82.151-1.38-3.943-2.821-7.9-4.3-11.793l-78.669-5.011A345.068,345.068,0,0,0,1713.174,1526Z" transform="translate(-1708.223 -1489.523)" fill="#371a45"/>
        </g>
        <g id="Grupo_81" data-name="Grupo 81" transform="translate(127.672 136.686)">
          <path id="Caminho_71" data-name="Caminho 71" d="M1730.014,1600.648a2.414,2.414,0,0,1-2.332-1.789l-19.377-72.384a2.415,2.415,0,0,1,.085-1.507,349.6,349.6,0,0,1,15.574-34.151,2.431,2.431,0,0,1,2.292-1.29l81.787,5.209a2.415,2.415,0,0,1,2.1,1.547c1.876,4.909,3.7,9.926,5.429,14.91a2.413,2.413,0,0,1-.7,2.615c-3.645,3.157-10.366,9.736-19.977,19.555-25.346,25.892-62.74,66.112-63.115,66.515A2.415,2.415,0,0,1,1730.014,1600.648ZM1713.174,1526l18.044,67.405c9.388-10.066,39.014-41.742,60.228-63.414,8.721-8.911,15.112-15.2,19.035-18.738-1.38-3.943-2.821-7.9-4.3-11.794l-78.669-5.011A345.068,345.068,0,0,0,1713.174,1526Z" transform="translate(-1708.223 -1489.523)" fill="#371a45"/>
        </g>
        <g id="Grupo_82" data-name="Grupo 82" transform="translate(147.679 184.881)">
          <path id="Caminho_72" data-name="Caminho 72" d="M1849.783,1819.32l-4.51,5.991a3.875,3.875,0,0,0-.44,3.916l3.137,6.993a3.874,3.874,0,0,0,3.359,2.285l5.02.228a3.873,3.873,0,0,0,3.084-1.31l5.3-6.022a3.874,3.874,0,0,0,.288-4.75l-4.927-7.191a3.874,3.874,0,0,0-3.2-1.684h-4.021A3.874,3.874,0,0,0,1849.783,1819.32Z" transform="translate(-1844.493 -1817.776)" fill="#ec1c24"/>
        </g>
        <g id="Grupo_83" data-name="Grupo 83" transform="translate(145.266 182.468)">
          <path id="Caminho_73" data-name="Caminho 73" d="M1842.5,1827.126c-.1,0-.194,0-.291-.007l-5.019-.228a6.256,6.256,0,0,1-5.451-3.708l-3.137-6.993a6.289,6.289,0,0,1,.714-6.355l4.51-5.991h0a6.318,6.318,0,0,1,5.023-2.506h4.021a6.285,6.285,0,0,1,5.188,2.734l4.927,7.19a6.283,6.283,0,0,1-.467,7.709l-5.3,6.022A6.258,6.258,0,0,1,1842.5,1827.126Zm-4.819-20.379-4.509,5.991a1.459,1.459,0,0,0-.166,1.476l3.137,6.993a1.452,1.452,0,0,0,1.266.861l5.019.228a1.442,1.442,0,0,0,1.164-.494l5.3-6.021a1.46,1.46,0,0,0,.109-1.791l-4.927-7.191a1.459,1.459,0,0,0-1.205-.635h-4.021a1.469,1.469,0,0,0-1.167.582Z" transform="translate(-1828.054 -1801.338)" fill="#371a45"/>
        </g>
        <g id="Grupo_84" data-name="Grupo 84" transform="translate(144.123 242.984)">
          <path id="Caminho_74" data-name="Caminho 74" d="M1827.89,2310.116a2.414,2.414,0,0,1-2.361-1.922c-10.248-49.235-2.372-92.288-2.291-92.718a2.414,2.414,0,0,1,4.745.892c-.079.42-7.772,42.583,2.272,90.842a2.415,2.415,0,0,1-2.365,2.906Z" transform="translate(-1820.271 -2213.509)" fill="#371a45"/>
        </g>
        <g id="Grupo_101" data-name="Grupo 101" transform="translate(72.118)">
          <g id="Grupo_85" data-name="Grupo 85" transform="translate(21.936 139.099)" opacity="0.35">
            <path id="Caminho_75" data-name="Caminho 75" d="M1625.321,1549.177a.006.006,0,0,1-.006.006c-2.265,2.219-4.633,4.316-7.079,6.277a97.618,97.618,0,0,1-65.468,21.309q-2.786-.136-5.578-.414a96.9,96.9,0,0,1-27.547-7.079c-.738-.31-1.469-.628-2.2-.964a94.768,94.768,0,0,1-10.3-5.4c-.427-.252-.848-.5-1.268-.77-1.475-.932-2.925-1.883-4.329-2.867a98.594,98.594,0,0,1-8.244-6.439,97.122,97.122,0,0,1-14.042-15.142,121.811,121.811,0,0,0,32.414,11.8,348.062,348.062,0,0,1,19.083-43.537l81.788,5.209C1617.517,1524.206,1621.775,1536.941,1625.321,1549.177Z" transform="translate(-1479.256 -1505.957)" fill="#371a45"/>
          </g>
          <g id="Grupo_86" data-name="Grupo 86" transform="translate(2.394 2.171)">
            <path id="Caminho_76" data-name="Caminho 76" d="M1353.738,705.144a96.75,96.75,0,0,0,27.6,40.482,98.18,98.18,0,0,0,8.247,6.44c1.4.985,2.852,1.937,4.329,2.867a97.376,97.376,0,0,0,13.769,7.127,96.688,96.688,0,0,0,27.549,7.081q2.791.282,5.579.416a97.342,97.342,0,0,0,28.344-191.612c-1.111-.29-2.235-.549-3.363-.784q-4.518-.974-9.069-1.507a97.849,97.849,0,0,0-41.417,4.119q-3.159,1.023-6.252,2.263a97.333,97.333,0,0,0-55.315,123.108Z" transform="translate(-1347.756 -574.758)" fill="#fff"/>
            <path id="Caminho_77" data-name="Caminho 77" d="M1443.656,768.5q-2.223,0-4.456-.1c-1.858-.089-3.739-.229-5.593-.417a96.93,96.93,0,0,1-27.619-7.1,97.945,97.945,0,0,1-13.8-7.145c-1.619-1.02-3.038-1.96-4.341-2.875a98.938,98.938,0,0,1-8.267-6.456,97.554,97.554,0,0,1,27.785-164c2.025-.814,4.133-1.577,6.269-2.269a98.081,98.081,0,0,1,41.52-4.129c3.027.354,6.086.863,9.092,1.511,1.2.251,2.306.508,3.374.787A97.58,97.58,0,0,1,1443.656,768.5Zm.236-194.658a97.8,97.8,0,0,0-30.111,4.759c-2.125.688-4.223,1.448-6.237,2.257A97.078,97.078,0,0,0,1379.9,744.037a98.628,98.628,0,0,0,8.227,6.424c1.3.91,2.709,1.846,4.32,2.861a97.445,97.445,0,0,0,13.733,7.109,96.459,96.459,0,0,0,27.48,7.064c1.844.186,3.717.326,5.565.414,1.48.067,2.962.1,4.434.1A97.1,97.1,0,0,0,1467.5,576.775c-1.062-.277-2.158-.533-3.353-.783-2.993-.645-6.036-1.151-9.047-1.5A96.531,96.531,0,0,0,1443.892,573.839Z" transform="translate(-1346.155 -573.353)" fill="#371a45"/>
          </g>
          <g id="Grupo_87" data-name="Grupo 87" transform="translate(2.9 64.798)" opacity="0.35">
            <path id="Caminho_78" data-name="Caminho 78" d="M1529.3,1086.278a97.263,97.263,0,0,1-87.153,45.793q-2.789-.129-5.575-.414a97.493,97.493,0,0,1-41.322-14.205c-1.472-.936-2.922-1.883-4.328-2.866a99.391,99.391,0,0,1-8.245-6.445,96.715,96.715,0,0,1-27.6-40.484,97.893,97.893,0,0,1-5.475-26.152,97.108,97.108,0,0,0,35.064,44.822c1.4.985,2.85,1.932,4.329,2.866a97.025,97.025,0,0,0,41.316,14.207q2.8.282,5.581.412A97.349,97.349,0,0,0,1537.526,999.9,97.144,97.144,0,0,1,1529.3,1086.278Z" transform="translate(-1349.604 -999.902)" fill="#371a45"/>
          </g>
          <g id="Grupo_88" data-name="Grupo 88" transform="translate(0.765 0.542)">
            <path id="Caminho_79" data-name="Caminho 79" d="M1434.191,760.66q-2.26,0-4.531-.1c-1.89-.09-3.8-.233-5.682-.423a98.574,98.574,0,0,1-28.089-7.22,99.573,99.573,0,0,1-14.029-7.262c-1.65-1.039-3.091-1.994-4.416-2.925a100.754,100.754,0,0,1-8.4-6.559A99.182,99.182,0,0,1,1397.29,569.43c2.06-.828,4.2-1.6,6.375-2.307a99.708,99.708,0,0,1,42.211-4.2c3.078.361,6.189.878,9.246,1.537,1.218.254,2.348.518,3.442.8a99.208,99.208,0,0,1-24.372,195.394ZM1434.427,566a96.21,96.21,0,0,0-29.608,4.68c-2.091.677-4.153,1.424-6.132,2.219a95.462,95.462,0,0,0-54.251,120.743h0a95.21,95.21,0,0,0,27.066,39.7,96.706,96.706,0,0,0,8.09,6.317c1.277.9,2.668,1.818,4.255,2.819a95.845,95.845,0,0,0,13.5,6.985,94.826,94.826,0,0,0,27.02,6.945c1.81.183,3.654.32,5.474.408,1.455.066,2.911.1,4.359.1a95.47,95.47,0,0,0,23.44-188.028c-1.05-.274-2.12-.524-3.289-.768-2.953-.636-5.945-1.133-8.9-1.48A94.859,94.859,0,0,0,1434.427,566Z" transform="translate(-1335.062 -562.26)" fill="#371a45"/>
          </g>
          <g id="Grupo_89" data-name="Grupo 89" transform="translate(0.222)">
            <path id="Caminho_80" data-name="Caminho 80" d="M1431.036,758.053q-2.272,0-4.555-.1c-1.9-.091-3.821-.234-5.712-.425a99.116,99.116,0,0,1-28.246-7.26,100.146,100.146,0,0,1-14.1-7.3c-1.66-1.046-3.109-2.005-4.441-2.941a101.24,101.24,0,0,1-8.444-6.594,99.508,99.508,0,0,1-28.288-41.492h0a99.718,99.718,0,0,1,56.686-126.159c2.072-.833,4.228-1.613,6.411-2.32a100.254,100.254,0,0,1,42.441-4.22c3.1.363,6.224.883,9.3,1.545,1.224.255,2.362.521,3.465.809a99.751,99.751,0,0,1-24.509,196.462Zm.236-194.658a95.658,95.658,0,0,0-29.442,4.654c-2.078.673-4.129,1.416-6.1,2.207a94.919,94.919,0,0,0-53.943,120.057h0a94.666,94.666,0,0,0,26.911,39.474,96.391,96.391,0,0,0,8.044,6.281c1.271.893,2.655,1.809,4.235,2.8a95.23,95.23,0,0,0,13.417,6.944,94.273,94.273,0,0,0,26.865,6.906c1.8.182,3.633.319,5.443.4,1.447.066,2.895.1,4.335.1a94.927,94.927,0,0,0,23.307-186.959c-1.047-.273-2.108-.521-3.268-.763-2.94-.633-5.914-1.128-8.857-1.472A94.277,94.277,0,0,0,1431.272,563.395Z" transform="translate(-1331.364 -558.568)" fill="#371a45"/>
          </g>
          <g id="Grupo_90" data-name="Grupo 90" transform="translate(2.42 20.589)">
            <path id="Caminho_81" data-name="Caminho 81" d="M1363.623,832.976c50.261,48.074,131.242,31.843,145.784-35.491,9.893-45.81-27.321-90.865-71.928-97.55-32.465-4.865-66.289,4.587-87.614,52.91,0,0-6.137,22.85-2.227,39.3a222.545,222.545,0,0,0,10.489,31.784Z" transform="translate(-1346.335 -698.795)" fill="#371a45"/>
          </g>
          <g id="Grupo_91" data-name="Grupo 91" transform="translate(18.595 78.197)">
            <path id="Caminho_82" data-name="Caminho 82" d="M1603.392,1132.241c-14.54,67.333-95.522,83.563-145.782,35.493l-1.113-1.836c60.286,20.642,127.8-6.934,143.766-74.74A73.314,73.314,0,0,1,1603.392,1132.241Z" transform="translate(-1456.497 -1091.159)" fill="#220f2d"/>
          </g>
          <g id="Grupo_92" data-name="Grupo 92" transform="translate(0.222 8.109)">
            <path id="Caminho_83" data-name="Caminho 83" d="M1417.919,800.537a105.479,105.479,0,0,1-25.029-3.03,2.422,2.422,0,0,1-.362-.119,100.2,100.2,0,0,1-14.11-7.3c-1.659-1.045-3.109-2.005-4.441-2.941a101.239,101.239,0,0,1-8.444-6.594,99.509,99.509,0,0,1-28.288-41.492h0a99.753,99.753,0,0,1,47.381-121.851,2.429,2.429,0,0,1,.463-.185c12.354-3.508,26.169-4.156,41.065-1.924,26.528,3.976,51.912,20.163,67.9,43.3,14.692,21.262,20,45.854,14.948,69.245-5.494,25.423-19.37,45.727-40.13,58.718A96.077,96.077,0,0,1,1417.919,800.537Zm-23.7-7.674c25.271,6.127,51.534,2.27,72.09-10.593,19.63-12.284,32.761-31.526,37.973-55.646,4.768-22.073-.275-45.328-14.2-65.481-15.244-22.062-39.41-37.491-64.644-41.272-14.114-2.115-27.162-1.535-38.789,1.726a94.927,94.927,0,0,0-44.859,115.837h0a94.665,94.665,0,0,0,26.911,39.474,96.391,96.391,0,0,0,8.044,6.281c1.271.893,2.655,1.809,4.235,2.8A95.283,95.283,0,0,0,1394.221,792.863Z" transform="translate(-1331.364 -613.799)" fill="#371a45"/>
          </g>
          <g id="Grupo_93" data-name="Grupo 93" transform="translate(0 18.17)">
            <path id="Caminho_84" data-name="Caminho 84" d="M1416.5,849.048c-24.581,0-49.337-9.949-68.606-28.38a2.373,2.373,0,0,1-.394-.491l-5.5-9.05a2.371,2.371,0,0,1-.156-.3,222.537,222.537,0,0,1-10.618-32.177c-4.005-16.848,1.987-39.524,2.244-40.481a2.408,2.408,0,0,1,.123-.349c18.633-42.22,48.967-60.5,90.181-54.322,23.673,3.548,46.323,17.991,60.588,38.636,13.113,18.976,17.85,40.928,13.34,61.811-6.513,30.156-26.654,52.481-55.259,61.25A88.434,88.434,0,0,1,1416.5,849.048Zm-65.041-31.65c24.854,23.626,59.146,32.508,89.573,23.18,26.885-8.242,45.822-29.256,51.954-57.654,4.226-19.566-.246-40.181-12.592-58.048-13.522-19.568-34.954-33.252-57.333-36.606-38.729-5.8-67.318,11.461-84.971,51.32-.541,2.111-5.712,23.023-2.165,37.942a222.022,222.022,0,0,0,10.294,31.239Z" transform="translate(-1329.85 -682.326)" fill="#371a45"/>
          </g>
          <g id="Grupo_94" data-name="Grupo 94" transform="translate(153.441 82.404)">
            <ellipse id="Elipse_2" data-name="Elipse 2" cx="34.801" cy="25.287" rx="34.801" ry="25.287" transform="translate(0 68.876) rotate(-81.721)" fill="#fff"/>
            <path id="Caminho_85" data-name="Caminho 85" d="M2414.782,1200.951q-.476,0-.954-.022a22.35,22.35,0,0,1-16-8.13c-6.442-7.4-9.51-18.427-8.417-30.266,1.879-20.349,15.776-36.349,31.029-35.648a22.351,22.351,0,0,1,16,8.13c6.442,7.4,9.51,18.426,8.417,30.266C2443.017,1185.2,2429.635,1200.951,2414.782,1200.951Zm4.681-69.261c-12.4,0-23.633,13.822-25.246,31.287-.958,10.377,1.752,20.34,7.25,26.651a17.642,17.642,0,0,0,12.58,6.479c12.694.583,24.358-13.45,26-31.27l2.4.222-2.4-.222c.958-10.377-1.752-20.34-7.25-26.651a17.641,17.641,0,0,0-12.58-6.479C2419.967,1131.7,2419.714,1131.69,2419.462,1131.69Z" transform="translate(-2387.098 -1125.828)" fill="#371a45"/>
          </g>
          <g id="Grupo_95" data-name="Grupo 95" transform="translate(166.139 93.278)">
            <ellipse id="Elipse_3" data-name="Elipse 3" cx="27.62" cy="20.604" rx="27.62" ry="20.604" transform="matrix(0.178, -0.984, 0.984, 0.178, 0, 54.36)" fill="#fff"/>
            <path id="Caminho_86" data-name="Caminho 86" d="M2508.1,1270.718a15.778,15.778,0,0,1-8.676-2.632c-9.962-6.463-13.212-22.957-7.245-36.766,3.341-7.733,8.963-13.288,15.424-15.243a15.815,15.815,0,0,1,13.568,1.888c9.962,6.463,13.213,22.957,7.246,36.766-3.341,7.733-8.964,13.289-15.426,15.243A16.863,16.863,0,0,1,2508.1,1270.718Zm4.391-54.881a16.345,16.345,0,0,0-4.742.722c-6.319,1.911-11.826,7.364-15.107,14.96-5.874,13.594-2.708,29.808,7.057,36.143a15.323,15.323,0,0,0,13.146,1.828c6.32-1.912,11.827-7.364,15.108-14.96,5.874-13.594,2.707-29.807-7.058-36.142A15.284,15.284,0,0,0,2512.493,1215.837Z" transform="translate(-2485.113 -1212.181)" fill="#371a45"/>
          </g>
          <g id="Grupo_96" data-name="Grupo 96" transform="translate(170.518 113.477)" opacity="0.35">
            <path id="Caminho_87" data-name="Caminho 87" d="M2491.584,1351.953a32.98,32.98,0,0,1,1.5-15.557c2.826,11.636,12.659,17.185,22.843,12.456,6.582-3.053,11.792-9.7,14.409-17.4.183.733.33,1.5.454,2.283,2.04,13.168-5.082,27.923-15.91,32.954S2493.625,1365.114,2491.584,1351.953Z" transform="translate(-2491.234 -1331.448)" fill="#371a45"/>
          </g>
          <g id="Grupo_97" data-name="Grupo 97" transform="translate(169.765 92.784)">
            <path id="Caminho_88" data-name="Caminho 88" d="M2505.6,1251.775c-.191,0-.381,0-.573-.011a16.565,16.565,0,0,1-11.957-6.041c-5.2-5.95-7.734-15.494-6.768-25.529,1.618-16.8,12.507-30.11,24.337-29.67a16.566,16.566,0,0,1,11.957,6.041c5.2,5.95,7.735,15.494,6.768,25.529l-2.4-.231,2.4.231C2527.778,1238.625,2517.185,1251.775,2505.6,1251.775Zm4.441-56.435c-9.135,0-17.577,11.226-18.934,25.317-.842,8.737,1.25,16.92,5.6,21.888a11.866,11.866,0,0,0,8.5,4.4c.139.005.28.008.418.008,9.135,0,17.578-11.227,18.934-25.317h0c.841-8.737-1.252-16.92-5.6-21.888a11.861,11.861,0,0,0-8.5-4.395C2510.324,1195.343,2510.185,1195.34,2510.046,1195.34Z" transform="translate(-2486.104 -1190.514)" fill="#371a45"/>
          </g>
          <g id="Grupo_98" data-name="Grupo 98" transform="translate(11.115 30.165)" opacity="0.7">
            <path id="Caminho_89" data-name="Caminho 89" d="M1508.382,775.948s-44.05-3.755-71.814,17.767l-.088.068a41.642,41.642,0,0,0-13.092,17.434,84.959,84.959,0,0,0-5.607,21.882c-2.431,18.3-.147,27.324-.147,27.324-9.122-11.05-13.528-22.8-11.654-38.063q.283-2.256.746-4.624c.069-.364.146-.722.229-1.083-.007,0,0-.012.008-.021a103.27,103.27,0,0,1,3.929-11.747c5.469-13.579,15.886-30.855,34.649-37.021C1480.624,756.335,1510.143,774.238,1508.382,775.948Z" transform="translate(-1405.555 -764.019)" fill="#fff"/>
          </g>
          <g id="Grupo_99" data-name="Grupo 99" transform="translate(125.648 74.758)" opacity="0.7">
            <ellipse id="Elipse_4" data-name="Elipse 4" cx="13.008" cy="15.158" rx="13.008" ry="15.158" transform="translate(0 3.355) rotate(-7.409)" fill="#fff"/>
          </g>
          <g id="Grupo_100" data-name="Grupo 100" transform="translate(137.476 111.52)" opacity="0.7">
            <ellipse id="Elipse_5" data-name="Elipse 5" cx="5.371" cy="6.259" rx="5.371" ry="6.259" transform="translate(0 2.279) rotate(-12.251)" fill="#fff"/>
          </g>
        </g>
        <g id="Grupo_102" data-name="Grupo 102" transform="translate(120.744 180.807)">
          <path id="Caminho_90" data-name="Caminho 90" d="M1689.419,1859.054a2.414,2.414,0,0,1-1.829-.839l-20.876-24.242a2.415,2.415,0,0,1-.471-2.308l2.526-7.922-6.472-3.534a2.414,2.414,0,0,1-1.257-2.118v-25.026a2.414,2.414,0,0,1,4.828,0v23.594l6.963,3.8a2.415,2.415,0,0,1,1.143,2.852l-2.721,8.534,18.928,21.98,39.883-13.732,1.577-12.38a2.415,2.415,0,0,1,1.628-1.984l26.821-8.983,1.213-24.422a2.413,2.413,0,1,1,4.821.24l-1.294,26.067a2.412,2.412,0,0,1-1.644,2.169l-26.947,9.026-1.575,12.366a2.413,2.413,0,0,1-1.609,1.977l-42.849,14.753A2.4,2.4,0,0,1,1689.419,1859.054Z" transform="translate(-1661.039 -1790.03)" fill="#371a45"/>
        </g>
        <g id="Grupo_103" data-name="Grupo 103" transform="translate(143.998 204.093)">
          <path id="Caminho_91" data-name="Caminho 91" d="M1837.5,1949.558l2.382,24.323-15,16.05-5.464-20.413,7.625-20.892Z" transform="translate(-1819.418 -1948.627)" fill="#ec1c24"/>
        </g>
        <g id="Grupo_104" data-name="Grupo 104" transform="translate(141.584 201.679)">
          <path id="Caminho_92" data-name="Caminho 92" d="M1810.857,1978.319a2.411,2.411,0,0,1-2.331-1.789l-5.464-20.413a2.415,2.415,0,0,1,.064-1.452l7.625-20.892a2.414,2.414,0,0,1,2.482-1.577l10.458.932a2.414,2.414,0,0,1,2.188,2.169l2.382,24.323a2.415,2.415,0,0,1-.639,1.883l-15,16.05A2.415,2.415,0,0,1,1810.857,1978.319Zm-2.936-22.715,4.142,15.475L1823.349,1959l-2.081-21.246-6.619-.59Z" transform="translate(-1802.979 -1932.187)" fill="#371a45"/>
        </g>
        <g id="Grupo_105" data-name="Grupo 105" transform="translate(160.204 199.172)">
          <path id="Caminho_93" data-name="Caminho 93" d="M1938.483,1931.219a2.413,2.413,0,0,1-1.931-.964l-6.268-8.338a2.414,2.414,0,0,1,3.859-2.9l5.042,6.707,20-10.342a2.413,2.413,0,0,1,2.217,4.288l-21.811,11.279A2.4,2.4,0,0,1,1938.483,1931.219Z" transform="translate(-1929.8 -1915.112)" fill="#371a45"/>
        </g>
        <g id="Grupo_106" data-name="Grupo 106" transform="translate(135.037 198.115)">
          <path id="Caminho_94" data-name="Caminho 94" d="M1768.616,1921.008a2.412,2.412,0,0,1-1.755-.756l-7.811-8.269a2.413,2.413,0,1,1,3.508-3.315l6.462,6.84,4.322-2.671a2.414,2.414,0,0,1,2.538,4.106l-6,3.7A2.41,2.41,0,0,1,1768.616,1921.008Z" transform="translate(-1758.391 -1907.912)" fill="#371a45"/>
        </g>
        <g id="Grupo_107" data-name="Grupo 107" transform="translate(151.916 254.861)">
          <circle id="Elipse_6" data-name="Elipse 6" cx="3.775" cy="3.775" r="3.775" transform="translate(0 7.452) rotate(-80.783)" fill="#371a45"/>
        </g>
        <g id="Grupo_108" data-name="Grupo 108" transform="translate(152.472 275.717)">
          <circle id="Elipse_7" data-name="Elipse 7" cx="3.775" cy="3.775" r="3.775" fill="#371a45"/>
        </g>
        <g id="Grupo_109" data-name="Grupo 109" transform="translate(153.103 296.682)">
          <circle id="Elipse_8" data-name="Elipse 8" cx="3.775" cy="3.775" r="3.775" transform="translate(0 0)" fill="#371a45"/>
        </g>
      </g>
    </g>
  </g>
</svg>
