<svg xmlns="http://www.w3.org/2000/svg" width="579" height="579" viewBox="0 0 579 579">
  <g id="Grupo_203" data-name="Grupo 203" transform="translate(0.197 0.197)">
    <g id="Grupo_114" data-name="Grupo 114" transform="translate(-0.197 -0.197)">
      <g id="Grupo_113" data-name="Grupo 113">
        <rect id="Retângulo_8" data-name="Retângulo 8" width="579" height="579" fill="#9d91ff"/>
      </g>
    </g>
    <g id="Grupo_202" data-name="Grupo 202" transform="translate(119.143 89.282)">
      <g id="Grupo_116" data-name="Grupo 116" transform="translate(33.353 370.92)" opacity="0.3">
        <g id="Grupo_115" data-name="Grupo 115">
          <ellipse id="Elipse_9" data-name="Elipse 9" cx="137.552" cy="23.082" rx="137.552" ry="23.082" fill="#371a45"/>
        </g>
      </g>
      <g id="Grupo_201" data-name="Grupo 201">
        <g id="Grupo_118" data-name="Grupo 118" transform="translate(2.168 29.228)">
          <g id="Grupo_117" data-name="Grupo 117">
            <path id="Caminho_95" data-name="Caminho 95" d="M1174.283,944.678c-.072-.282-.152-.55-.246-.818a12.32,12.32,0,0,0-4.3-6.1c-9.406-7.265-30.614,2.294-65.816,12.127-.007,0-.015.007-.022.007-1.245-57.459-11.751-99.571-44.891-118.869a.01.01,0,0,0-.015,0l-.007-.007-.007-.007c-13.415-7.8-30.542-11.867-52.257-11.693-75.4-.593-95.432,49.847-97.176,130.576-35.209-9.833-56.432-19.4-65.838-12.134-14.182,10.955,1.165,43.443,50.4,78.45l1.332-5.687.022.022c-17.113,69.695-2.916,116.336,37.394,141.372A125.611,125.611,0,0,0,961,1164.63a150.745,150.745,0,0,0,91.46,0c62-19.775,86.742-71.265,64.775-157.081l.065-.036,2.041,8.7c36.352-25.839,54.232-50.31,55.4-65.758v-.014A17.859,17.859,0,0,0,1174.283,944.678Zm-70.375,5.752v-.065l.015.072Z" transform="translate(-838.661 -819.313)" fill="#6a5b75" stroke="#371a45" stroke-miterlimit="10" stroke-width="0"/>
          </g>
        </g>
        <g id="Grupo_120" data-name="Grupo 120" transform="translate(51.851 145.325)" opacity="0.55">
          <g id="Grupo_119" data-name="Grupo 119">
            <path id="Caminho_96" data-name="Caminho 96" d="M1463.375,1623.907c-8.98-6.939-33.415,2.8-65.838,12.134.08,2.337,1.189,4,1.24,6.394,34.08-9.515,58.694-19.411,68.535-13.413A12.3,12.3,0,0,0,1463.375,1623.907Zm-47.561,75.52-.065.036c.065.253.13.506.188.753a.219.219,0,0,0,.051-.036Zm-223.15,8.661c.9-4.03,1.715-8.075,2.366-12.149a3.736,3.736,0,0,0-3.871-4.313l-.232.015s-3.386,11.707-3.582,12.641c-11.556,53.024-4.189,92.06,19.631,117.805C1186.81,1796.074,1181.361,1758.268,1192.664,1708.088Z" transform="translate(-1181.98 -1621.557)" fill="#fff"/>
          </g>
        </g>
        <g id="Grupo_122" data-name="Grupo 122" transform="translate(2.166 29.228)" opacity="0.55">
          <g id="Grupo_121" data-name="Grupo 121">
            <path id="Caminho_97" data-name="Caminho 97" d="M1079.421,849.138c-14.862-15.788-36.591-24.3-67.821-24.052-74.227-.584-94.8,48.294-97.082,126.841a38.263,38.263,0,0,1-1,7.6l-5.262,22.506,1.172-27.785c-32.235-9.3-51.895-17.634-60.845-10.716-8.813,6.809-6.223,21.932,8.813,40.81-19.29-21.541-23.393-39.087-13.7-46.576,9.406-7.265,30.629,2.3,65.838,12.134,1.744-80.729,21.78-131.17,97.176-130.576C1041.556,819.044,1064.573,829.666,1079.421,849.138Z" transform="translate(-838.651 -819.314)" fill="#fff"/>
          </g>
        </g>
        <g id="Grupo_127" data-name="Grupo 127" transform="translate(267.415 160.28)" opacity="0.55">
          <g id="Grupo_124" data-name="Grupo 124">
            <g id="Grupo_123" data-name="Grupo 123">
              <path id="Caminho_98" data-name="Caminho 98" d="M2671.554,1724.9v.065l.014.007Z" transform="translate(-2671.554 -1724.9)" fill="#fff"/>
            </g>
          </g>
          <g id="Grupo_126" data-name="Grupo 126">
            <g id="Grupo_125" data-name="Grupo 125">
              <path id="Caminho_99" data-name="Caminho 99" d="M2671.554,1724.9v.065l.014.007Z" transform="translate(-2671.554 -1724.9)" fill="none" stroke="#371a45" stroke-miterlimit="10" stroke-width="0"/>
            </g>
          </g>
        </g>
        <g id="Grupo_129" data-name="Grupo 129" transform="translate(73.49 362.461)">
          <g id="Grupo_128" data-name="Grupo 128">
            <path id="Caminho_100" data-name="Caminho 100" d="M1410.882,3140.183c-.166,13.5-16.331,15.8-24.5,8.813a37.569,37.569,0,0,1-3.922,4.537,19.213,19.213,0,0,1-8.734,5.224c-7.851,1.91-15.521-3.538-21.519-14.84q-.543.184-1.064.347c-22.286,6.953-31.4-7.714,4.269-22.264l25.81,8.458Z" transform="translate(-1331.506 -3122)" fill="#ffb127"/>
          </g>
        </g>
        <g id="Grupo_131" data-name="Grupo 131" transform="translate(73.491 362.461)" opacity="0.6">
          <g id="Grupo_130" data-name="Grupo 130">
            <path id="Caminho_101" data-name="Caminho 101" d="M1410.891,3140.183c-.007.767.1.072-.007.767l-52.1-15.6c-18.545,7.569-24.985,15.159-23.762,19.732-7.453-3.082-4.045-13.1,20.4-23.082Z" transform="translate(-1331.517 -3122)" fill="#fff"/>
          </g>
        </g>
        <g id="Grupo_133" data-name="Grupo 133" transform="translate(115.71 370.92)" opacity="0.3">
          <g id="Grupo_132" data-name="Grupo 132">
            <path id="Caminho_102" data-name="Caminho 102" d="M1660.41,3190.175c-.166,13.5-16.331,15.8-24.5,8.813a37.543,37.543,0,0,1-3.922,4.537,19.221,19.221,0,0,1-8.734,5.224,19.326,19.326,0,0,0,4.855-26.671l2.641-1.628Z" transform="translate(-1623.254 -3180.45)" fill="#371a45"/>
          </g>
        </g>
        <g id="Grupo_135" data-name="Grupo 135" transform="translate(92.708 378.228)" opacity="0.6">
          <g id="Grupo_134" data-name="Grupo 134">
            <path id="Caminho_103" data-name="Caminho 103" d="M1497.147,3242.767c-.029.159-.391,1.758-1.107,3.951-10.673,10.369-22.033,5.875-30.253-9.616q-.543.185-1.063.347l-.42-6.345h0a4.178,4.178,0,0,1,4.941,2.357c2.048,4.668,6.654,12.655,14.523,13.756C1494.672,3248.736,1497.024,3243.078,1497.147,3242.767Z" transform="translate(-1464.304 -3230.951)" fill="#fff"/>
          </g>
        </g>
        <g id="Grupo_137" data-name="Grupo 137" transform="translate(188.668 362.461)">
          <g id="Grupo_136" data-name="Grupo 136">
            <path id="Caminho_104" data-name="Caminho 104" d="M2186.08,3143.917c-9.233,17.409-22.438,20.933-34.167,5.079-8.169,6.99-24.333,4.689-24.507-8.813l16.4-5.376,34.753-11.389,4.32-1.418C2219.111,3136.782,2209.14,3151.681,2186.08,3143.917Z" transform="translate(-2127.405 -3122)" fill="#ffb127"/>
          </g>
        </g>
        <g id="Grupo_139" data-name="Grupo 139" transform="translate(58.515 75.267)">
          <g id="Grupo_138" data-name="Grupo 138">
            <path id="Caminho_105" data-name="Caminho 105" d="M1438.635,1402.759c-55.947,64.282-167.184,42.489-196.436,0-28.154-41.28-7.344-79.586,2.619-93.833a119.434,119.434,0,0,0,13.292-24.45c8.979-22.7,6.592-37.828,3.516-85.642-3.053-28.769,13.618-54.673,33.762-60.39,13.437-3.821,28.979,3.01,40.339,25.759a5.536,5.536,0,0,0,9.826.08c13.046-24.421,28.646-30.34,42.807-24.862,18.806,7.272,33.747,32.04,30.846,59.413-3.075,47.814-5.463,62.944,3.509,85.642a119.8,119.8,0,0,0,13.3,24.45C1445.971,1323.173,1466.782,1361.479,1438.635,1402.759Z" transform="translate(-1228.027 -1137.445)" fill="#fff"/>
          </g>
        </g>
        <g id="Grupo_141" data-name="Grupo 141" transform="translate(188.668 362.461)" opacity="0.3">
          <g id="Grupo_140" data-name="Grupo 140">
            <path id="Caminho_106" data-name="Caminho 106" d="M2186.08,3143.917c-9.233,17.409-22.438,20.933-34.167,5.079-8.169,6.99-24.333,4.689-24.507-8.813l16.4-5.376c1.23.3,2.46.6,3.7.883,6.063,1.4,9.761,7.974,15.731,9.746,5.282,1.57,11.266-1.331,14.153-6.027s2.959-10.752,1.158-15.962c.007-.007.007-.022.014-.029l4.32-1.418C2219.111,3136.782,2209.14,3151.681,2186.08,3143.917Z" transform="translate(-2127.405 -3122)" fill="#371a45"/>
          </g>
        </g>
        <g id="Grupo_143" data-name="Grupo 143" transform="translate(176.693 129.333)" opacity="0.3">
          <g id="Grupo_142" data-name="Grupo 142">
            <path id="Caminho_107" data-name="Caminho 107" d="M2044.655,1511.05c32.561,15.992,32.078,39.4,6.753,29.032" transform="translate(-2044.655 -1511.05)" fill="#371a45"/>
          </g>
        </g>
        <g id="Grupo_145" data-name="Grupo 145" transform="translate(70.928 27.074)">
          <g id="Grupo_144" data-name="Grupo 144">
            <path id="Caminho_108" data-name="Caminho 108" d="M1416.208,808.806a142.34,142.34,0,0,0-24.746,1.446,89.237,89.237,0,0,0-23.554,6.834A66.575,66.575,0,0,0,1348,831.008c-1.49,1.391-2.76,2.993-4.106,4.523-.693.749-1.268,1.6-1.887,2.408l-1.835,2.452-1.667,2.576c-.545.866-1.145,1.7-1.62,2.607l-1.506,2.682c-.246.449-.513.887-.743,1.346l-.674,1.386a120.147,120.147,0,0,0-8.5,23.21,191.039,191.039,0,0,0-4.527,24.5c-.246,2.068-.515,4.132-.7,6.21s-.446,4.144-.6,6.226l-.481,6.241c-.111,2.086-.269,4.168-.4,6.253-.212,4.173-.5,8.345-.63,12.529-.088,2.091-.283,4.179-.5,6.272a46.235,46.235,0,0,1-1.106,6.283l0,.019a.743.743,0,0,1-1.442-.021,55.053,55.053,0,0,1-1.272-12.656c.005-2.11.028-4.221.091-6.332s.086-4.223.2-6.334.2-4.223.333-6.333l.507-6.327c.389-4.215.808-8.431,1.425-12.628a212,212,0,0,1,4.9-25,125.593,125.593,0,0,1,8.821-24.047l.705-1.448c.241-.48.52-.942.779-1.413l1.581-2.815c.5-.953,1.131-1.833,1.7-2.745l1.76-2.714,1.94-2.6c.655-.859,1.267-1.751,2-2.55,1.426-1.627,2.779-3.321,4.362-4.807a70.922,70.922,0,0,1,21.177-14.813,93.522,93.522,0,0,1,24.707-7.182,146.652,146.652,0,0,1,25.526-1.5,2.171,2.171,0,0,1-.093,4.34Z" transform="translate(-1313.805 -804.423)" fill="#371a45"/>
          </g>
        </g>
        <g id="Grupo_147" data-name="Grupo 147" transform="translate(0 142.93)">
          <g id="Grupo_146" data-name="Grupo 146">
            <path id="Caminho_109" data-name="Caminho 109" d="M880.047,1689.966c-34.409-24.461-56.006-50.772-56.362-68.667-.112-5.617,1.925-10.206,5.89-13.269,8.1-6.259,22.162-1.958,45.458,5.166,6.644,2.032,14.175,4.335,22.381,6.626L896.246,1624c-8.258-2.305-15.815-4.616-22.483-6.656-21.2-6.484-35.208-10.766-41.534-5.882-2.874,2.22-4.288,5.5-4.2,9.747.258,12.968,14.721,36.91,54.537,65.214Z" transform="translate(-823.681 -1605.005)" fill="#371a45"/>
          </g>
        </g>
        <g id="Grupo_149" data-name="Grupo 149" transform="translate(164.896 27.074)">
          <g id="Grupo_148" data-name="Grupo 148">
            <path id="Caminho_110" data-name="Caminho 110" d="M1965.258,804.466a146.648,146.648,0,0,1,25.525,1.5,93.521,93.521,0,0,1,24.706,7.182,70.929,70.929,0,0,1,21.178,14.813c1.583,1.486,2.936,3.18,4.362,4.807.733.8,1.345,1.691,2,2.55l1.939,2.6,1.76,2.714c.575.912,1.205,1.792,1.705,2.745l1.581,2.815c.258.471.537.933.779,1.413l.705,1.448a126.8,126.8,0,0,1,8.832,24.044,212.892,212.892,0,0,1,4.9,25c.617,4.2,1.016,8.415,1.413,12.63l.507,6.327.324,6.333c.117,2.111.137,4.223.2,6.334s.092,4.222.09,6.333a57.281,57.281,0,0,1-1.262,12.656.742.742,0,0,1-1.444.014l0-.012a69.484,69.484,0,0,1-1.6-12.555c-.142-4.184-.412-8.357-.634-12.529l-.41-6.252-.481-6.241c-.37-4.154-.785-8.3-1.308-12.434a190.392,190.392,0,0,0-4.523-24.5,119,119,0,0,0-8.485-23.213l-.674-1.386c-.231-.459-.5-.9-.743-1.346l-1.505-2.682c-.475-.911-1.075-1.741-1.62-2.607l-1.667-2.576-1.834-2.452c-.619-.811-1.195-1.659-1.887-2.408-1.346-1.529-2.616-3.132-4.106-4.523a66.576,66.576,0,0,0-19.907-13.922,89.235,89.235,0,0,0-23.553-6.834,142.345,142.345,0,0,0-24.746-1.446h-.02a2.171,2.171,0,1,1-.093-4.34Z" transform="translate(-1963.134 -804.423)" fill="#371a45"/>
          </g>
        </g>
        <g id="Grupo_151" data-name="Grupo 151" transform="translate(49.534 213.68)">
          <g id="Grupo_150" data-name="Grupo 150">
            <path id="Caminho_111" data-name="Caminho 111" d="M1397.036,2094.288a31.217,31.217,0,0,1,1.675,3.472c.5,1.174.948,2.366,1.361,3.566.818,2.4,1.347,4.882,1.938,7.343,1.1,4.942,2.118,9.911,2.906,14.924l.314,1.876.257,1.887.5,3.775c.178,1.257.3,2.522.413,3.788l.357,3.8c.139,1.263.185,2.536.265,3.806l.219,3.81c.091,2.544.125,5.093.148,7.639a142.745,142.745,0,0,1-3.417,30.407c-.3,1.246-.648,2.48-.97,3.72l-.493,1.858c-.166.619-.386,1.223-.576,1.836l-1.186,3.662-1.369,3.6-.689,1.8-.791,1.759c-.535,1.169-1.04,2.352-1.6,3.509-1.2,2.274-2.326,4.593-3.71,6.768-1.271,2.242-2.778,4.334-4.23,6.46-.753,1.044-1.571,2.041-2.354,3.063l-1.191,1.521-1.276,1.45a88.837,88.837,0,0,1-11.052,10.75l-3.013,2.406c-1.032.763-2.088,1.495-3.131,2.242l-1.571,1.113-1.624,1.031c-1.086.682-2.161,1.383-3.256,2.048l-3.347,1.887c-.561.308-1.109.642-1.681.929l-1.716.859c-1.147.567-2.283,1.156-3.438,1.7l-3.5,1.552a152.1,152.1,0,0,1-119.08,0l-3.505-1.552c-1.155-.548-2.292-1.137-3.438-1.7l-1.716-.859c-.572-.287-1.12-.621-1.681-.929l-3.347-1.887c-1.1-.665-2.17-1.366-3.256-2.048l-1.624-1.031-1.571-1.113c-1.043-.748-2.1-1.479-3.131-2.242l-3.013-2.406a88.848,88.848,0,0,1-11.052-10.75l-1.275-1.45-1.191-1.521c-.783-1.022-1.6-2.019-2.354-3.062-1.453-2.126-2.959-4.219-4.23-6.46-1.384-2.175-2.506-4.493-3.71-6.768-.56-1.157-1.065-2.34-1.6-3.509l-.791-1.759-.69-1.8c-.455-1.2-.929-2.4-1.366-3.6l-1.175-3.665c-.188-.613-.407-1.218-.571-1.837l-.488-1.86c-.322-1.24-.672-2.474-.971-3.719a143.006,143.006,0,0,1-3.411-30.4c.028-2.546.039-5.095.126-7.639l.219-3.81c.079-1.27.125-2.542.264-3.805.437-5.065,1.007-10.117,1.835-15.124.79-5.013,1.805-9.982,2.916-14.923.577-2.464,1.169-4.928,1.977-7.333.414-1.2.869-2.389,1.356-3.566a35.152,35.152,0,0,1,1.634-3.482.746.746,0,0,1,1.4.353v.02a35.6,35.6,0,0,1-.214,3.825c-.129,1.258-.29,2.5-.492,3.74-.381,2.477-.824,4.931-1.366,7.365q-1.459,7.335-2.563,14.718c-.712,4.923-1.332,9.854-1.76,14.8-.14,1.235-.187,2.474-.266,3.711l-.223,3.714c-.1,2.476-.152,4.953-.207,7.43a132.952,132.952,0,0,0,3.031,29.422c.28,1.2.609,2.385.911,3.578l.467,1.786c.157.6.367,1.173.548,1.761l1.125,3.512c.419,1.155.874,2.3,1.308,3.444l.658,1.72.756,1.678c.51,1.115.992,2.245,1.525,3.349,1.15,2.165,2.215,4.377,3.535,6.444,1.208,2.135,2.644,4.122,4.023,6.146.717.992,1.5,1.939,2.24,2.911l1.131,1.447,1.214,1.379a84.537,84.537,0,0,0,10.528,10.24l2.877,2.3c.988.729,2,1.428,3,2.145l1.5,1.066,1.559.987c1.042.654,2.071,1.327,3.123,1.966l3.219,1.813c.54.3,1.065.618,1.617.894l1.654.827c1.106.546,2.2,1.115,3.314,1.644l3.387,1.5,1.7.745,1.728.673,3.455,1.347,3.51,1.207c1.173.395,2.335.822,3.529,1.154l3.56,1.059c1.182.368,2.394.63,3.59.951,2.389.652,4.816,1.149,7.237,1.667,1.206.282,2.433.462,3.651.683,1.221.2,2.436.448,3.662.618,2.456.313,4.9.716,7.371.909,1.233.114,2.464.248,3.7.346l3.708.213,1.855.1,1.856.035,3.714.072,3.714-.072,1.857-.035,1.854-.1,3.708-.213c1.234-.1,2.465-.232,3.7-.346,2.47-.193,4.916-.6,7.372-.909,1.226-.171,2.441-.415,3.662-.618,1.218-.221,2.444-.4,3.65-.683,2.421-.518,4.848-1.015,7.237-1.667,1.2-.321,2.407-.583,3.59-.951l3.56-1.059c1.193-.332,2.355-.759,3.529-1.154l3.511-1.207,3.455-1.347,1.728-.673,1.7-.745,3.387-1.5c1.114-.529,2.208-1.1,3.314-1.644l1.654-.827c.552-.276,1.077-.6,1.616-.894l3.219-1.813c1.052-.638,2.081-1.312,3.123-1.966l1.559-.987,1.5-1.066c1-.716,2.009-1.416,3-2.145l2.876-2.3a84.5,84.5,0,0,0,10.528-10.24l1.214-1.379,1.131-1.447c.744-.972,1.523-1.919,2.24-2.911,1.379-2.024,2.815-4.01,4.023-6.146,1.32-2.067,2.385-4.279,3.535-6.444.533-1.1,1.014-2.233,1.525-3.349l.756-1.678.658-1.72c.433-1.149.891-2.289,1.3-3.445l1.114-3.515c.179-.588.388-1.167.542-1.762l.462-1.787c.3-1.193.631-2.379.911-3.577a133.16,133.16,0,0,0,3.025-29.417c-.061-2.476-.091-4.954-.186-7.43l-.223-3.714c-.08-1.237-.127-2.477-.266-3.711q-.657-7.418-1.749-14.8t-2.574-14.716c-.528-2.437-1.034-4.877-1.4-7.355-.2-1.235-.376-2.479-.488-3.741a31.6,31.6,0,0,1-.174-3.835v-.019a.749.749,0,0,1,1.4-.354Z" transform="translate(-1165.967 -2093.903)" fill="#371a45"/>
          </g>
        </g>
        <g id="Grupo_153" data-name="Grupo 153" transform="translate(266.732 142.93)">
          <g id="Grupo_152" data-name="Grupo 152">
            <path id="Caminho_112" data-name="Caminho 112" d="M2684.2,1689.966l-2.516-3.539c39.816-28.3,54.279-52.247,54.537-65.214.085-4.248-1.329-7.527-4.2-9.747-6.325-4.887-20.333-.6-41.535,5.882-6.667,2.039-14.225,4.35-22.482,6.656l-1.167-4.182c8.206-2.291,15.735-4.593,22.379-6.625,23.3-7.125,37.358-11.425,45.459-5.166,3.965,3.063,6,7.652,5.89,13.269C2740.208,1639.193,2718.611,1665.5,2684.2,1689.966Z" transform="translate(-2666.836 -1605.004)" fill="#371a45"/>
          </g>
        </g>
        <g id="Grupo_158" data-name="Grupo 158" transform="translate(114.753 103.73)">
          <g id="Grupo_155" data-name="Grupo 155" transform="translate(0 0)">
            <g id="Grupo_154" data-name="Grupo 154">
              <ellipse id="Elipse_10" data-name="Elipse 10" cx="21.292" cy="15.417" rx="21.292" ry="15.417" transform="translate(0 42.457) rotate(-85.553)" fill="#371a45"/>
            </g>
          </g>
          <g id="Grupo_157" data-name="Grupo 157" transform="translate(16.009 11.896)">
            <g id="Grupo_156" data-name="Grupo 156" transform="translate(0 0)">
              <ellipse id="Elipse_11" data-name="Elipse 11" cx="7.15" cy="4.658" rx="7.15" ry="4.658" transform="matrix(0.078, -0.997, 0.997, 0.078, 0, 14.257)" fill="#fff"/>
            </g>
          </g>
        </g>
        <g id="Grupo_163" data-name="Grupo 163" transform="translate(192.899 103.73)">
          <g id="Grupo_160" data-name="Grupo 160" transform="translate(0 0)">
            <g id="Grupo_159" data-name="Grupo 159">
              <ellipse id="Elipse_12" data-name="Elipse 12" cx="15.417" cy="21.292" rx="15.417" ry="21.292" transform="translate(0 2.391) rotate(-4.447)" fill="#371a45"/>
            </g>
          </g>
          <g id="Grupo_162" data-name="Grupo 162" transform="translate(7.637 11.896)">
            <g id="Grupo_161" data-name="Grupo 161" transform="translate(0 0)">
              <ellipse id="Elipse_13" data-name="Elipse 13" cx="4.658" cy="7.15" rx="4.658" ry="7.15" transform="matrix(0.997, -0.078, 0.078, 0.997, 0, 0.722)" fill="#fff"/>
            </g>
          </g>
        </g>
        <g id="Grupo_178" data-name="Grupo 178" transform="translate(151.841 127.157)">
          <g id="Grupo_165" data-name="Grupo 165" transform="translate(5.363 23.807)">
            <g id="Grupo_164" data-name="Grupo 164">
              <path id="Caminho_113" data-name="Caminho 113" d="M1937.37,1660.522c0,5.744-1.42,10.18-3.623,13.309-5.187,7.4-14.717,7.477-20,.213-2.278-3.135-3.767-7.646-3.767-13.521" transform="translate(-1909.983 -1660.522)" fill="#371a45"/>
            </g>
          </g>
          <g id="Grupo_167" data-name="Grupo 167" transform="translate(2.173 2.167)">
            <g id="Grupo_166" data-name="Grupo 166">
              <path id="Caminho_114" data-name="Caminho 114" d="M1919.367,1531.722l-13.191,2.142a6.3,6.3,0,0,1-.731.087,8.455,8.455,0,0,1-2.048-.087l-13.111-2.127a2.81,2.81,0,0,1-2.084-3.965c5.4-11.461,11.367-17.033,17.243-16.772,5.622.26,11.157,5.875,16.027,16.816A2.8,2.8,0,0,1,1919.367,1531.722Z" transform="translate(-1887.935 -1510.99)" fill="#ffb127"/>
            </g>
          </g>
          <g id="Grupo_169" data-name="Grupo 169" transform="translate(2.806 2.145)" opacity="0.6">
            <g id="Grupo_168" data-name="Grupo 168">
              <path id="Caminho_115" data-name="Caminho 115" d="M1915.565,1513.008a9.17,9.17,0,0,0-2.308-.412c-5.875-.261-11.845,5.311-17.243,16.773a2.82,2.82,0,0,0,.022,2.438l-1.375-.224a2.81,2.81,0,0,1-2.084-3.965c5.4-11.461,11.367-17.033,17.243-16.773A10.667,10.667,0,0,1,1915.565,1513.008Z" transform="translate(-1892.31 -1510.836)" fill="#fff"/>
            </g>
          </g>
          <g id="Grupo_171" data-name="Grupo 171" transform="translate(9.124 33.267)">
            <g id="Grupo_170" data-name="Grupo 170">
              <path id="Caminho_116" data-name="Caminho 116" d="M1955.972,1729.745c-5.187,7.4-14.716,7.477-20,.213-.006-.1-.006-.156-.006-.156Q1945.757,1722.02,1955.972,1729.745Z" transform="translate(-1935.968 -1725.896)" fill="#eb5463"/>
            </g>
          </g>
          <g id="Grupo_173" data-name="Grupo 173">
            <g id="Grupo_172" data-name="Grupo 172">
              <path id="Caminho_117" data-name="Caminho 117" d="M1891.946,1523.339a10.848,10.848,0,0,1-1.736-.14l-13.114-2.13a4.974,4.974,0,0,1-3.7-7.028c5.635-11.962,11.958-18.026,18.793-18.026h.125c6.825.073,12.981,6.166,18.3,18.108a4.973,4.973,0,0,1-3.741,6.931l-13.193,2.143A10.872,10.872,0,0,1,1891.946,1523.339Zm.256-22.982c-4.873,0-10.152,5.512-14.874,15.535a.624.624,0,0,0,.013.565.615.615,0,0,0,.452.327l13.113,2.13a6.46,6.46,0,0,0,2.08,0l13.192-2.143h0a.614.614,0,0,0,.447-.32.624.624,0,0,0,.022-.561c-4.435-9.965-9.541-15.48-14.377-15.532Z" transform="translate(-1872.921 -1496.015)" fill="#371a45"/>
            </g>
          </g>
          <g id="Grupo_175" data-name="Grupo 175" transform="translate(3.486 21.93)">
            <g id="Grupo_174" data-name="Grupo 174">
              <path id="Caminho_118" data-name="Caminho 118" d="M1912.58,1670.221a14.188,14.188,0,0,1-11.443-6.167c-2.7-3.715-4.125-8.772-4.125-14.625a1.877,1.877,0,1,1,3.753,0c0,5.055,1.179,9.349,3.409,12.418a10.486,10.486,0,0,0,8.407,4.62h.08a10.54,10.54,0,0,0,8.455-4.807c2.148-3.051,3.283-7.28,3.283-12.231a1.877,1.877,0,1,1,3.754,0c0,5.73-1.371,10.706-3.965,14.389a14.239,14.239,0,0,1-11.494,6.4Z" transform="translate(-1897.012 -1647.551)" fill="#371a45"/>
            </g>
          </g>
          <g id="Grupo_177" data-name="Grupo 177" transform="translate(19.683 2.176)" opacity="0.3">
            <g id="Grupo_176" data-name="Grupo 176">
              <path id="Caminho_119" data-name="Caminho 119" d="M2022.854,1531.773l-13.191,2.142a6.325,6.325,0,0,1-.731.087V1511.05c5.622.26,11.157,5.875,16.027,16.816A2.8,2.8,0,0,1,2022.854,1531.773Z" transform="translate(-2008.932 -1511.05)" fill="#371a45"/>
            </g>
          </g>
        </g>
        <g id="Grupo_180" data-name="Grupo 180" transform="translate(71.294 360.292)">
          <g id="Grupo_179" data-name="Grupo 179">
            <path id="Caminho_120" data-name="Caminho 120" d="M1357.647,3148.484c-.374,0-.735-.015-1.083-.04-6.824-.51-13.151-5.6-18.373-14.744-10.729,3.188-19.419,1.76-21.435-3.661-2.573-6.919,6.721-15.468,24.864-22.869a2.17,2.17,0,1,1,1.639,4.019c-18.269,7.454-23.456,14.589-22.434,17.336.9,2.412,7.554,3.933,17.717.511a2.172,2.172,0,0,1,2.61,1.04c4.582,8.638,10.17,13.624,15.736,14.04,4.929.374,10.03-2.824,14.769-9.231a2.171,2.171,0,0,1,3.156-.359,14.863,14.863,0,0,0,15.1,2.176c2.617-1.186,5.752-3.774,5.822-9.366a2.171,2.171,0,0,1,2.17-2.144h.028a2.171,2.171,0,0,1,2.144,2.2c-.076,6.055-3.127,10.89-8.372,13.267a19.2,19.2,0,0,1-17.894-1.474C1367.681,3146.677,1361.844,3148.484,1357.647,3148.484Z" transform="translate(-1316.334 -3107.008)" fill="#371a45"/>
          </g>
        </g>
        <g id="Grupo_182" data-name="Grupo 182" transform="translate(91.772 376.746)">
          <g id="Grupo_181" data-name="Grupo 181">
            <path id="Caminho_121" data-name="Caminho 121" d="M1459.367,3221.287c.164.506.381,1.086.605,1.623s.47,1.086.724,1.622c.508,1.071,1.057,2.122,1.636,3.156a2.217,2.217,0,1,1-4.136,1.345l0-.041c-.143-1.256-.25-2.517-.308-3.78-.029-.632-.046-1.263-.043-1.9s.02-1.249.083-1.94a.73.73,0,0,1,1.421-.16Z" transform="translate(-1457.839 -3220.709)" fill="#371a45"/>
          </g>
        </g>
        <g id="Grupo_184" data-name="Grupo 184" transform="translate(125.923 383.082)">
          <g id="Grupo_183" data-name="Grupo 183">
            <path id="Caminho_122" data-name="Caminho 122" d="M1694.571,3269.511a23.624,23.624,0,0,1,2.026-1.679,25.3,25.3,0,0,1,2.13-1.439,13.232,13.232,0,0,1,4.85-1.893.728.728,0,0,1,.418,1.376l-.047.022a11.264,11.264,0,0,0-3.4,2.743,22.094,22.094,0,0,0-1.4,1.755,19.5,19.5,0,0,0-1.192,1.832,2.2,2.2,0,1,1-3.447-2.66Z" transform="translate(-1693.825 -3264.492)" fill="#371a45"/>
          </g>
        </g>
        <g id="Grupo_186" data-name="Grupo 186" transform="translate(186.499 360.292)">
          <g id="Grupo_185" data-name="Grupo 185">
            <path id="Caminho_123" data-name="Caminho 123" d="M2154.848,3148.486c-4.2,0-10.033-1.806-16.167-9.3a19.2,19.2,0,0,1-17.894,1.474c-5.244-2.376-8.3-7.212-8.372-13.267a2.171,2.171,0,1,1,4.341-.054c.07,5.592,3.205,8.18,5.823,9.366a14.86,14.86,0,0,0,15.1-2.177,2.171,2.171,0,0,1,3.156.359c4.739,6.406,9.84,9.606,14.768,9.23,5.566-.416,11.155-5.4,15.737-14.04a2.172,2.172,0,0,1,2.61-1.04c10.164,3.421,16.819,1.9,17.717-.511,1.022-2.747-4.166-9.883-22.434-17.336a2.17,2.17,0,0,1,1.639-4.019c18.142,7.4,27.437,15.95,24.864,22.869-2.016,5.421-10.706,6.85-21.435,3.661-5.222,9.146-11.55,14.234-18.374,14.744C2155.583,3148.471,2155.222,3148.486,2154.848,3148.486Z" transform="translate(-2112.416 -3107.01)" fill="#371a45"/>
          </g>
        </g>
        <g id="Grupo_188" data-name="Grupo 188" transform="translate(244.992 376.746)">
          <g id="Grupo_187" data-name="Grupo 187">
            <path id="Caminho_124" data-name="Caminho 124" d="M2521.3,3221.372c.062.691.079,1.3.083,1.94s-.014,1.266-.043,1.9c-.058,1.263-.165,2.524-.308,3.78l0,.029a2.217,2.217,0,0,1-4.406-.5,2.26,2.26,0,0,1,.268-.832c.579-1.034,1.128-2.085,1.636-3.156.253-.535.5-1.076.723-1.622s.441-1.117.605-1.622l.024-.074a.73.73,0,0,1,1.421.16Z" transform="translate(-2516.607 -3220.707)" fill="#371a45"/>
          </g>
        </g>
        <g id="Grupo_190" data-name="Grupo 190" transform="translate(205.033 383.082)">
          <g id="Grupo_189" data-name="Grupo 189">
            <path id="Caminho_125" data-name="Caminho 125" d="M2246.935,3272.229a19.4,19.4,0,0,0-1.192-1.832,22.1,22.1,0,0,0-1.4-1.755,11.259,11.259,0,0,0-3.4-2.743l-.046-.022a.728.728,0,0,1,.417-1.376,13.226,13.226,0,0,1,4.85,1.893,25.225,25.225,0,0,1,2.131,1.439,23.663,23.663,0,0,1,2.025,1.678l.053.05a2.2,2.2,0,1,1-3.02,3.208A2.267,2.267,0,0,1,2246.935,3272.229Z" transform="translate(-2240.485 -3264.494)" fill="#371a45"/>
          </g>
        </g>
        <g id="Grupo_192" data-name="Grupo 192" transform="translate(158.21 2.157)">
          <g id="Grupo_191" data-name="Grupo 191">
            <path id="Caminho_126" data-name="Caminho 126" d="M1922.393,666.171c-18.089-33.526,14.325-49.467,17.288-13.422,10.839-18.9,34.809-3.54,6.108,13.422" transform="translate(-1916.934 -632.246)" fill="#6a5b75" stroke="#371a45" stroke-miterlimit="10" stroke-width="0"/>
          </g>
        </g>
        <g id="Grupo_194" data-name="Grupo 194" transform="translate(158.211 2.155)" opacity="0.55">
          <g id="Grupo_193" data-name="Grupo 193">
            <path id="Caminho_127" data-name="Caminho 127" d="M1935.439,637.7c-8.994-6.628-19.672,7.175-12.858,27.5l-.181.962C1907.712,638.928,1926.329,623.3,1935.439,637.7Z" transform="translate(-1916.943 -632.233)" fill="#fff"/>
          </g>
        </g>
        <g id="Grupo_196" data-name="Grupo 196" transform="translate(181.035 14.603)" opacity="0.55">
          <g id="Grupo_195" data-name="Grupo 195">
            <path id="Caminho_128" data-name="Caminho 128" d="M2094,722.085c-3.445-1.577-8.71-.734-13.068,3.89a3.69,3.69,0,0,1-6.265-1.56l-.015-.063C2081.16,716.668,2092.339,716.622,2094,722.085Z" transform="translate(-2074.655 -718.25)" fill="#fff"/>
          </g>
        </g>
        <g id="Grupo_198" data-name="Grupo 198" transform="translate(155.859)">
          <g id="Grupo_197" data-name="Grupo 197">
            <path id="Caminho_129" data-name="Caminho 129" d="M1907.863,653.766a19.851,19.851,0,0,1-4.728-7.183,41.163,41.163,0,0,1-1.368-4.129c-.191-.7-.328-1.427-.481-2.144a20.461,20.461,0,0,1-.351-2.182,26.019,26.019,0,0,1,.318-8.975,17.69,17.69,0,0,1,4.272-8.371,12.279,12.279,0,0,1,4.211-2.829,9.94,9.94,0,0,1,5.236-.45,10.924,10.924,0,0,1,4.641,2.111,13.067,13.067,0,0,1,1.789,1.651c.266.3.546.587.8.893l.68.951a26.8,26.8,0,0,1,3.63,8.188l.53,2.122.379,2.133c.143.711.225,1.423.3,2.135l.238,2.135-4.046-.9a24.3,24.3,0,0,1,4.074-5.249,16.746,16.746,0,0,1,5.8-3.686l.839-.289c.281-.093.58-.144.869-.216a10.993,10.993,0,0,1,1.785-.284,13.963,13.963,0,0,1,1.838-.031,11.838,11.838,0,0,1,1.859.3,9.376,9.376,0,0,1,3.527,1.656,7.823,7.823,0,0,1,2.529,3.209,8.8,8.8,0,0,1,.595,1.973c.063.334.068.666.1,1a4.838,4.838,0,0,1,0,.989l-.083.971c-.042.318-.126.615-.191.924a9.8,9.8,0,0,1-.551,1.757,17.921,17.921,0,0,1-3.792,5.667,22.148,22.148,0,0,1-10.846,6.431.761.761,0,0,1-.744-1.238l.007-.008c2.739-3.154,5.752-5.528,8.188-8.3a17.877,17.877,0,0,0,2.878-4.316,5.3,5.3,0,0,0,.359-4.114,3.42,3.42,0,0,0-1.128-1.5,4.533,4.533,0,0,0-1.888-.893,8.005,8.005,0,0,0-4.665.382,12.424,12.424,0,0,0-4.3,2.755,19.982,19.982,0,0,0-3.3,4.261,2.181,2.181,0,0,1-4.042-.859l-.005-.043-.221-1.968c-.067-.658-.142-1.314-.273-1.953l-.342-1.934-.472-1.884a22.573,22.573,0,0,0-3-6.844l-.516-.732c-.186-.226-.39-.427-.582-.644a8.75,8.75,0,0,0-1.235-1.149,6.419,6.419,0,0,0-2.793-1.287,5.545,5.545,0,0,0-2.88.29,7.9,7.9,0,0,0-2.552,1.795,13.313,13.313,0,0,0-2.917,6.27,24.825,24.825,0,0,0-.242,7.453c.079,1.271.383,2.531.59,3.8.308,1.261.586,2.53,1.007,3.777.337,1.268.757,2.522,1.079,3.833.142.663.335,1.314.494,1.984a18.148,18.148,0,0,1,.369,2.091l.006.064a.759.759,0,0,1-1.28.623Z" transform="translate(-1900.691 -617.341)" fill="#371a45"/>
          </g>
        </g>
        <g id="Grupo_200" data-name="Grupo 200" transform="translate(118.807 40.938)" opacity="0.3">
          <g id="Grupo_199" data-name="Grupo 199">
            <path id="Caminho_130" data-name="Caminho 130" d="M1770.268,1106.985c-15.311-32.734-8.271-49.326-6.223-115.743,2.142-69.268-15.188-90.4-15.694-91.011a.01.01,0,0,1,.014,0c33.14,19.3,43.646,61.41,44.891,118.869.007,0,.014-.007.022-.007.246,27.822,5.5,37.394,5.5,37.394,7.6,11.216,24.963-2.945,24.963-2.945,29.167-17.142,38.451-37.575,39.652-40.477.1-.232.145-.355.145-.355s.036.4.1,1.172c.094,1.136.246,3.075.449,5.76v.014a33.172,33.172,0,0,1-2.735,10.34c-6.064,14.312-22.062,32.981-48.769,52.6q-1.91,1.4-3.893,2.815l-2.041-8.7-.065.036c11.23,43.878,10.253,78.783-1.671,105.063-11.983,21.729-32.243,36.9-59.948,45.73a150.743,150.743,0,0,1-91.46,0q-4.558-1.454-8.849-3.148c107.979,10.188,146.6-76.532,128.536-111.474-.369-.716-.731-1.426-1.078-2.12" transform="translate(-1644.655 -900.228)" fill="#371a45"/>
          </g>
        </g>
      </g>
    </g>
  </g>
</svg>
