<?xml version="1.0" encoding="utf-8"?>
<!-- Generator: Adobe Illustrator 23.0.3, SVG Export Plug-In . SVG Version: 6.00 Build 0)  -->
<svg version="1.1" id="Layer_1" xmlns="http://www.w3.org/2000/svg" xmlns:xlink="http://www.w3.org/1999/xlink" x="0px" y="0px"
	 viewBox="0 0 500 110" style="enable-background:new 0 0 500 110;" xml:space="preserve">
<style type="text/css">
	.st0{fill-rule:evenodd;clip-rule:evenodd;fill:#6554C0;}
	.st1{fill:#FFFFFF;}
	.st2{fill:#9DA3A8;}
	.st3{fill:#B6BFC6;}
</style>
<circle class="st0" cx="57.5" cy="55" r="49.5"/>
<g>
	<path class="st1" d="M46.7,79.5c-1.9,0-3.6-1.6-3.6-3.6V33c0-2,1.6-3.6,3.6-3.6h10.4c3.8,0,7.4,0.8,10.7,2.2
		c3.2,1.4,6.1,3.5,8.4,6.1c2.3,2.6,4,5.6,5.1,8.9c1.1,3.4,1.4,7,1,10.7C81.5,63.4,78.6,69,74,73.1c-4.6,4.1-10.6,6.4-16.7,6.4H46.7z
		 M57.3,72.3c9.1,0,16.7-6.8,17.8-15.8c0.6-5.4-0.9-10.4-4.2-14.1c-3.4-3.8-8.4-5.9-13.8-5.9h-6.8v35.9H57.3z"/>
</g>
<g>
	<g>
		<path class="st2" d="M130.7,69.5c-1.9,0-3.6-1.6-3.6-3.6V23c0-2,1.6-3.6,3.6-3.6h10.4c3.8,0,7.4,0.8,10.7,2.2
			c3.2,1.4,6.1,3.5,8.4,6.1c2.3,2.6,4,5.6,5.1,8.9c1.1,3.4,1.4,7,1,10.7c-0.7,6.1-3.6,11.6-8.2,15.8c-4.6,4.1-10.6,6.4-16.7,6.4
			H130.7z M141.3,62.3c9.1,0,16.7-6.8,17.8-15.8c0.6-5.4-0.9-10.4-4.2-14.1c-3.4-3.8-8.4-5.9-13.8-5.9h-6.8v35.9H141.3z"/>
		<path class="st2" d="M200.7,69.3c-1.6,0.4-3.9-0.4-4.7-2.6l-2.6-7.3H176l-3,7.3c-0.4,1.6-1.7,2.6-3.4,2.6c-0.4,0-0.4,0-0.8,0
			c-2.1-0.9-3-3-2.6-4.7L181.5,22c0.4-1.4,1.7-2.6,3.5-2.6c1.7,0,2.9,1.2,3.4,2.6l14.5,42.6C203.7,66.3,202.9,68.4,200.7,69.3z
			 M191.3,52.3L185,34l-6.4,18.3H191.3z"/>
		<path class="st2" d="M233.9,55.1c0,7.9-6.4,14.4-14.3,14.4s-14.3-6.4-14.3-14.4c0-1.9,1.6-3.6,3.6-3.6c2,0,3.6,1.6,3.6,3.6
			c0,4,3.2,7.2,7.1,7.2s7.1-3.2,7.1-7.2c0-3.9-3.2-7.1-7.1-7.1c-7.9,0-14.3-6.4-14.3-14.3c0-7.9,6.4-14.3,14.3-14.3
			s14.3,6.4,14.3,14.3c0,2-1.6,3.6-3.6,3.6c-1.9,0-3.6-1.6-3.6-3.6c0-3.9-3.2-7.1-7.1-7.1s-7.1,3.2-7.1,7.1s3.2,7.1,7.1,7.1
			C227.5,40.8,233.9,47.3,233.9,55.1z"/>
		<path class="st2" d="M274.5,23.1v42.7c0,2-1.6,3.6-3.6,3.6c-2,0-3.6-1.6-3.6-3.6V48.2h-22.1v17.6c0,2-1.6,3.6-3.6,3.6
			c-2,0-3.6-1.6-3.6-3.6V23.1c0-1.9,1.6-3.6,3.6-3.6c1.9,0,3.6,1.6,3.6,3.6v17.9h22.1V23.1c0-1.9,1.6-3.6,3.6-3.6
			C272.8,19.5,274.5,21.2,274.5,23.1z"/>
		<path class="st2" d="M314.7,55.4c-0.1,7.5-5.9,13.5-13.4,14.1c-0.2,0,1.3,0-18.8,0c-0.1,0-0.1,0-0.1,0h-0.1c-2,0-3.6-1.6-3.6-3.6
			V23.2c0-1.9,1.6-3.6,3.6-3.6c0.1,0-1.6,0,13.8,0c7.5,0.4,13.9,6.4,13.9,14.3c-0.1,3.4-1.2,6.4-3.1,8.9
			C311.6,45.2,314.7,50.1,314.7,55.4z M295.6,26.8h-9.7v14.4h9.7c4.1,0,7.4-3.2,7.4-7.3C303,29.8,299.7,26.8,295.6,26.8z
			 M307.6,55.4c0-3.6-3.2-7.1-7.1-7.1h-14.6v14.1h14.9C304.3,62.3,307.6,59.3,307.6,55.4z"/>
		<path class="st2" d="M317.5,44.2c0-13.4,10.9-24.7,24.7-24.7s24.7,11.3,24.7,24.7c0,13.8-10.9,25.2-24.7,25.2S317.5,58,317.5,44.2
			z M324.4,44.2c0,10.1,8,18.2,17.8,18.2c9.8,0,17.9-8.1,17.9-18.2c0-9.8-8.1-17.8-17.9-17.8C332.4,26.4,324.4,34.4,324.4,44.2z"/>
		<path class="st2" d="M401.2,69.3c-1.6,0.4-3.9-0.4-4.7-2.6l-2.6-7.3h-17.4l-3,7.3c-0.4,1.6-1.7,2.6-3.4,2.6c-0.4,0-0.4,0-0.8,0
			c-2.1-0.9-3-3-2.6-4.7L382,22c0.4-1.4,1.7-2.6,3.5-2.6c1.7,0,2.9,1.2,3.4,2.6l14.5,42.6C404.1,66.3,403.3,68.4,401.2,69.3z
			 M391.7,52.3L385.5,34L379,52.3H391.7z"/>
		<path class="st2" d="M430.2,47.7l10,16.3c1,1.6,0.5,3.9-1.2,4.9c-0.6,0.4-1.2,0.5-1.9,0.5c-1.2,0-2.4-0.6-3.1-1.7l-11.9-19.4h-7.3
			v17.7c0,2-1.6,3.5-3.6,3.5c-2,0-3.6-1.5-3.6-3.5V23.2c0-1.9,1.6-3.6,3.6-3.6c0.1,0,0.1,0,0.1,0h15c7.2,0,14.1,6.1,14.2,14.1
			C440.8,40.1,436.5,45.4,430.2,47.7z M433.7,33.8c-0.1-4-3.4-7.1-7.4-7.1h-11.4v14.4h11.4C430.3,41.1,433.6,37.9,433.7,33.8z"/>
		<path class="st2" d="M448.5,69.5c-1.9,0-3.6-1.6-3.6-3.6V23c0-2,1.6-3.6,3.6-3.6h10.4c3.8,0,7.4,0.8,10.7,2.2
			c3.2,1.4,6.1,3.5,8.4,6.1c2.3,2.6,4,5.6,5.1,8.9c1.1,3.4,1.4,7,1,10.7c-0.7,6.1-3.6,11.6-8.2,15.8c-4.6,4.1-10.6,6.4-16.7,6.4
			H448.5z M459.1,62.3c9.1,0,16.7-6.8,17.8-15.8c0.6-5.4-0.9-10.4-4.2-14.1c-3.4-3.8-8.4-5.9-13.8-5.9h-6.8v35.9H459.1z"/>
	</g>
</g>
<g>
	<g>
		<path class="st3" d="M304.1,97.2c-0.8,0-1.4-0.7-1.4-1.4V78.5c0-0.8,0.7-1.5,1.4-1.5h4.2c1.5,0,3,0.3,4.3,0.9
			c1.3,0.6,2.5,1.4,3.4,2.5c0.9,1,1.6,2.2,2,3.6c0.4,1.4,0.6,2.8,0.4,4.3c-0.3,2.5-1.5,4.7-3.3,6.4c-1.8,1.6-4.3,2.6-6.7,2.6H304.1z
			 M308.4,94.3c3.7,0,6.7-2.7,7.2-6.4c0.3-2.2-0.3-4.2-1.7-5.7c-1.4-1.5-3.4-2.4-5.6-2.4h-2.7v14.5H308.4z"/>
		<path class="st3" d="M320.7,79.5c-0.3-0.3-0.4-0.6-0.4-1s0.2-0.8,0.4-1c0.3-0.3,0.6-0.4,1-0.4s0.8,0.2,1,0.4
			c0.3,0.3,0.4,0.6,0.4,1s-0.1,0.8-0.4,1c-0.3,0.3-0.6,0.4-1,0.4S321,79.7,320.7,79.5z M320.3,95.8V84.2c0-0.8,0.6-1.4,1.4-1.4
			c0.8,0,1.4,0.6,1.4,1.4v11.6c0,0.8-0.6,1.4-1.4,1.4C320.9,97.2,320.3,96.6,320.3,95.8z"/>
		<path class="st3" d="M339.3,90c0,0.8-0.6,1.4-1.4,1.4h-9.9c0.6,1.7,2.2,3,4.2,3c0.7,0,1.8-0.1,3.2-1c0.7-0.4,1.6,0,1.9,0.7
			c0.3,0.7,0,1.5-0.7,1.9c-1.9,1.3-3.4,1.2-4.4,1.2c-4,0-7.2-3.3-7.2-7.2c0-4,3.2-7.2,7.2-7.2C335.6,82.7,339.3,85.3,339.3,90z
			 M327.9,88.5h8.3c-0.6-2-2.5-2.9-4.2-2.9C330.2,85.6,328.5,86.8,327.9,88.5z"/>
		<path class="st3" d="M355.5,97.2c0,4-3.3,7.2-7.2,7.2c-2.8,0-5.3-1.6-6.5-4.1c-0.3-0.7-0.1-1.6,0.7-1.9c0.7-0.3,1.6-0.1,1.9,0.6
			c0.8,1.5,2.3,2.5,4,2.5c2.4,0,4.3-1.9,4.4-4.3c0,0,0-0.1,0-1.6c-1.2,0.9-2.7,1.5-4.4,1.5c-4,0-7.2-3.3-7.2-7.2
			c0-4,3.2-7.2,7.2-7.2c4,0,7.2,3.2,7.2,7.2C355.5,90,355.5,90,355.5,97.2z M352.7,90c0-2.4-2-4.4-4.4-4.4c-2.4,0-4.4,2-4.4,4.4
			c0,2.4,2,4.4,4.4,4.4C350.7,94.3,352.7,92.4,352.7,90z"/>
		<path class="st3" d="M357.2,90c0-4,3.3-7.2,7.2-7.2c4,0,7.2,3.2,7.2,7.2c0,4-3.2,7.2-7.2,7.2C360.5,97.2,357.2,93.9,357.2,90z
			 M360.1,90c0,2.4,2,4.4,4.4,4.4c2.4,0,4.4-2,4.4-4.4c0-2.4-2-4.4-4.4-4.4C362,85.6,360.1,87.5,360.1,90z"/>
		<path class="st3" d="M382.1,87.2c0-5.7,4.6-10.2,10.2-10.2c3.6,0,6.9,1.9,8.6,5c0.5,0.9,0.2,1.8-0.5,2.1c-0.7,0.3-1.6,0.2-1.9-0.5
			c-1.4-2.3-3.6-3.6-6.2-3.6c-4,0-7.2,3.3-7.2,7.2c0,4,3.3,7.1,7.2,7.1c2.4,0,4.7-1.2,6-3.3c0.3-0.7,1.4-0.9,1.9-0.3
			c0.7,0.3,1,1.2,0.5,1.9c-1.9,2.9-5,4.7-8.5,4.7C386.8,97.2,382.1,92.7,382.1,87.2z"/>
		<path class="st3" d="M417,90.1v5.7c0,0.8-0.6,1.4-1.4,1.4c-0.6,0-1.4-0.6-1.4-1.4c-1.2,1-2.6,1.4-4.3,1.4c-4.1,0-7.3-3-7.3-7.1
			s3.2-7.3,7.3-7.3S417,86,417,90.1z M414.2,90.1c0-2.4-1.8-4.5-4.3-4.5c-2.4,0-4.5,2-4.5,4.5c0,2.4,2,4.3,4.5,4.3
			C412.3,94.3,414.2,92.5,414.2,90.1z"/>
		<path class="st3" d="M427.4,92.9c0,2.4-1.9,4.4-4.3,4.4c-2,0-3.7-1.5-4.2-3.1c-0.3-0.8,0.3-1.5,1.1-1.7c0.8-0.1,1.3,0.4,1.7,1.1
			c0.4,0.8,0.8,0.9,1.4,0.9c0.8,0,1.5-0.7,1.5-1.5c0-0.8-0.7-1.5-1.5-1.5c-1.2,0-2.3-0.5-3.1-1.3c-0.8-0.8-1.3-1.9-1.3-3.1
			c0-2.4,1.9-4.3,4.3-4.3c2,0,3.9,1.4,4.2,3c0.1,0.8-0.3,1.6-1.1,1.7c-0.8,0.2-1.4-0.3-1.7-1.1c-0.2-0.5-0.7-0.8-1.4-0.8
			c-0.8,0-1.5,0.7-1.5,1.5c0,0.8,0.7,1.5,1.5,1.5c1.2,0,2.2,0.5,3.1,1.3C427,90.7,427.4,91.7,427.4,92.9z"/>
		<path class="st3" d="M438.4,84.2c0,0.8-0.6,1.4-1.4,1.4h-2v10.2c0,0.8-0.6,1.4-1.4,1.4c-0.8,0-1.4-0.7-1.4-1.4V85.6h-2.1
			c-0.8,0-1.4-0.7-1.4-1.4s0.6-1.4,1.4-1.4h2.1V77c0-0.8,0.6-1.4,1.4-1.4c0.8,0,1.4,0.6,1.4,1.4v5.8h2
			C437.7,82.8,438.4,83.4,438.4,84.2z"/>
		<path class="st3" d="M440.6,79.5c-0.3-0.3-0.4-0.6-0.4-1s0.2-0.8,0.4-1c0.3-0.3,0.6-0.4,1-0.4s0.8,0.2,1,0.4
			c0.3,0.3,0.4,0.6,0.4,1s-0.1,0.8-0.4,1c-0.3,0.3-0.6,0.4-1,0.4S440.8,79.7,440.6,79.5z M440.1,95.8V84.2c0-0.8,0.6-1.4,1.4-1.4
			c0.8,0,1.4,0.6,1.4,1.4v11.6c0,0.8-0.6,1.4-1.4,1.4C440.8,97.2,440.1,96.6,440.1,95.8z"/>
		<path class="st3" d="M444.8,95.8V77c0-0.8,0.6-1.4,1.4-1.4c0.8,0,1.4,0.6,1.4,1.4v18.8c0,0.8-0.6,1.4-1.4,1.4
			C445.4,97.2,444.8,96.6,444.8,95.8z"/>
		<path class="st3" d="M462.1,89.1v6.7c0,0.8-0.7,1.4-1.4,1.4c-0.8,0-1.4-0.6-1.4-1.4v-6.7c0-1.9-1.6-3.5-3.5-3.5
			c-1.9,0-3.5,1.6-3.5,3.5v6.7c0,0.8-0.6,1.4-1.4,1.4c-0.8,0-1.4-0.6-1.4-1.4V77c0-0.8,0.6-1.4,1.4-1.4c0.8,0,1.4,0.6,1.4,1.4v6.8
			c1-0.7,2.2-1,3.5-1C459.3,82.7,462.1,85.6,462.1,89.1z"/>
		<path class="st3" d="M463.7,90c0-4,3.3-7.2,7.2-7.2c4,0,7.2,3.2,7.2,7.2c0,4-3.2,7.2-7.2,7.2C467,97.2,463.7,93.9,463.7,90z
			 M466.6,90c0,2.4,2,4.4,4.4,4.4c2.4,0,4.4-2,4.4-4.4c0-2.4-2-4.4-4.4-4.4C468.6,85.6,466.6,87.5,466.6,90z"/>
	</g>
</g>
</svg>
