<svg id="Capa_1" enable-background="new 0 0 512 512" height="512" viewBox="0 0 512 512" width="512" xmlns="http://www.w3.org/2000/svg"><g><g><path d="m385.868 501.977v-33.592c0-68.625-55.631-124.256-124.256-124.256-68.625 0-124.257 55.632-124.257 124.256v33.592z" fill="#c1e5ef"/><path d="m141.688 435.773c-2.82 10.394-4.333 21.325-4.333 32.611v33.592h248.513v-33.592c0-11.286-1.514-22.217-4.333-32.611-76.732 26.084-156.922 24.13-239.847 0z" fill="#96b4eb"/><path d="m270.315 386.879c23.991 10.79 40.866 36.4 40.866 66.285v7.191c0 11.193-9.074 20.267-20.267 20.267h-112.246v20.483h165.887v-31.74c0-42.868-32.523-78.135-74.24-82.486z" fill="#8286ea"/><path d="m311.181 454.472c9.621-3.972 19.659-6.749 29.73-9.425-9.577-31.265-37.117-54.676-70.596-58.168 23.991 10.79 40.866 36.399 40.866 66.285z" fill="#a6aaed"/><path d="m296.676 396.378h-70.13c-87.145 0-157.791-70.645-157.791-157.791 0-87.146 70.645-157.791 157.791-157.791h70.13c87.145 0 157.791 70.645 157.791 157.791 0 87.146-70.646 157.791-157.791 157.791z" fill="#efc5b4"/><path d="m299.716 67.117h-76.209c-94.7 0-171.469 76.769-171.469 171.469 0 86.997 64.791 158.854 148.751 169.969v-78.508h121.645v78.508c83.96-11.115 148.751-82.971 148.751-169.969 0-94.699-76.769-171.469-171.469-171.469z" fill="#96b4eb"/><path d="m450.784 191.321-180.36-46.493c-5.782-1.49-11.847-1.496-17.631-.015l-181.808 46.541c-15.679 4.014-26.645 18.141-26.645 34.325v82.732c0 19.569 15.863 35.432 35.432 35.432h362.168c19.569 0 35.432-15.863 35.432-35.432v-82.779c0-16.163-10.937-30.276-26.588-34.311zm-325.1 93.156c0 10.262-8.319 18.581-18.581 18.581-10.262 0-18.581-8.319-18.581-18.581v-38.779c0-10.262 8.319-18.581 18.581-18.581 10.262 0 18.581 8.319 18.581 18.581zm77.254 0c0 10.262-8.319 18.581-18.581 18.581-10.262 0-18.581-8.319-18.581-18.581v-62.368c0-10.262 8.319-18.581 18.581-18.581 10.262 0 18.581 8.319 18.581 18.581zm77.254 0c0 10.262-8.319 18.581-18.581 18.581-10.262 0-18.581-8.319-18.581-18.581v-81.403c0-10.262 8.319-18.582 18.581-18.582 10.262 0 18.581 8.319 18.581 18.582zm77.254 0c0 10.262-8.319 18.581-18.581 18.581-10.262 0-18.581-8.319-18.581-18.581v-62.368c0-10.262 8.319-18.581 18.581-18.581 10.262 0 18.581 8.319 18.581 18.581zm77.254 0c0 10.262-8.319 18.581-18.581 18.581-10.262 0-18.581-8.319-18.581-18.581v-38.779c0-10.262 8.319-18.581 18.581-18.581 10.262 0 18.581 8.319 18.581 18.581z" fill="#c1e5ef"/><path d="m450.784 191.321-180.36-46.493c-5.782-1.49-11.847-1.496-17.631-.015l-12.207 3.125 133.387 34.385c12.693 3.272 21.563 14.718 21.563 27.826v67.135c0 15.871-12.866 28.736-28.736 28.736h-293.724c-15.87 0-28.736-12.865-28.736-28.736v31.126c0 19.569 15.863 35.432 35.432 35.432h362.168c19.569 0 35.432-15.863 35.432-35.432v-82.779c0-16.162-10.937-30.275-26.588-34.31z" fill="#a6aaed"/><path d="m416.119 225.912c-11.284 0-20.464 9.827-20.464 21.906v34.539c0 12.079 9.18 21.906 20.464 21.906s20.464-9.827 20.464-21.906v-34.539c.001-12.08-9.179-21.906-20.464-21.906z" fill="#8286ea"/><path d="m286.266 10.023h-49.251c-11.174 0-19.931 9.605-18.9 20.732l6.766 73.041c.904 9.763 9.096 17.23 18.9 17.23h35.971c9.83 0 18.033-7.504 18.906-17.295l6.514-73.041c.991-11.104-7.757-20.667-18.906-20.667z" fill="#d789b9"/><path d="m286.266 10.023h-22.014c7.552 0 13.477 7.149 12.806 15.451l-4.412 54.605c-.591 7.319-6.148 12.929-12.807 12.929h-24.365c-6.491 0-11.926-5.338-12.74-12.394l2.148 23.182c.904 9.763 9.096 17.23 18.9 17.23h35.971c9.83 0 18.033-7.505 18.906-17.295l6.514-73.041c.99-11.105-7.758-20.667-18.907-20.667z" fill="#af30fa" opacity=".3"/><path d="m463.803 407.478 8.233 23.151c.353.991 1.051 1.777 1.931 2.173l20.568 9.267c2.906 1.309 2.906 5.939 0 7.248l-20.568 9.267c-.881.397-1.579 1.182-1.931 2.173l-8.233 23.151c-1.163 3.271-5.277 3.271-6.44 0l-8.233-23.151c-.353-.991-1.05-1.777-1.931-2.173l-20.568-9.267c-2.906-1.309-2.906-5.939 0-7.248l20.568-9.267c.881-.397 1.578-1.182 1.931-2.173l8.233-23.151c1.163-3.27 5.277-3.27 6.44 0z" fill="#c1e5ef"/><path d="m44.475 372.132 6.107 17.173c.262.735.779 1.318 1.432 1.612l15.257 6.874c2.156.971 2.156 4.405 0 5.377l-15.257 6.874c-.653.294-1.171.877-1.432 1.612l-6.107 17.173c-.863 2.426-3.914 2.426-4.777 0l-6.107-17.173c-.261-.735-.779-1.318-1.432-1.612l-15.257-6.874c-2.156-.971-2.156-4.405 0-5.377l15.257-6.874c.653-.294 1.171-.877 1.432-1.612l6.107-17.173c.863-2.426 3.915-2.426 4.777 0z" fill="#c1e5ef"/><g fill="#96b4eb"><ellipse cx="53.697" cy="58.603" rx="17.978" ry="17.978" transform="matrix(.383 -.924 .924 .383 -20.994 85.787)"/><path d="m85.456 464.306c0 4.283-3.472 7.755-7.755 7.755s-7.755-3.472-7.755-7.755 3.472-7.755 7.755-7.755c4.283-.001 7.755 3.471 7.755 7.755z"/></g></g><g><path d="m130.078 153.15c2.484 0 4.973-.918 6.913-2.767.723-.689 1.454-1.369 2.192-2.039 4.099-3.72 4.406-10.059.687-14.158-3.72-4.099-10.059-4.406-14.158-.687-.86.78-1.71 1.572-2.55 2.373-4.007 3.819-4.16 10.163-.341 14.17 1.97 2.067 4.611 3.108 7.257 3.108z" fill="#fff"/><path d="m156.224 133.701c1.686 0 3.395-.426 4.963-1.322 7.501-4.286 15.435-7.802 23.582-10.451 5.264-1.712 8.145-7.367 6.433-12.631-1.712-5.265-7.368-8.146-12.63-6.433-9.447 3.071-18.642 7.145-27.329 12.109-4.806 2.746-6.476 8.869-3.73 13.675 1.85 3.239 5.232 5.053 8.711 5.053z" fill="#fff"/><g fill="#3c122c"><path d="m476.043 195.59c-18.359-75.279-83.783-132.317-163.206-138.019l2.318-25.991c.722-8.088-2.008-16.162-7.488-22.153s-13.28-9.427-21.4-9.427h-49.251c-8.139 0-15.952 3.45-21.435 9.465-5.483 6.014-8.197 14.111-7.446 22.215l2.399 25.902c-78.725 5.588-143.716 61.6-162.801 135.852-8.37 8.319-13.417 19.803-13.417 32.247v82.732c0 25.064 20.391 45.455 45.455 45.455h3.575c1.329 1.617 2.678 3.221 4.068 4.795 16.207 18.353 35.779 33.08 57.436 43.506-11.135 19.555-17.519 42.15-17.519 66.217v33.592c0 5.536 4.487 10.023 10.023 10.023s10.023-4.487 10.023-10.023v-33.592c0-9.497 1.182-18.72 3.378-27.546 7.624 3.425 15.711 6.461 24.158 9.105-1.473 6.409-2.259 13.077-2.259 19.926v35.91c0 3.321 2.692 6.014 6.014 6.014 3.321 0 6.014-2.693 6.014-6.014v-35.91c0-5.705.638-11.261 1.822-16.614 23.019 5.998 48.265 9.194 74.124 9.194 26.607 0 52.492-3.364 75.982-9.676 1.254 5.501 1.931 11.219 1.931 17.095v35.91c0 3.321 2.693 6.014 6.014 6.014s6.014-2.693 6.014-6.014v-35.91c0-7.055-.836-13.918-2.396-20.503 8.432-2.717 16.494-5.83 24.089-9.334 2.327 9.071 3.583 18.565 3.583 28.352v33.592c0 5.536 4.488 10.023 10.023 10.023s10.023-4.487 10.023-10.023v-33.592c0-24.067-6.384-46.662-17.518-66.217 21.657-10.427 41.229-25.154 57.435-43.506 1.391-1.575 2.742-3.178 4.072-4.795h2.061c25.064 0 45.455-20.391 45.455-45.455v-82.779c-.001-11.377-4.228-21.952-11.353-30.043zm-245.648-172.621c1.719-1.885 4.07-2.923 6.621-2.923h49.251c2.545 0 4.892 1.034 6.61 2.911 1.717 1.878 2.538 4.308 2.312 6.842l-6.514 73.041c-.414 4.654-4.25 8.163-8.922 8.163h-35.971c-4.656 0-8.491-3.496-8.92-8.132l-6.766-73.041c-.235-2.539.581-4.976 2.299-6.861zm-18.012 54.565 2.518 27.186c1.391 15.01 13.807 26.329 28.881 26.329h35.971c15.126 0 27.546-11.361 28.889-26.428l2.414-27.07c63.78 4.448 117.466 46.098 139.444 103.346l-177.573-45.775c-7.398-1.906-15.219-1.913-22.619-.019l-177.431 45.42c22.091-57.12 75.771-98.63 139.506-102.989zm100.027 307.973c-5.171.553-10.418.848-15.734.848h-70.13c-5.316 0-10.563-.294-15.735-.846v-31.643h101.599zm-121.644 11.197c-30.982-6.383-58.541-21.64-80.135-42.838h80.135zm-36.456 32.536c2.477-6.764 5.564-13.234 9.215-19.334 8.639 3.026 17.529 5.397 26.597 7.087-4.838 6.522-8.799 13.73-11.724 21.444-8.459-2.655-16.525-5.722-24.088-9.197zm106.317 21.183c-24.68 0-48.724-3.014-70.608-8.67 3.574-9.062 8.813-17.29 15.352-24.296.604-.705 3.215-3.176 4.271-4.232 2.777-2.548 5.74-4.897 8.868-7.021 2.663.127 5.341.198 8.035.198h70.13c2.694 0 5.371-.072 8.034-.199 3.129 2.124 6.092 4.473 8.87 7.022.93.901 3.692 3.649 4.278 4.24 6.425 6.886 11.594 14.953 15.162 23.831-22.332 5.954-46.989 9.127-72.392 9.127zm107.996-21.962c-7.527 3.554-15.567 6.694-24.005 9.421-2.903-7.505-6.795-14.522-11.518-20.889 9.065-1.689 17.952-4.059 26.588-7.084 3.511 5.867 6.508 12.07 8.935 18.552zm-36.167-31.757v-42.838h80.13c-21.591 21.198-49.149 36.455-80.13 42.838zm134.893-88.293c0 14.01-11.398 25.409-25.409 25.409h-362.168c-14.011 0-25.409-11.399-25.409-25.409v-82.732c0-11.613 7.857-21.735 19.108-24.615l181.809-46.541c2.061-.528 4.181-.791 6.301-.791 2.134 0 4.269.267 6.343.802l180.36 46.493c11.226 2.894 19.066 13.012 19.066 24.605v82.779z"/><path d="m261.611 178.479c-13.562 0-24.595 11.033-24.595 24.595v81.403c0 13.562 11.033 24.595 24.595 24.595s24.595-11.033 24.595-24.595v-81.403c0-13.562-11.033-24.595-24.595-24.595zm12.567 105.998c0 6.93-5.638 12.567-12.567 12.567s-12.567-5.638-12.567-12.567v-81.403c0-6.929 5.638-12.567 12.567-12.567 6.93 0 12.567 5.638 12.567 12.567z"/><path d="m338.865 197.513c-13.562 0-24.595 11.033-24.595 24.595v62.368c0 13.562 11.033 24.595 24.595 24.595 13.561 0 24.594-11.033 24.594-24.595v-62.368c.001-13.562-11.032-24.595-24.594-24.595zm12.567 86.964c0 6.93-5.638 12.567-12.567 12.567-6.93 0-12.568-5.638-12.568-12.567v-62.368c0-6.93 5.638-12.567 12.568-12.567 6.929 0 12.567 5.638 12.567 12.567z"/><path d="m416.119 221.103c-13.562 0-24.595 11.033-24.595 24.595v38.779c0 13.562 11.033 24.595 24.595 24.595s24.595-11.033 24.595-24.595v-38.779c.001-13.562-11.032-24.595-24.595-24.595zm12.568 63.374c0 6.93-5.638 12.567-12.568 12.567s-12.568-5.638-12.568-12.567v-38.779c0-6.93 5.638-12.567 12.568-12.567s12.568 5.638 12.568 12.567z"/><path d="m107.103 221.103c-13.562 0-24.595 11.033-24.595 24.595v38.779c0 13.562 11.033 24.595 24.595 24.595s24.595-11.033 24.595-24.595v-38.779c0-13.562-11.034-24.595-24.595-24.595zm12.568 63.374c0 6.93-5.638 12.567-12.568 12.567-6.929 0-12.567-5.638-12.567-12.567v-38.779c0-6.93 5.638-12.567 12.567-12.567 6.93 0 12.568 5.638 12.568 12.567z"/><path d="m184.357 197.513c-13.562 0-24.595 11.033-24.595 24.595v62.368c0 13.562 11.033 24.595 24.595 24.595s24.595-11.033 24.595-24.595v-62.368c0-13.562-11.033-24.595-24.595-24.595zm12.567 86.964c0 6.93-5.638 12.567-12.567 12.567s-12.567-5.638-12.567-12.567v-62.368c0-6.93 5.638-12.567 12.567-12.567 6.93 0 12.567 5.638 12.567 12.567z"/></g></g></g></svg>